<svg xmlns="http://www.w3.org/2000/svg" viewBox="0 0 315.96 315.96"><defs><style>.cls-1{fill:#f8f2a7;}.cls-2{fill:#303031;}.cls-3{fill:none;stroke:#303031;stroke-miterlimit:10;}</style></defs><g id="Layer_2" data-name="Layer 2"><g id="Layer_1-2" data-name="Layer 1"><polygon class="cls-1" points="315.96 157.98 294.28 179.58 308.27 206.81 280.95 220.63 285.79 250.85 255.55 255.55 250.85 285.79 220.63 280.95 206.81 308.27 179.58 294.28 157.98 315.96 136.38 294.28 109.15 308.27 95.33 280.95 65.11 285.79 60.41 255.55 30.17 250.85 35.01 220.63 7.69 206.81 21.68 179.58 0 157.98 21.68 136.38 7.69 109.15 35.01 95.33 30.17 65.11 60.41 60.41 65.11 30.17 95.33 35.01 109.15 7.69 136.38 21.68 157.98 0 179.58 21.68 206.81 7.69 220.63 35.01 250.85 30.17 255.55 60.41 285.79 65.11 280.95 95.33 308.27 109.15 294.28 136.38 315.96 157.98"/><circle class="cls-2" cx="135.4" cy="121.83" r="4.37"/><circle class="cls-2" cx="180.56" cy="121.83" r="4.37"/><polyline class="cls-3" points="155.76 128.4 152.11 144.79 163.85 144.79 157.98 160.16"/></g></g></svg>