<svg width="175" height="106" viewBox="0 0 175 106" fill="none" xmlns="http://www.w3.org/2000/svg">
<path d="M157 57C157 87.0995 126.1 105 96 105C65.9005 105 45 82.5995 45 52.5C45 22.4005 65.9005 0 96 0C126.1 0 157 26.9005 157 57Z" fill="#5D89FA"/>
<path d="M124.715 27.2187C124.682 26.4738 124.663 25.7289 124.656 24.9776C124.616 19.6208 121.039 14.9311 115.045 16.2137C108.594 17.5933 105.673 25.6253 105.057 31.157C105.056 31.2 105.045 31.2422 105.024 31.28C105.002 31.3231 104.973 31.3616 104.936 31.3934C104.9 31.4251 104.857 31.4495 104.811 31.4652C104.765 31.4808 104.716 31.4874 104.667 31.4845C104.619 31.4817 104.571 31.4694 104.527 31.4485C101.705 30.153 99.3959 30.9 97.5987 33.6896C94.744 38.0942 95.6117 44.2931 101.016 46.4047C103.661 47.4326 106.438 48.0995 109.269 48.3868C115.21 48.9768 121.187 49.1414 127.153 48.8791C134.916 48.5811 142.597 48.3458 150.196 48.1731C155.879 48.0435 161.635 48.3674 167.338 48.4904C169.669 48.5854 172 48.332 174.253 47.7391C174.392 47.702 174.521 47.6357 174.631 47.5447C174.841 47.3711 174.973 47.1228 174.996 46.8544C175.02 46.5861 174.934 46.3195 174.756 46.1132C174.337 45.6152 173.754 45.2742 173.107 45.1481C169.475 44.3757 165.927 43.2674 162.509 41.8382C161.082 41.2127 159.583 40.7561 158.045 40.4779C154.992 39.9662 152.084 39.3703 150.097 36.7858C148.527 34.7519 147.447 32.0832 145.388 30.5351C143.328 28.9871 141.235 29.2397 139.221 31.4679C139.158 31.538 139.079 31.5915 138.989 31.6233C138.856 31.6606 138.713 31.6465 138.589 31.5839C138.466 31.5212 138.372 31.4148 138.327 31.2865C136.856 27.0762 133.313 23.6108 128.445 25.2496C127.206 25.6706 126.259 26.6876 125.186 27.413C124.881 27.6203 124.735 27.5491 124.715 27.2187Z" fill="#B1D9FA"/>
<path d="M39.6251 31.6371C22.9589 44.129 18.4472 66.5837 23.6273 86.0473C24.5165 89.3811 25.5891 92.6632 26.8402 95.8787C23.311 100.951 19.5404 98.8703 17.974 94.2801C13.481 81.4773 13.1089 67.5896 16.9099 54.5708C20.4566 42.2603 27.4338 31.6847 38.0754 24.7131C55.0062 13.5872 76.4896 16.4087 89.8107 31.499C94.5248 36.6875 98.0976 42.8095 100.297 49.4678C101.234 52.3572 99.971 54.2256 96.5091 55.0729C94.538 50.8548 92.2718 46.7812 89.7274 42.8825C83.0736 33.0018 71.8431 26.0145 59.6492 25.5116C57.0552 25.414 54.46 25.6565 51.9295 26.2329" fill="#EE4824"/>
<path d="M52.0476 25.8654C69.4553 22.2682 86.4426 33.8618 93.7848 49.2405C95.3948 52.1924 97.918 56.7448 95.5388 59.7822C95.2327 60.1218 94.8592 60.3939 94.4422 60.5811C94.0252 60.7683 93.5738 60.8665 93.1167 60.8694C92.6595 60.8723 92.2067 60.7799 91.7871 60.5981C91.3674 60.4163 90.9901 60.149 90.6791 59.8133C89.6204 58.7123 89.2028 57.1828 88.6343 55.7838C87.1676 51.8417 85.107 48.1472 82.5241 44.8286C76.8136 37.414 68.6286 32.5898 59.0163 32.8198C56.9195 32.754 54.8343 33.1511 52.9088 33.983C49.2271 35.7069 44.5483 37.1099 41.5724 39.9923C27.2937 53.6171 25.5535 75.7216 34.3913 93.1263C35.6563 95.5251 37.0209 98.7686 34.6303 100.716C31.7868 103.055 28.6537 99.5783 27.3628 97.0922C14.7932 72.3204 22.0787 33.0803 51.8332 25.9103L51.9988 25.861" fill="#FEAA24"/>
<path d="M55.3947 33.1188C70.735 30.451 83.6491 41.6894 88.61 55.9239C89.4167 58.25 90.6212 60.8284 89.9725 63.3028C89.8118 63.9873 89.4481 64.6069 88.9293 65.0806C88.4105 65.5542 87.7606 65.8596 87.0651 65.9568C86.3695 66.054 85.6607 65.9384 85.0315 65.6252C84.4024 65.312 83.8823 64.8158 83.5396 64.2017C82.3961 62.147 82.3516 59.3847 81.4593 57.2172C80.7848 55.2284 79.8542 53.3359 78.6911 51.5876C70.3772 39.6065 56.1878 35.7817 45.1428 46.5614C35.8576 56.4937 34.7797 71.9945 39.1793 84.5997C40.2583 87.7763 43.2743 90.4139 43.6 93.8338C43.697 94.6773 43.5011 95.5282 43.0454 96.2438C42.5897 96.9594 41.9019 97.4959 41.0973 97.7634C38.299 98.5969 35.779 95.84 34.65 93.4198C25.5424 75.8103 27.3154 53.3063 41.9724 39.6449C43.7649 37.9514 45.2333 37.3049 47.6855 36.0423C50.0625 34.7486 52.6116 33.8006 55.256 33.2267" fill="#5F853A"/>
<path d="M81.4883 62.351C81.3084 62.7217 81.0566 63.0528 80.7475 63.3249C80.4384 63.5971 80.0782 63.8049 79.688 63.9361C79.2977 64.0674 78.8852 64.1195 78.4745 64.0895C78.0638 64.0595 77.663 63.9479 77.2957 63.7613C74.6577 62.3608 73.6535 59.276 71.7964 56.6734C67.9642 50.5623 59.5332 45.9635 53.1468 51.0023C45.3472 57.1274 44.1267 68.5169 46.1238 77.931C46.6716 80.8856 48.1034 84.0996 47.1438 87.0279C45.9766 90.0559 42.1368 89.3366 40.4771 86.9508C39.0458 85.0769 38.4162 82.6124 37.8587 80.3262C35.4746 69.8677 36.3516 57.9626 42.7963 49.1044C49.7647 39.0731 63.2753 36.8267 72.7287 45.1131C77.0801 48.5697 83.5755 56.644 81.5356 62.2228L81.4883 62.351Z" fill="#7046F1"/>
<path d="M96.4006 50.3641C96.432 49.6418 96.4509 48.9195 96.4571 48.1909C96.4949 42.9964 99.8905 38.4489 105.581 39.6925C111.706 41.0304 114.479 48.819 115.064 54.183C115.064 54.2248 115.075 54.2657 115.095 54.3024C115.115 54.3441 115.144 54.3814 115.178 54.4122C115.213 54.4431 115.253 54.4667 115.297 54.4819C115.341 54.4971 115.387 54.5035 115.434 54.5007C115.48 54.4979 115.525 54.486 115.567 54.4657C118.246 53.2095 120.438 53.9339 122.144 56.6389C124.855 60.9101 124.031 66.9211 118.9 68.9687C116.389 69.9654 113.752 70.6122 111.065 70.8907C105.424 71.4629 99.75 71.6224 94.0865 71.3681C86.7168 71.0792 79.4246 70.851 72.21 70.6835C66.8147 70.5578 61.3503 70.8719 55.9362 70.9912C53.7235 71.0833 51.5098 70.8376 49.3713 70.2626C49.2395 70.2267 49.1172 70.1624 49.0129 70.0742C48.813 69.9058 48.6881 69.6651 48.6657 69.4048C48.6433 69.1446 48.7252 68.8861 48.8934 68.6861C49.2917 68.2031 49.8448 67.8725 50.4592 67.7502C53.9071 67.0012 57.2759 65.9264 60.5203 64.5405C61.8754 63.9341 63.2983 63.4913 64.7585 63.2215C67.6573 62.7253 70.4178 62.1474 72.3043 59.6413C73.7946 57.669 74.8196 55.0812 76.7752 53.58C78.7308 52.0789 80.7179 52.3238 82.6295 54.4845C82.6889 54.5525 82.7646 54.6044 82.8495 54.6353C82.9763 54.6714 83.1121 54.6577 83.229 54.597C83.346 54.5362 83.4352 54.4331 83.4784 54.3086C84.8743 50.2259 88.2385 46.8655 92.8603 48.4547C94.0362 48.8629 94.9354 49.8491 95.9541 50.5525C96.2434 50.7535 96.3817 50.6845 96.4006 50.3641Z" fill="#DDF0FF"/>
<path d="M118.918 63.1591C118.942 62.6173 118.957 62.0756 118.961 61.5291C118.991 57.6333 121.617 54.2226 126.018 55.1554C130.754 56.1588 132.898 62.0002 133.351 66.0233C133.351 66.0546 133.36 66.0853 133.375 66.1128C133.391 66.1441 133.412 66.1721 133.439 66.1952C133.466 66.2183 133.497 66.236 133.531 66.2474C133.565 66.2588 133.601 66.2636 133.637 66.2615C133.672 66.2594 133.707 66.2505 133.74 66.2352C135.811 65.2931 137.507 65.8364 138.826 67.8652C140.922 71.0685 140.285 75.5768 136.317 77.1125C134.375 77.8601 132.336 78.3451 130.258 78.554C125.896 78.9831 121.508 79.1028 117.128 78.9121C111.429 78.6954 105.79 78.5242 100.21 78.3986C96.038 78.3044 91.8122 78.5399 87.6253 78.6294C85.9142 78.6985 84.2022 78.5142 82.5485 78.083C82.4465 78.056 82.3519 78.0078 82.2713 77.9416C82.1167 77.8153 82.0201 77.6348 82.0028 77.4396C81.9855 77.2444 82.0488 77.0505 82.1789 76.9005C82.4869 76.5383 82.9146 76.2904 83.3897 76.1986C86.0561 75.6368 88.6614 74.8308 91.1703 73.7914C92.2183 73.3365 93.3186 73.0044 94.4479 72.8021C96.6896 72.43 98.8244 71.9966 100.283 70.117C101.436 68.6378 102.228 66.6969 103.741 65.571C105.253 64.4451 106.79 64.6288 108.268 66.2494C108.314 66.3004 108.373 66.3393 108.438 66.3624C108.536 66.3896 108.641 66.3793 108.732 66.3337C108.822 66.2882 108.891 66.2108 108.925 66.1175C110.004 63.0554 112.606 60.5351 116.18 61.727C117.089 62.0332 117.785 62.7728 118.572 63.3004C118.796 63.4511 118.903 63.3993 118.918 63.1591Z" fill="#B1D9FA"/>
</svg>
