<svg width="112" height="115" viewBox="0 0 112 115" fill="none" xmlns="http://www.w3.org/2000/svg">
<path d="M112 65.5C112 95.5995 81.0995 113.5 51 113.5C20.9005 113.5 0 91.0995 0 61C0 30.9005 27.4005 10 57.5 10C87.5995 10 112 35.4005 112 65.5Z" fill="#70B77E"/>
<path d="M83.369 90.5188C68.677 105.765 44.3625 99.8221 29.1893 85.2008C14.0161 70.5794 14.4141 49.0799 29.1061 33.8334C43.7982 18.5869 67.8126 21.3103 82.9858 35.9317C98.1591 50.5531 98.061 75.2723 83.369 90.5188Z" fill="#EDDED4"/>
<mask id="mask0_1528_1380" style="mask-type:luminance" maskUnits="userSpaceOnUse" x="54" y="0" width="30" height="31">
<path d="M84 0H54V30.8333H84V0Z" fill="white"/>
</mask>
<g mask="url(#mask0_1528_1380)">
<mask id="mask1_1528_1380" style="mask-type:luminance" maskUnits="userSpaceOnUse" x="54" y="0" width="30" height="31">
<path d="M84 0H54V30.8333H84V0Z" fill="white"/>
</mask>
<g mask="url(#mask1_1528_1380)">
<path d="M69.9823 28.8386C69.7662 29.4037 69.5434 29.9619 69.3138 30.5066C69.1315 30.9491 68.9627 30.9491 68.8074 30.4929C66.3294 23.1403 61.6096 18.2998 54.6481 15.9647C53.7838 15.672 53.7838 15.3724 54.6413 15.0661C61.6906 12.5607 66.4374 7.61813 68.8817 0.245087C68.9897 -0.0816957 69.0978 -0.0816957 69.1991 0.245087C71.6501 7.66578 76.4104 12.5948 83.4732 15.032C84.1687 15.2703 84.1687 15.529 83.4867 15.8013C77.2342 18.2726 72.4739 22.2893 69.9823 28.8386Z" fill="#FAC549"/>
</g>
</g>
<mask id="mask2_1528_1380" style="mask-type:luminance" maskUnits="userSpaceOnUse" x="90" y="21" width="21" height="21">
<path d="M110.27 21H90V41.8333H110.27V21Z" fill="white"/>
</mask>
<g mask="url(#mask2_1528_1380)">
<mask id="mask3_1528_1380" style="mask-type:luminance" maskUnits="userSpaceOnUse" x="90" y="21" width="21" height="21">
<path d="M110.27 21H90V41.8333H110.27V21Z" fill="white"/>
</mask>
<g mask="url(#mask3_1528_1380)">
<path d="M100.799 40.4855C100.653 40.8673 100.502 41.2445 100.347 41.6125C100.224 41.9115 100.11 41.9115 100.005 41.6033C98.3303 36.6354 95.1413 33.3648 90.4376 31.787C89.8536 31.5892 89.8536 31.3868 90.433 31.1798C95.196 29.487 98.4033 26.1474 100.055 21.1656C100.128 20.9448 100.201 20.9448 100.269 21.1656C101.925 26.1796 105.142 29.51 109.914 31.1568C110.384 31.3178 110.384 31.4926 109.923 31.6766C105.698 33.3464 102.482 36.0604 100.799 40.4855Z" fill="#FAA949"/>
</g>
</g>
<path d="M44 39L56.0889 66.0222" stroke="black" stroke-width="5" stroke-linecap="round"/>
<path d="M76 56.0669L56.4135 65.8773" stroke="black" stroke-width="5" stroke-linecap="round"/>
</svg>
