<svg width="118" height="104" viewBox="0 0 118 104" fill="none" xmlns="http://www.w3.org/2000/svg">
<path d="M110.5 51.5C110.5 81.5995 76.5995 103.5 46.5 103.5C16.4005 103.5 0 81.5995 0 51.5C0 21.4005 27.4005 0.5 57.5 0.5C87.5995 0.5 110.5 21.4005 110.5 51.5Z" fill="#324C7E"/>
<mask id="mask0_1528_1382" style="mask-type:luminance" maskUnits="userSpaceOnUse" x="5" y="25" width="103" height="50">
<path d="M108 25H5V74.5192H108V25Z" fill="white"/>
</mask>
<g mask="url(#mask0_1528_1382)">
<mask id="mask1_1528_1382" style="mask-type:luminance" maskUnits="userSpaceOnUse" x="5" y="25" width="103" height="50">
<path d="M108 25H5V74.5192H108V25Z" fill="white"/>
</mask>
<g mask="url(#mask1_1528_1382)">
<path d="M21.2923 69.0579C0.876724 61.3687 -1.16819 40.8306 19.8006 32.3205C43.0321 22.6713 69.9177 22.1687 92.9146 33.1916C104.748 38.3345 114.202 51.8032 103.022 62.6251C98.1275 67.2487 89.9981 69.9625 81.2821 71.8052C73.7059 73.3632 65.8447 74.1338 59.2238 74.4353C46.485 74.8709 33.8468 74.05 21.6276 69.1919L21.3091 69.0579H21.2923ZM35.0201 54.9694C39.1267 67.2989 55.7542 74.2343 67.2862 67.4832C86.5452 56.8959 79.1199 28.1827 57.1454 28.6351C44.4233 28.7858 30.9303 41.6514 34.9195 54.6678L35.0201 54.9694Z" fill="#FDFBE4"/>
<path d="M69.0128 66.4948C57.3467 74.9378 39.7974 67.3324 35.0035 54.9526C30.9472 44.516 40.6187 33.9622 49.5023 30.2767C71.8288 21.0128 90.0989 51.2336 69.0128 66.4948Z" fill="#383838"/>
</g>
</g>
<mask id="mask2_1528_1382" style="mask-type:luminance" maskUnits="userSpaceOnUse" x="2" y="10" width="37" height="38">
<path d="M39 10.3018H2V47.9999H39V10.3018Z" fill="white"/>
</mask>
<g mask="url(#mask2_1528_1382)">
<mask id="mask3_1528_1382" style="mask-type:luminance" maskUnits="userSpaceOnUse" x="2" y="10" width="37" height="38">
<path d="M39 10.3018H2V47.9999H39V10.3018Z" fill="white"/>
</mask>
<g mask="url(#mask3_1528_1382)">
<path d="M14.9264 39.8158C14.9518 39.659 14.901 39.6301 14.777 39.7294C12.7619 41.3207 11.0265 43.69 8.09597 42.6014C5.24175 41.5384 4.56157 37.8243 6.78964 35.7848C7.60332 35.0387 8.45831 34.3055 9.35145 33.5915C9.63433 33.3642 9.59619 33.2553 9.23703 33.2585C7.51432 33.2713 5.25129 33.5371 3.72882 32.5093C1.30369 30.8732 1.47214 27.0662 3.97356 25.6126C5.4261 24.7705 7.70503 25.0299 9.36098 25.0491C9.65976 25.0523 9.69154 24.9626 9.45634 24.7737C8.52824 24.0277 7.61921 23.2529 6.73243 22.4556C4.44079 20.4033 5.44835 16.5099 8.25489 15.607C11.0869 14.6976 12.781 16.9485 14.688 18.4982C14.92 18.6871 15.0027 18.6327 14.9423 18.3413C14.6785 17.1086 14.4782 15.9624 14.3352 14.9026C14.1668 13.6571 14.4973 12.5684 15.3269 11.6335C16.22 10.6281 17.3611 10.1895 18.7532 10.324C21.137 10.5545 22.1096 12.197 22.5228 14.4159C22.6754 15.2387 22.8121 16.0648 22.9297 16.9005C22.9773 17.2495 23.0854 17.2687 23.2475 16.9581C23.6575 16.1833 24.0771 15.4277 24.503 14.6944C25.59 12.8214 27.0235 11.6911 29.1784 12.1522C31.8356 12.7157 33.304 15.623 32.0041 17.9987C31.4669 18.9817 30.8853 20.0287 30.2559 21.1397C30.1383 21.3478 30.1892 21.4086 30.4117 21.3222C31.4542 20.9188 32.4427 20.5538 33.374 20.2272C35.0108 19.654 36.4348 19.8974 37.6394 20.9572C39.9151 22.9551 39.2127 26.7364 36.4538 27.8155C35.4749 28.1965 34.4101 28.5807 33.2627 28.9617C32.9385 29.0674 32.9385 29.1794 33.2627 29.2979C34.3974 29.7045 35.4495 30.0887 36.4189 30.4537C39.4384 31.5936 39.8961 35.7335 37.3057 37.597C35.0808 39.1979 32.7605 37.8435 30.5324 37.0111C30.1892 36.8862 30.1129 36.979 30.3068 37.2896C30.9488 38.3334 31.5305 39.3612 32.0517 40.3762C33.4979 43.1905 31.0601 46.6709 27.8149 46.2003C25.2467 45.8256 24.3727 43.2354 23.2157 41.2983C23.0759 41.0645 22.9837 41.0838 22.9392 41.3495C22.7517 42.4477 22.561 43.5363 22.3671 44.6154C21.903 47.1928 19.2777 48.6753 16.8271 47.6923C14.9264 46.9303 14.0142 45.0028 14.3765 43.0145C14.5704 41.9579 14.7548 40.8916 14.9296 39.8158" fill="#B21C29"/>
</g>
</g>
<mask id="mask4_1528_1382" style="mask-type:luminance" maskUnits="userSpaceOnUse" x="81" y="50" width="37" height="38">
<path d="M118 50H81V87.6981H118V50Z" fill="white"/>
</mask>
<g mask="url(#mask4_1528_1382)">
<mask id="mask5_1528_1382" style="mask-type:luminance" maskUnits="userSpaceOnUse" x="81" y="50" width="37" height="38">
<path d="M118 50H81V87.6981H118V50Z" fill="white"/>
</mask>
<g mask="url(#mask5_1528_1382)">
<path d="M93.9264 79.5141C93.9518 79.3572 93.901 79.3284 93.777 79.4276C91.7619 81.0189 90.0265 83.3883 87.096 82.2997C84.2418 81.2367 83.5616 77.5226 85.7896 75.483C86.6033 74.737 87.4583 74.0038 88.3514 73.2898C88.6343 73.0624 88.5962 72.9536 88.237 72.9568C86.5143 72.9696 84.2513 73.2353 82.7288 72.2076C80.3037 70.5714 80.4721 66.7645 82.9736 65.3109C84.4261 64.4688 86.705 64.7281 88.361 64.7473C88.6598 64.7505 88.6915 64.6609 88.4563 64.472C87.5282 63.726 86.6192 62.9511 85.7324 62.1539C83.4408 60.1015 84.4483 56.2081 87.2549 55.3052C90.0869 54.3959 91.781 56.6468 93.688 58.1964C93.92 58.3853 94.0027 58.3309 93.9423 58.0395C93.6785 56.8068 93.4782 55.6606 93.3352 54.6008C93.1668 53.3553 93.4973 52.2667 94.3269 51.3318C95.22 50.3264 96.3611 49.8877 97.7532 50.0222C100.137 50.2527 101.11 51.8953 101.523 54.1141C101.675 54.937 101.812 55.7631 101.93 56.5987C101.977 56.9477 102.085 56.9669 102.248 56.6564C102.658 55.8815 103.077 55.1259 103.503 54.3927C104.59 52.5196 106.023 51.3894 108.178 51.8504C110.836 52.414 112.304 55.3212 111.004 57.6969C110.467 58.6799 109.885 59.7269 109.256 60.8379C109.138 61.046 109.189 61.1069 109.412 61.0204C110.454 60.617 111.443 60.252 112.374 59.9254C114.011 59.3523 115.435 59.5956 116.639 60.6554C118.915 62.6534 118.213 66.4347 115.454 67.5137C114.475 67.8947 113.41 68.2789 112.263 68.6599C111.939 68.7656 111.939 68.8777 112.263 68.9961C113.397 69.4028 114.449 69.787 115.419 70.152C118.438 71.2918 118.896 75.4318 116.306 77.2952C114.081 78.8961 111.761 77.5418 109.532 76.7093C109.189 76.5844 109.113 76.6773 109.307 76.9879C109.949 78.0316 110.53 79.0594 111.052 80.0744C112.498 82.8888 110.06 86.3692 106.815 85.8985C104.247 85.5239 103.373 82.9336 102.216 80.9965C102.076 80.7628 101.984 80.782 101.939 81.0478C101.752 82.146 101.561 83.2346 101.367 84.3136C100.903 86.8911 98.2777 88.3735 95.8271 87.3905C93.9264 86.6285 93.0142 84.701 93.3765 82.7127C93.5704 81.6561 93.7548 80.5899 93.9296 79.5141" fill="#B21C29"/>
</g>
</g>
</svg>
