<svg width="46" height="40" viewBox="0 0 46 40" fill="none" xmlns="http://www.w3.org/2000/svg">
<g id="cloudy">
<g id="Vector">
<path d="M26 1V4.8V1ZM26 35.2V39V35.2ZM10.8 20H7H10.8ZM15.1968 9.19683L12.5098 6.50981L15.1968 9.19683ZM36.8032 9.19683L39.4902 6.50981L36.8032 9.19683ZM15.1968 30.811L12.5098 33.498L15.1968 30.811ZM36.8032 30.811L39.4902 33.498L36.8032 30.811ZM45 20H41.2H45ZM35.5 20C35.5 25.2467 31.2467 29.5 26 29.5C20.7533 29.5 16.5 25.2467 16.5 20C16.5 14.7533 20.7533 10.5 26 10.5C31.2467 10.5 35.5 14.7533 35.5 20Z" fill="#FFCB65"/>
<path d="M26 1V4.8M26 35.2V39M10.8 20H7M15.1968 9.19683L12.5098 6.50981M36.8032 9.19683L39.4902 6.50981M15.1968 30.811L12.5098 33.498M36.8032 30.811L39.4902 33.498M45 20H41.2M35.5 20C35.5 25.2467 31.2467 29.5 26 29.5C20.7533 29.5 16.5 25.2467 16.5 20C16.5 14.7533 20.7533 10.5 26 10.5C31.2467 10.5 35.5 14.7533 35.5 20Z" stroke="#FFCB65" stroke-width="2" stroke-linecap="round" stroke-linejoin="round"/>
</g>
<path id="Vector_2" d="M7.75 39C4.02208 39 1 35.978 1 32.25C1 28.7346 3.68727 25.8469 7.11961 25.5291C7.82171 21.2582 11.5304 18 16 18C20.4697 18 24.1783 21.2582 24.8804 25.5291C28.3127 25.8469 31 28.7346 31 32.25C31 35.978 27.978 39 24.25 39C17.6653 39 13.5149 39 7.75 39Z" fill="#87BEEB" stroke="#87BEEB" stroke-width="2" stroke-linecap="round" stroke-linejoin="round"/>
</g>
</svg>
