<?xml version="1.0" encoding="UTF-8"?>
<svg xmlns="http://www.w3.org/2000/svg" xmlns:xlink="http://www.w3.org/1999/xlink" width="24px" height="24px" viewBox="0 0 24 24" version="1.1">
<g id="surface1">
<path style=" stroke:none;fill-rule:nonzero;fill:rgb(0%,0%,0%);fill-opacity:1;" d="M 11.269531 4.875 C 7.304688 5.105469 3.5625 7.226562 0.582031 10.941406 C -0.195312 11.910156 -0.195312 12.085938 0.585938 13.0625 C 3.5625 16.78125 7.316406 18.898438 11.300781 19.121094 C 15.804688 19.363281 20.066406 17.234375 23.417969 13.058594 C 24.195312 12.089844 24.195312 11.914062 23.414062 10.9375 C 21.238281 8.222656 18.652344 6.355469 15.792969 5.441406 C 14.902344 5.15625 13.828125 4.949219 12.984375 4.898438 C 12.066406 4.847656 11.867188 4.84375 11.269531 4.875 Z M 12.992188 7.058594 C 14.339844 7.3125 15.632812 8.230469 16.335938 9.425781 C 17.179688 10.871094 17.269531 12.613281 16.574219 14.089844 C 16.304688 14.667969 16.039062 15.042969 15.59375 15.5 C 13.085938 18.085938 8.816406 17.296875 7.363281 13.984375 C 6.839844 12.789062 6.828125 11.324219 7.339844 10.078125 C 7.832031 8.863281 8.90625 7.804688 10.128906 7.320312 C 11.058594 6.957031 11.984375 6.871094 12.992188 7.058594 Z M 12.992188 7.058594 "/>
<path style=" stroke:none;fill-rule:nonzero;fill:rgb(0%,0%,0%);fill-opacity:1;" d="M 11.507812 9.328125 C 10.742188 9.492188 10.070312 9.964844 9.683594 10.613281 C 9.398438 11.085938 9.304688 11.4375 9.308594 12 C 9.308594 12.542969 9.359375 12.765625 9.578125 13.21875 C 9.777344 13.636719 10.359375 14.21875 10.785156 14.421875 C 12.289062 15.148438 14.039062 14.410156 14.582031 12.820312 C 14.738281 12.367188 14.742188 11.652344 14.59375 11.179688 C 14.25 10.097656 13.257812 9.34375 12.117188 9.300781 C 11.886719 9.289062 11.609375 9.304688 11.507812 9.328125 Z M 11.507812 9.328125 "/>
</g>
</svg>
