<svg xmlns="http://www.w3.org/2000/svg" width="586" height="116" fill="none"><path fill="#BDC8D9" stroke="#BDC8D9" d="M82.105 70.694C53.229 77.893 29 62.624 29 62.624V102h556V5.864s-45.271 2.254-66.95 0c-21.678-2.254-15.302 10.284-37.619 24.682-22.316 14.397-53.559-21.874-76.514-9.137s-19.359 12.767-39.014 15.618C340 40.639 326.766 27.5 299.349 30.546S255.991-.821 235.587 5.864s-11.477 23.02-38.894 24.682c-27.418 1.66-36.271-1.315-56.748 2.492-37.423 6.956-28.965 30.457-57.84 37.656Z"/><ellipse cx="181.531" cy="30" fill="#2C5DAB" rx="3.936" ry="4"/><path stroke="#2C5DAB" d="M181.136 5v97"/><path fill="#303030" d="M49.71 114.08q-.85 0-1.39-.29a1.85 1.85 0 0 1-.78-.77 2.2 2.2 0 0 1-.25-1.03 2.2 2.2 0 0 1 .14-.82 1.7 1.7 0 0 1 .37-.58q.23-.24.5-.34a1.9 1.9 0 0 1-.53-.55q-.21-.34-.21-.89 0-.49.24-.92t.73-.7 1.23-.27q.65 0 1.11.24.47.24.71.64.25.39.25.86 0 .63-.25.96-.24.33-.62.53.31.14.56.38t.39.62q.15.38.15.93 0 .34-.13.7-.13.35-.41.65-.27.29-.72.47t-1.09.18m-.02-1.17a.813.813 0 0 0 .77-.49 1.112 1.112 0 0 0 0-.92.94.94 0 0 0-.27-.33 1.7 1.7 0 0 0-.4-.24q-.22-.1-.46-.19-.25.19-.4.46t-.15.7q0 .45.24.73t.67.28m.16-3.23q.27-.18.4-.41.14-.24.14-.51 0-.32-.21-.49a.68.68 0 0 0-.47-.18q-.27 0-.48.17t-.21.5q0 .25.11.42t.3.29q.19.11.42.21m3.112 4.34q-.61 0-.61-.22 0-.04.01-.08a.6.6 0 0 0 .03-.1l2.2-6.43q.08-.21.57-.21h.52q.5 0 .57.21l2.2 6.43q.03.1.03.18 0 .22-.5.22h-.44q-.22 0-.37-.04-.15-.05-.19-.17l-.4-1.22h-2.36l-.4 1.22a.27.27 0 0 1-.16.16.8.8 0 0 1-.3.05zm1.69-2.75h1.5l-.57-1.78a6 6 0 0 1-.09-.32l-.06-.32h-.04l-.06.32q-.03.16-.09.32zm7.902 1.06a.47.47 0 0 1-.4-.19l-1.23-2.2q-.06-.1-.12-.19l-.1-.2-.04.01v4.14q0 .32-.6.32h-.29q-.6 0-.6-.32v-6.4q0-.32.6-.32h.53q.22 0 .38.06.17.06.25.21l1.66 2.96q.02.04.05.08t.05.09l.04-.09a1 1 0 0 0 .05-.08l1.69-2.96q.081-.15.24-.21.171-.06.39-.06h.52q.6 0 .6.32v6.4q0 .32-.6.32h-.29q-.6 0-.6-.32v-4.14l-.04-.01q-.05.1-.11.2l-.11.19-1.23 2.2a.47.47 0 0 1-.4.19zM218.74 114q-.3 0-.3-.5v-.17q0-.5.3-.5h1.33v-5.07l.57.5-1.83.27q-.18.02-.27-.1a.76.76 0 0 1-.12-.31q-.03-.18-.03-.32 0-.19.06-.27a.3.3 0 0 1 .2-.11l2.49-.46q.12 0 .26.08.15.08.15.21v5.58h1.27q.3 0 .3.5v.17q0 .5-.3.5zm5.862.02q-.31 0-.46-.08a.28.28 0 0 1-.14-.25v-6.29q0-.4.37-.4h2.06q1.22 0 1.83.55.62.55.62 1.65 0 1.09-.62 1.65-.61.55-1.83.55h-.88v2.29q0 .16-.14.25-.14.08-.46.08zm.95-3.93h.88q.459 0 .66-.21.21-.21.21-.68t-.21-.68q-.201-.21-.66-.21h-.88zm4.753 3.93q-.31 0-.46-.08a.28.28 0 0 1-.14-.25v-6.38q0-.16.14-.24.15-.09.46-.09h.53q.219 0 .39.07.18.06.28.24l1.51 2.71q.08.13.15.28.08.14.12.25.05-.1.12-.26l.13-.26 1.54-2.71a.54.54 0 0 1 .26-.25.9.9 0 0 1 .38-.07h.52q.32 0 .46.09a.26.26 0 0 1 .14.24v6.39a.26.26 0 0 1-.14.24q-.14.08-.46.08h-.24q-.31 0-.46-.08a.28.28 0 0 1-.14-.25v-4.13l-.04-.01q-.05.1-.11.2-.06.09-.11.19l-1.18 2.13q-.08.15-.23.21-.141.05-.39.05h-.13q-.25 0-.4-.05a.44.44 0 0 1-.22-.21l-1.18-2.13a2 2 0 0 0-.11-.19 3 3 0 0 1-.11-.2l-.04.01v4.13q0 .16-.14.25-.14.08-.46.08zM391.69 114.08q-.42 0-.84-.14a2.3 2.3 0 0 1-.77-.44 2.3 2.3 0 0 1-.55-.81q-.2-.5-.2-1.22 0-.96.24-1.67.25-.71.64-1.2.39-.5.83-.82.45-.33.85-.5.41-.18.68-.25t.3-.07q.13 0 .22.11.1.11.16.27t.09.31q.03.14.03.22 0 .1-.03.15-.02.04-.1.06-.72.21-1.19.58-.46.36-.73.83-.26.47-.37 1.01-.11.53-.11 1.09 0 .37.06.63.07.25.19.4t.27.22q.16.07.34.07.27 0 .46-.12a.82.82 0 0 0 .29-.36q.1-.23.1-.55 0-.31-.11-.53a.73.73 0 0 0-.31-.34.94.94 0 0 0-.49-.12q-.33 0-.65.15t-.61.37l.18-1.13q.45-.36.82-.46t.69-.1q.28 0 .61.11.34.1.65.34a1.8 1.8 0 0 1 .51.65q.2.41.2 1.02t-.21 1.04q-.2.42-.54.69-.34.26-.76.39-.42.12-.84.12m3.912-.06q-.31 0-.46-.08a.28.28 0 0 1-.14-.25v-6.29q0-.4.37-.4h2.06q1.22 0 1.83.55.62.55.62 1.65 0 1.09-.62 1.65-.61.55-1.83.55h-.88v2.29q0 .16-.14.25-.14.08-.46.08zm.95-3.93h.88q.459 0 .66-.21.21-.21.21-.68t-.21-.68q-.201-.21-.66-.21h-.88zm4.753 3.93q-.31 0-.46-.08a.28.28 0 0 1-.14-.25v-6.38q0-.16.14-.24.15-.09.46-.09h.53q.219 0 .39.07.18.06.28.24l1.51 2.71q.08.13.15.28.08.14.12.25.05-.1.12-.26l.13-.26 1.54-2.71a.54.54 0 0 1 .26-.25.9.9 0 0 1 .38-.07h.52q.32 0 .46.09a.26.26 0 0 1 .14.24v6.39a.26.26 0 0 1-.14.24q-.14.08-.46.08h-.24q-.31 0-.46-.08a.28.28 0 0 1-.14-.25v-4.13l-.04-.01q-.05.1-.11.2-.06.09-.11.19l-1.18 2.13q-.08.15-.23.21-.141.05-.39.05h-.13q-.25 0-.4-.05a.44.44 0 0 1-.22-.21l-1.18-2.13a2 2 0 0 0-.11-.19 3 3 0 0 1-.11-.2l-.04.01v4.13q0 .16-.14.25-.14.08-.46.08zM555.74 114q-.3 0-.3-.5v-.17q0-.5.3-.5h1.33v-5.07l.57.5-1.83.27q-.18.02-.27-.1a.76.76 0 0 1-.12-.31q-.03-.18-.03-.32 0-.19.06-.27a.3.3 0 0 1 .2-.11l2.49-.46q.12 0 .26.08.15.08.15.21v5.58h1.27q.3 0 .3.5v.17q0 .5-.3.5zm5.352 0q-.3 0-.3-.5v-.17q0-.5.3-.5h1.33v-5.07l.57.5-1.83.27q-.18.02-.27-.1a.76.76 0 0 1-.12-.31q-.03-.18-.03-.32 0-.19.06-.27a.3.3 0 0 1 .2-.11l2.49-.46q.12 0 .26.08.15.08.15.21v5.58h1.27q.3 0 .3.5v.17q0 .5-.3.5zm5.861.02q-.31 0-.46-.08a.28.28 0 0 1-.14-.25v-6.29q0-.4.37-.4h2.06q1.22 0 1.83.55.62.55.62 1.65 0 1.09-.62 1.65-.61.55-1.83.55h-.88v2.29q0 .16-.14.25-.14.08-.46.08zm.95-3.93h.88q.46 0 .66-.21.21-.21.21-.68t-.21-.68q-.2-.21-.66-.21h-.88zm4.753 3.93q-.31 0-.46-.08a.28.28 0 0 1-.14-.25v-6.38a.26.26 0 0 1 .14-.24q.15-.09.46-.09h.53q.22 0 .39.07.18.06.28.24l1.51 2.71q.081.13.15.28.081.14.12.25.051-.1.12-.26l.13-.26 1.54-2.71a.55.55 0 0 1 .26-.25.9.9 0 0 1 .38-.07h.52q.32 0 .46.09.14.08.14.24v6.39a.26.26 0 0 1-.14.24q-.14.08-.46.08h-.24q-.31 0-.46-.08a.28.28 0 0 1-.14-.25v-4.13l-.04-.01q-.05.1-.11.2-.06.09-.11.19l-1.18 2.13a.44.44 0 0 1-.23.21 1.2 1.2 0 0 1-.39.05h-.13q-.25 0-.4-.05a.45.45 0 0 1-.22-.21l-1.18-2.13a2 2 0 0 0-.11-.19 3 3 0 0 1-.11-.2l-.04.01v4.13a.28.28 0 0 1-.14.25q-.14.08-.46.08zM3.036 11.096q-.336 0-.78-.048a6 6 0 0 1-.864-.156q-.408-.12-.684-.312t-.276-.468q0-.12.084-.336a2 2 0 0 1 .228-.396q.144-.18.276-.18.108 0 .324.12.228.12.576.252.36.12.84.12.36 0 .624-.132.264-.144.408-.396.156-.264.156-.636 0-.6-.324-.912t-1.08-.312h-.336q-.36 0-.36-.6v-.216q0-.6.36-.6h.228q.396 0 .672-.12.276-.132.42-.348a.97.97 0 0 0 .144-.528q0-.3-.108-.516a.77.77 0 0 0-.324-.336 1.1 1.1 0 0 0-.54-.12q-.456 0-.732.096a2 2 0 0 0-.42.18.53.53 0 0 1-.264.096q-.12 0-.264-.156a2.2 2.2 0 0 1-.24-.384.95.95 0 0 1-.096-.372q0-.228.192-.384.192-.168.516-.276.336-.108.756-.156.42-.06.864-.06 1.128 0 1.788.576.672.564.672 1.524 0 .624-.3 1.08t-.816.672v.048q.48.18.78.504.312.312.456.732a2.6 2.6 0 0 1 .156.912q0 .6-.204 1.068-.192.468-.552.804-.36.324-.864.504a3.4 3.4 0 0 1-1.092.168m6.194 0q-.672 0-1.212-.108-.528-.12-.84-.312-.3-.204-.3-.444 0-.108.096-.336.108-.228.264-.42t.288-.192q.072 0 .288.108.216.096.564.204.36.096.84.096.396 0 .684-.144t.444-.42a1.4 1.4 0 0 0 .156-.672q0-.636-.336-.984t-1.164-.348H7.694q-.264 0-.36-.108-.084-.12-.084-.372l.228-3.564q.024-.252.132-.36.108-.12.372-.12h3.54q.36 0 .36.6v.324q0 .48-.36.48H9.098l-.12 1.716h.312q.684 0 1.236.132t.948.444q.396.3.612.816t.216 1.296q0 .756-.276 1.284-.264.516-.72.828-.444.3-.996.444-.54.132-1.08.132m5.678-5.412a1.5 1.5 0 0 1-.792-.216 1.66 1.66 0 0 1-.576-.576 1.5 1.5 0 0 1-.216-.792q0-.444.216-.804t.576-.576a1.5 1.5 0 0 1 .792-.216q.444 0 .804.216t.576.576.216.804q0 .432-.216.792t-.576.576-.804.216m0-.744q.336 0 .576-.24a.84.84 0 0 0 .24-.6.84.84 0 0 0-.24-.6.77.77 0 0 0-.576-.252.77.77 0 0 0-.576.252.86.86 0 0 0-.228.6q0 .348.228.6.24.24.576.24m6.56 6.156q-2.015 0-2.988-1.044-.96-1.056-.96-3.276 0-4.272 4.009-4.272.384 0 .791.06.42.048.793.156.37.096.611.24.313.18.313.384 0 .168-.133.444a2.5 2.5 0 0 1-.311.48q-.18.204-.337.204-.071 0-.276-.096a3 3 0 0 0-.552-.192q-.36-.096-.936-.096-1.055 0-1.572.672-.504.672-.504 2.028 0 1.344.505 2.04.516.696 1.547.696.577 0 .973-.12.407-.12.66-.24.252-.12.335-.12.192 0 .349.216.167.216.264.468.096.252.096.36 0 .168-.12.312a1 1 0 0 1-.3.24 3.2 3.2 0 0 1-.697.264 7 7 0 0 1-.816.144q-.407.048-.744.048M.756 52q-.084 0-.168-.192a3 3 0 0 1-.12-.444 2.3 2.3 0 0 1-.048-.42q0-.132.036-.18l3.036-3.72q.132-.168.228-.348.108-.18.168-.384t.06-.42q0-.492-.324-.732-.312-.24-.792-.24-.384 0-.66.132-.276.12-.456.252t-.288.132a.5.5 0 0 1-.336-.144 1.2 1.2 0 0 1-.252-.336.8.8 0 0 1-.096-.348q0-.264.204-.468.216-.204.564-.348t.768-.216q.432-.072.852-.072 1.272 0 1.944.66t.672 1.692q0 .228-.036.444a4 4 0 0 1-.096.42q-.06.204-.156.396a6 6 0 0 1-.204.372q-.108.168-.24.324L2.76 50.596h2.772q.36 0 .36.6v.204q0 .6-.36.6zm8.882.096q-.888 0-1.524-.504-.636-.516-.984-1.476-.336-.972-.336-2.316 0-1.356.336-2.316.348-.96.984-1.464.636-.516 1.524-.516t1.524.516q.636.504.972 1.464.348.96.348 2.316 0 1.344-.348 2.316-.336.96-.972 1.476-.636.504-1.524.504m0-1.404q.336 0 .564-.324.24-.324.36-.972t.12-1.596q0-.96-.12-1.596-.12-.648-.36-.972-.228-.324-.564-.324t-.576.324q-.228.324-.348.972-.12.636-.12 1.596 0 .948.12 1.596t.348.972q.24.324.576.324m5.27-4.008a1.5 1.5 0 0 1-.792-.216 1.66 1.66 0 0 1-.576-.576 1.5 1.5 0 0 1-.216-.792q0-.444.216-.804t.576-.576a1.5 1.5 0 0 1 .792-.216q.444 0 .804.216t.576.576.216.804q0 .432-.216.792t-.576.576-.804.216m0-.744q.336 0 .576-.24a.84.84 0 0 0 .24-.6.84.84 0 0 0-.24-.6.77.77 0 0 0-.576-.252.77.77 0 0 0-.576.252.86.86 0 0 0-.228.6q0 .348.228.6.24.24.576.24m6.56 6.156q-2.015 0-2.988-1.044-.96-1.056-.96-3.276 0-4.272 4.009-4.272.384 0 .791.06.42.048.793.156.37.096.611.24.313.18.313.384 0 .168-.133.444a2.5 2.5 0 0 1-.311.48q-.18.204-.337.204-.071 0-.276-.096a3 3 0 0 0-.552-.192q-.36-.096-.936-.096-1.055 0-1.572.672-.504.672-.504 2.028 0 1.344.505 2.04.516.696 1.547.696.577 0 .973-.12.407-.12.66-.24.252-.12.335-.12.192 0 .349.216.167.216.264.468.096.252.096.36 0 .168-.12.312a1 1 0 0 1-.3.24 3.2 3.2 0 0 1-.697.264 7 7 0 0 1-.816.144q-.407.048-.744.048M6.716 94.096q-.888 0-1.524-.504-.636-.516-.984-1.476-.336-.972-.336-2.316 0-1.356.336-2.316.348-.96.984-1.464.636-.516 1.524-.516t1.524.516q.636.504.972 1.464.348.96.348 2.316 0 1.344-.348 2.316-.336.96-.972 1.476-.636.504-1.524.504m0-1.404q.336 0 .564-.324.24-.324.36-.972t.12-1.596q0-.96-.12-1.596-.12-.648-.36-.972-.228-.324-.564-.324t-.576.324q-.228.324-.348.972-.12.636-.12 1.596 0 .948.12 1.596t.348.972q.24.324.576.324m5.27-4.008a1.5 1.5 0 0 1-.792-.216 1.66 1.66 0 0 1-.576-.576 1.5 1.5 0 0 1-.216-.792q0-.444.216-.804t.576-.576a1.5 1.5 0 0 1 .792-.216q.444 0 .804.216t.576.576.216.804q0 .432-.216.792t-.576.576-.804.216m0-.744q.336 0 .576-.24a.84.84 0 0 0 .24-.6.84.84 0 0 0-.24-.6.77.77 0 0 0-.576-.252.77.77 0 0 0-.576.252.86.86 0 0 0-.228.6q0 .348.228.6.24.24.576.24m6.56 6.156q-2.015 0-2.987-1.044-.96-1.056-.96-3.276 0-4.272 4.008-4.272.384 0 .792.06.42.048.792.156.372.096.612.24.312.18.312.384 0 .168-.132.444a2.5 2.5 0 0 1-.312.48q-.18.204-.336.204-.072 0-.276-.096a3 3 0 0 0-.552-.192q-.36-.096-.936-.096-1.056 0-1.572.672-.504.672-.504 2.028 0 1.344.504 2.04.516.696 1.548.696.576 0 .972-.12.408-.12.66-.24t.336-.12q.192 0 .348.216.168.216.264.468t.096.36q0 .168-.12.312a1 1 0 0 1-.3.24 3.2 3.2 0 0 1-.696.264 7 7 0 0 1-.816.144q-.408.048-.744.048"/></svg>