<svg width="586" height="116" viewBox="0 0 586 116" fill="none" xmlns="http://www.w3.org/2000/svg">
<path d="M82.1047 70.6938C53.2294 77.8927 29 62.6248 29 62.6248V102H585V5.86367C585 5.86367 539.729 8.11764 518.05 5.86365C496.372 3.60966 502.748 16.1481 480.431 30.5457C458.115 44.9433 426.872 8.67152 403.917 21.4085C380.963 34.1455 384.558 34.1759 364.903 37.0266C340 40.6386 326.766 27.5004 299.349 30.5457C271.931 33.591 255.991 -0.821216 235.587 5.86365C215.183 12.5485 224.11 28.8844 196.693 30.5457C169.275 32.2069 160.422 29.2314 139.945 33.0376C102.522 39.9935 110.98 63.4948 82.1047 70.6938Z" fill="#BDC8D9" stroke="#BDC8D9"/>
<ellipse cx="181.531" cy="30" rx="3.93628" ry="4" fill="#2C5DAB"/>
<line x1="181.136" y1="5" x2="181.136" y2="102" stroke="#2C5DAB"/>
<path d="M49.71 114.08C49.1433 114.08 48.68 113.983 48.32 113.79C47.9667 113.597 47.7067 113.34 47.54 113.02C47.3733 112.7 47.29 112.357 47.29 111.99C47.29 111.677 47.3367 111.403 47.43 111.17C47.5233 110.937 47.6467 110.743 47.8 110.59C47.9533 110.43 48.12 110.317 48.3 110.25C48.0867 110.103 47.91 109.92 47.77 109.7C47.63 109.473 47.56 109.177 47.56 108.81C47.56 108.483 47.64 108.177 47.8 107.89C47.96 107.603 48.2033 107.37 48.53 107.19C48.8567 107.01 49.2667 106.92 49.76 106.92C50.1933 106.92 50.5633 107 50.87 107.16C51.1833 107.32 51.42 107.533 51.58 107.8C51.7467 108.06 51.83 108.347 51.83 108.66C51.83 109.08 51.7467 109.4 51.58 109.62C51.42 109.84 51.2133 110.017 50.96 110.15C51.1667 110.243 51.3533 110.37 51.52 110.53C51.6867 110.69 51.8167 110.897 51.91 111.15C52.01 111.403 52.06 111.713 52.06 112.08C52.06 112.307 52.0167 112.54 51.93 112.78C51.8433 113.013 51.7067 113.23 51.52 113.43C51.34 113.623 51.1 113.78 50.8 113.9C50.5 114.02 50.1367 114.08 49.71 114.08ZM49.69 112.91C49.8833 112.91 50.0433 112.863 50.17 112.77C50.3033 112.677 50.4 112.56 50.46 112.42C50.5267 112.28 50.56 112.14 50.56 112C50.56 111.8 50.5267 111.633 50.46 111.5C50.3933 111.367 50.3033 111.257 50.19 111.17C50.0767 111.077 49.9433 110.997 49.79 110.93C49.6433 110.863 49.49 110.8 49.33 110.74C49.1633 110.867 49.03 111.02 48.93 111.2C48.83 111.38 48.78 111.613 48.78 111.9C48.78 112.2 48.86 112.443 49.02 112.63C49.18 112.817 49.4033 112.91 49.69 112.91ZM49.85 109.68C50.03 109.56 50.1633 109.423 50.25 109.27C50.3433 109.11 50.39 108.94 50.39 108.76C50.39 108.547 50.32 108.383 50.18 108.27C50.0467 108.15 49.89 108.09 49.71 108.09C49.53 108.09 49.37 108.147 49.23 108.26C49.09 108.373 49.02 108.54 49.02 108.76C49.02 108.927 49.0567 109.067 49.13 109.18C49.2033 109.293 49.3033 109.39 49.43 109.47C49.5567 109.543 49.6967 109.613 49.85 109.68ZM52.9616 114.02C52.5549 114.02 52.3516 113.947 52.3516 113.8C52.3516 113.773 52.3549 113.747 52.3616 113.72C52.3749 113.687 52.3849 113.653 52.3916 113.62L54.5916 107.19C54.6449 107.05 54.8349 106.98 55.1616 106.98H55.6816C56.0149 106.98 56.2049 107.05 56.2516 107.19L58.4516 113.62C58.4716 113.687 58.4816 113.747 58.4816 113.8C58.4816 113.947 58.3149 114.02 57.9816 114.02H57.5416C57.3949 114.02 57.2716 114.007 57.1716 113.98C57.0716 113.947 57.0082 113.89 56.9816 113.81L56.5816 112.59H54.2216L53.8216 113.81C53.7949 113.883 53.7416 113.937 53.6616 113.97C53.5816 114.003 53.4816 114.02 53.3616 114.02H52.9616ZM54.6516 111.27H56.1516L55.5816 109.49C55.5482 109.383 55.5182 109.277 55.4916 109.17C55.4716 109.063 55.4516 108.957 55.4316 108.85H55.3916C55.3716 108.957 55.3516 109.063 55.3316 109.17C55.3116 109.277 55.2816 109.383 55.2416 109.49L54.6516 111.27ZM62.5544 112.33C62.381 112.33 62.2477 112.267 62.1544 112.14L60.9244 109.94C60.8844 109.873 60.8444 109.81 60.8044 109.75C60.771 109.683 60.7377 109.617 60.7044 109.55L60.6644 109.56C60.6644 109.64 60.6644 109.72 60.6644 109.8C60.6644 109.88 60.6644 109.963 60.6644 110.05V113.7C60.6644 113.913 60.4644 114.02 60.0644 114.02H59.7744C59.3744 114.02 59.1744 113.913 59.1744 113.7V107.3C59.1744 107.087 59.3744 106.98 59.7744 106.98H60.3044C60.451 106.98 60.5777 107 60.6844 107.04C60.7977 107.08 60.881 107.15 60.9344 107.25L62.5944 110.21C62.6077 110.237 62.6244 110.263 62.6444 110.29C62.6644 110.317 62.681 110.347 62.6944 110.38C62.7077 110.347 62.721 110.317 62.7344 110.29C62.7544 110.263 62.771 110.237 62.7844 110.21L64.4744 107.25C64.5277 107.15 64.6077 107.08 64.7144 107.04C64.8277 107 64.9577 106.98 65.1044 106.98H65.6244C66.0244 106.98 66.2244 107.087 66.2244 107.3V113.7C66.2244 113.913 66.0244 114.02 65.6244 114.02H65.3344C64.9344 114.02 64.7344 113.913 64.7344 113.7V110.05C64.7344 109.963 64.7344 109.88 64.7344 109.8C64.7344 109.72 64.7344 109.64 64.7344 109.56L64.6944 109.55C64.661 109.617 64.6244 109.683 64.5844 109.75C64.551 109.81 64.5144 109.873 64.4744 109.94L63.2444 112.14C63.151 112.267 63.0177 112.33 62.8444 112.33H62.5544Z" fill="#303030"/>
<path d="M218.74 114C218.54 114 218.44 113.833 218.44 113.5V113.33C218.44 112.997 218.54 112.83 218.74 112.83H220.07V107.76L220.64 108.26L218.81 108.53C218.69 108.543 218.6 108.51 218.54 108.43C218.48 108.343 218.44 108.24 218.42 108.12C218.4 108 218.39 107.893 218.39 107.8C218.39 107.673 218.41 107.583 218.45 107.53C218.497 107.47 218.563 107.433 218.65 107.42L221.14 106.96C221.22 106.96 221.307 106.987 221.4 107.04C221.5 107.093 221.55 107.163 221.55 107.25V112.83H222.82C223.02 112.83 223.12 112.997 223.12 113.33V113.5C223.12 113.833 223.02 114 222.82 114H218.74ZM224.602 114.02C224.395 114.02 224.242 113.993 224.142 113.94C224.048 113.88 224.002 113.797 224.002 113.69V107.4C224.002 107.133 224.125 107 224.372 107H226.432C227.245 107 227.855 107.183 228.262 107.55C228.675 107.917 228.882 108.467 228.882 109.2C228.882 109.927 228.675 110.477 228.262 110.85C227.855 111.217 227.245 111.4 226.432 111.4H225.552V113.69C225.552 113.797 225.505 113.88 225.412 113.94C225.318 113.993 225.165 114.02 224.952 114.02H224.602ZM225.552 110.09H226.432C226.738 110.09 226.958 110.02 227.092 109.88C227.232 109.74 227.302 109.513 227.302 109.2C227.302 108.887 227.232 108.66 227.092 108.52C226.958 108.38 226.738 108.31 226.432 108.31H225.552V110.09ZM230.305 114.02C230.098 114.02 229.945 113.993 229.845 113.94C229.751 113.88 229.705 113.797 229.705 113.69V107.31C229.705 107.203 229.751 107.123 229.845 107.07C229.945 107.01 230.098 106.98 230.305 106.98H230.835C230.981 106.98 231.111 107.003 231.225 107.05C231.345 107.09 231.438 107.17 231.505 107.29L233.015 110C233.068 110.087 233.118 110.18 233.165 110.28C233.218 110.373 233.258 110.457 233.285 110.53C233.318 110.463 233.358 110.377 233.405 110.27C233.458 110.163 233.501 110.077 233.535 110.01L235.075 107.3C235.148 107.173 235.235 107.09 235.335 107.05C235.441 107.003 235.568 106.98 235.715 106.98H236.235C236.448 106.98 236.601 107.01 236.695 107.07C236.788 107.123 236.835 107.203 236.835 107.31V113.7C236.835 113.807 236.788 113.887 236.695 113.94C236.601 113.993 236.448 114.02 236.235 114.02H235.995C235.788 114.02 235.635 113.993 235.535 113.94C235.441 113.88 235.395 113.797 235.395 113.69V110.05C235.395 109.963 235.395 109.88 235.395 109.8C235.395 109.72 235.395 109.64 235.395 109.56L235.355 109.55C235.321 109.617 235.285 109.683 235.245 109.75C235.205 109.81 235.168 109.873 235.135 109.94L233.955 112.07C233.901 112.17 233.825 112.24 233.725 112.28C233.631 112.313 233.501 112.33 233.335 112.33H233.205C233.038 112.33 232.905 112.313 232.805 112.28C232.711 112.24 232.638 112.17 232.585 112.07L231.405 109.94C231.371 109.873 231.335 109.81 231.295 109.75C231.255 109.683 231.218 109.617 231.185 109.55L231.145 109.56C231.145 109.64 231.145 109.72 231.145 109.8C231.145 109.88 231.145 109.963 231.145 110.05V113.69C231.145 113.797 231.098 113.88 231.005 113.94C230.911 113.993 230.758 114.02 230.545 114.02H230.305Z" fill="#303030"/>
<path d="M391.69 114.08C391.41 114.08 391.13 114.033 390.85 113.94C390.57 113.847 390.313 113.7 390.08 113.5C389.853 113.293 389.67 113.023 389.53 112.69C389.397 112.357 389.33 111.95 389.33 111.47C389.33 110.83 389.41 110.273 389.57 109.8C389.737 109.327 389.95 108.927 390.21 108.6C390.47 108.267 390.747 107.993 391.04 107.78C391.34 107.56 391.623 107.393 391.89 107.28C392.163 107.16 392.39 107.077 392.57 107.03C392.75 106.983 392.85 106.96 392.87 106.96C392.957 106.96 393.03 106.997 393.09 107.07C393.157 107.143 393.21 107.233 393.25 107.34C393.29 107.447 393.32 107.55 393.34 107.65C393.36 107.743 393.37 107.817 393.37 107.87C393.37 107.937 393.36 107.987 393.34 108.02C393.327 108.047 393.293 108.067 393.24 108.08C392.76 108.22 392.363 108.413 392.05 108.66C391.743 108.9 391.5 109.177 391.32 109.49C391.147 109.803 391.023 110.14 390.95 110.5C390.877 110.853 390.84 111.217 390.84 111.59C390.84 111.837 390.86 112.047 390.9 112.22C390.947 112.387 391.01 112.52 391.09 112.62C391.17 112.72 391.26 112.793 391.36 112.84C391.467 112.887 391.58 112.91 391.7 112.91C391.88 112.91 392.033 112.87 392.16 112.79C392.287 112.703 392.383 112.583 392.45 112.43C392.517 112.277 392.55 112.093 392.55 111.88C392.55 111.673 392.513 111.497 392.44 111.35C392.373 111.203 392.27 111.09 392.13 111.01C391.997 110.93 391.833 110.89 391.64 110.89C391.42 110.89 391.203 110.94 390.99 111.04C390.777 111.14 390.573 111.263 390.38 111.41L390.56 110.28C390.86 110.04 391.133 109.887 391.38 109.82C391.627 109.753 391.857 109.72 392.07 109.72C392.257 109.72 392.46 109.757 392.68 109.83C392.907 109.897 393.123 110.01 393.33 110.17C393.537 110.33 393.707 110.547 393.84 110.82C393.973 111.093 394.04 111.433 394.04 111.84C394.04 112.247 393.97 112.593 393.83 112.88C393.697 113.16 393.517 113.39 393.29 113.57C393.063 113.743 392.81 113.873 392.53 113.96C392.25 114.04 391.97 114.08 391.69 114.08ZM395.602 114.02C395.395 114.02 395.242 113.993 395.142 113.94C395.048 113.88 395.002 113.797 395.002 113.69V107.4C395.002 107.133 395.125 107 395.372 107H397.432C398.245 107 398.855 107.183 399.262 107.55C399.675 107.917 399.882 108.467 399.882 109.2C399.882 109.927 399.675 110.477 399.262 110.85C398.855 111.217 398.245 111.4 397.432 111.4H396.552V113.69C396.552 113.797 396.505 113.88 396.412 113.94C396.318 113.993 396.165 114.02 395.952 114.02H395.602ZM396.552 110.09H397.432C397.738 110.09 397.958 110.02 398.092 109.88C398.232 109.74 398.302 109.513 398.302 109.2C398.302 108.887 398.232 108.66 398.092 108.52C397.958 108.38 397.738 108.31 397.432 108.31H396.552V110.09ZM401.305 114.02C401.098 114.02 400.945 113.993 400.845 113.94C400.751 113.88 400.705 113.797 400.705 113.69V107.31C400.705 107.203 400.751 107.123 400.845 107.07C400.945 107.01 401.098 106.98 401.305 106.98H401.835C401.981 106.98 402.111 107.003 402.225 107.05C402.345 107.09 402.438 107.17 402.505 107.29L404.015 110C404.068 110.087 404.118 110.18 404.165 110.28C404.218 110.373 404.258 110.457 404.285 110.53C404.318 110.463 404.358 110.377 404.405 110.27C404.458 110.163 404.501 110.077 404.535 110.01L406.075 107.3C406.148 107.173 406.235 107.09 406.335 107.05C406.441 107.003 406.568 106.98 406.715 106.98H407.235C407.448 106.98 407.601 107.01 407.695 107.07C407.788 107.123 407.835 107.203 407.835 107.31V113.7C407.835 113.807 407.788 113.887 407.695 113.94C407.601 113.993 407.448 114.02 407.235 114.02H406.995C406.788 114.02 406.635 113.993 406.535 113.94C406.441 113.88 406.395 113.797 406.395 113.69V110.05C406.395 109.963 406.395 109.88 406.395 109.8C406.395 109.72 406.395 109.64 406.395 109.56L406.355 109.55C406.321 109.617 406.285 109.683 406.245 109.75C406.205 109.81 406.168 109.873 406.135 109.94L404.955 112.07C404.901 112.17 404.825 112.24 404.725 112.28C404.631 112.313 404.501 112.33 404.335 112.33H404.205C404.038 112.33 403.905 112.313 403.805 112.28C403.711 112.24 403.638 112.17 403.585 112.07L402.405 109.94C402.371 109.873 402.335 109.81 402.295 109.75C402.255 109.683 402.218 109.617 402.185 109.55L402.145 109.56C402.145 109.64 402.145 109.72 402.145 109.8C402.145 109.88 402.145 109.963 402.145 110.05V113.69C402.145 113.797 402.098 113.88 402.005 113.94C401.911 113.993 401.758 114.02 401.545 114.02H401.305Z" fill="#303030"/>
<path d="M555.74 114C555.54 114 555.44 113.833 555.44 113.5V113.33C555.44 112.997 555.54 112.83 555.74 112.83H557.07V107.76L557.64 108.26L555.81 108.53C555.69 108.543 555.6 108.51 555.54 108.43C555.48 108.343 555.44 108.24 555.42 108.12C555.4 108 555.39 107.893 555.39 107.8C555.39 107.673 555.41 107.583 555.45 107.53C555.497 107.47 555.563 107.433 555.65 107.42L558.14 106.96C558.22 106.96 558.307 106.987 558.4 107.04C558.5 107.093 558.55 107.163 558.55 107.25V112.83H559.82C560.02 112.83 560.12 112.997 560.12 113.33V113.5C560.12 113.833 560.02 114 559.82 114H555.74ZM561.092 114C560.892 114 560.792 113.833 560.792 113.5V113.33C560.792 112.997 560.892 112.83 561.092 112.83H562.422V107.76L562.992 108.26L561.162 108.53C561.042 108.543 560.952 108.51 560.892 108.43C560.832 108.343 560.792 108.24 560.772 108.12C560.752 108 560.742 107.893 560.742 107.8C560.742 107.673 560.762 107.583 560.802 107.53C560.848 107.47 560.915 107.433 561.002 107.42L563.492 106.96C563.572 106.96 563.658 106.987 563.752 107.04C563.852 107.093 563.902 107.163 563.902 107.25V112.83H565.172C565.372 112.83 565.472 112.997 565.472 113.33V113.5C565.472 113.833 565.372 114 565.172 114H561.092ZM566.953 114.02C566.746 114.02 566.593 113.993 566.493 113.94C566.4 113.88 566.353 113.797 566.353 113.69V107.4C566.353 107.133 566.476 107 566.723 107H568.783C569.596 107 570.206 107.183 570.613 107.55C571.026 107.917 571.233 108.467 571.233 109.2C571.233 109.927 571.026 110.477 570.613 110.85C570.206 111.217 569.596 111.4 568.783 111.4H567.903V113.69C567.903 113.797 567.856 113.88 567.763 113.94C567.67 113.993 567.516 114.02 567.303 114.02H566.953ZM567.903 110.09H568.783C569.09 110.09 569.31 110.02 569.443 109.88C569.583 109.74 569.653 109.513 569.653 109.2C569.653 108.887 569.583 108.66 569.443 108.52C569.31 108.38 569.09 108.31 568.783 108.31H567.903V110.09ZM572.656 114.02C572.45 114.02 572.296 113.993 572.196 113.94C572.103 113.88 572.056 113.797 572.056 113.69V107.31C572.056 107.203 572.103 107.123 572.196 107.07C572.296 107.01 572.45 106.98 572.656 106.98H573.186C573.333 106.98 573.463 107.003 573.576 107.05C573.696 107.09 573.79 107.17 573.856 107.29L575.366 110C575.42 110.087 575.47 110.18 575.516 110.28C575.57 110.373 575.61 110.457 575.636 110.53C575.67 110.463 575.71 110.377 575.756 110.27C575.81 110.163 575.853 110.077 575.886 110.01L577.426 107.3C577.5 107.173 577.586 107.09 577.686 107.05C577.793 107.003 577.92 106.98 578.066 106.98H578.586C578.8 106.98 578.953 107.01 579.046 107.07C579.14 107.123 579.186 107.203 579.186 107.31V113.7C579.186 113.807 579.14 113.887 579.046 113.94C578.953 113.993 578.8 114.02 578.586 114.02H578.346C578.14 114.02 577.986 113.993 577.886 113.94C577.793 113.88 577.746 113.797 577.746 113.69V110.05C577.746 109.963 577.746 109.88 577.746 109.8C577.746 109.72 577.746 109.64 577.746 109.56L577.706 109.55C577.673 109.617 577.636 109.683 577.596 109.75C577.556 109.81 577.52 109.873 577.486 109.94L576.306 112.07C576.253 112.17 576.176 112.24 576.076 112.28C575.983 112.313 575.853 112.33 575.686 112.33H575.556C575.39 112.33 575.256 112.313 575.156 112.28C575.063 112.24 574.99 112.17 574.936 112.07L573.756 109.94C573.723 109.873 573.686 109.81 573.646 109.75C573.606 109.683 573.57 109.617 573.536 109.55L573.496 109.56C573.496 109.64 573.496 109.72 573.496 109.8C573.496 109.88 573.496 109.963 573.496 110.05V113.69C573.496 113.797 573.45 113.88 573.356 113.94C573.263 113.993 573.11 114.02 572.896 114.02H572.656Z" fill="#303030"/>
<path d="M3.036 11.096C2.812 11.096 2.552 11.08 2.256 11.048C1.96 11.016 1.672 10.964 1.392 10.892C1.12 10.812 0.892 10.708 0.708 10.58C0.524 10.452 0.432 10.296 0.432 10.112C0.432 10.032 0.46 9.92 0.516 9.776C0.58 9.632 0.656 9.5 0.744 9.38C0.84 9.26 0.932 9.2 1.02 9.2C1.092 9.2 1.2 9.24 1.344 9.32C1.496 9.4 1.688 9.484 1.92 9.572C2.16 9.652 2.44 9.692 2.76 9.692C3 9.692 3.208 9.648 3.384 9.56C3.56 9.464 3.696 9.332 3.792 9.164C3.896 8.988 3.948 8.776 3.948 8.528C3.948 8.128 3.84 7.824 3.624 7.616C3.408 7.408 3.048 7.304 2.544 7.304H2.208C1.968 7.304 1.848 7.104 1.848 6.704V6.488C1.848 6.088 1.968 5.888 2.208 5.888H2.436C2.7 5.888 2.924 5.848 3.108 5.768C3.292 5.68 3.432 5.564 3.528 5.42C3.624 5.268 3.672 5.092 3.672 4.892C3.672 4.692 3.636 4.52 3.564 4.376C3.492 4.232 3.384 4.12 3.24 4.04C3.096 3.96 2.916 3.92 2.7 3.92C2.396 3.92 2.152 3.952 1.968 4.016C1.792 4.072 1.652 4.132 1.548 4.196C1.444 4.26 1.356 4.292 1.284 4.292C1.204 4.292 1.116 4.24 1.02 4.136C0.932 4.024 0.852 3.896 0.78 3.752C0.716 3.608 0.684 3.484 0.684 3.38C0.684 3.228 0.748 3.1 0.876 2.996C1.004 2.884 1.176 2.792 1.392 2.72C1.616 2.648 1.868 2.596 2.148 2.564C2.428 2.524 2.716 2.504 3.012 2.504C3.764 2.504 4.36 2.696 4.8 3.08C5.248 3.456 5.472 3.964 5.472 4.604C5.472 5.02 5.372 5.38 5.172 5.684C4.972 5.988 4.7 6.212 4.356 6.356V6.404C4.676 6.524 4.936 6.692 5.136 6.908C5.344 7.116 5.496 7.36 5.592 7.64C5.696 7.92 5.748 8.224 5.748 8.552C5.748 8.952 5.68 9.308 5.544 9.62C5.416 9.932 5.232 10.2 4.992 10.424C4.752 10.64 4.464 10.808 4.128 10.928C3.8 11.04 3.436 11.096 3.036 11.096ZM9.22988 11.096C8.78188 11.096 8.37788 11.06 8.01788 10.988C7.66588 10.908 7.38588 10.804 7.17788 10.676C6.97788 10.54 6.87788 10.392 6.87788 10.232C6.87788 10.16 6.90988 10.048 6.97388 9.896C7.04588 9.744 7.13388 9.604 7.23788 9.476C7.34188 9.348 7.43788 9.284 7.52588 9.284C7.57388 9.284 7.66988 9.32 7.81388 9.392C7.95788 9.456 8.14588 9.524 8.37788 9.596C8.61788 9.66 8.89788 9.692 9.21788 9.692C9.48188 9.692 9.70988 9.644 9.90188 9.548C10.0939 9.452 10.2419 9.312 10.3459 9.128C10.4499 8.936 10.5019 8.712 10.5019 8.456C10.5019 8.032 10.3899 7.704 10.1659 7.472C9.94188 7.24 9.55388 7.124 9.00188 7.124H7.69388C7.51788 7.124 7.39788 7.088 7.33388 7.016C7.27788 6.936 7.24988 6.812 7.24988 6.644L7.47788 3.08C7.49388 2.912 7.53788 2.792 7.60988 2.72C7.68188 2.64 7.80588 2.6 7.98188 2.6H11.5219C11.7619 2.6 11.8819 2.8 11.8819 3.2V3.524C11.8819 3.844 11.7619 4.004 11.5219 4.004H9.09788L8.97788 5.72H9.28988C9.74588 5.72 10.1579 5.764 10.5259 5.852C10.8939 5.94 11.2099 6.088 11.4739 6.296C11.7379 6.496 11.9419 6.768 12.0859 7.112C12.2299 7.456 12.3019 7.888 12.3019 8.408C12.3019 8.912 12.2099 9.34 12.0259 9.692C11.8499 10.036 11.6099 10.312 11.3059 10.52C11.0099 10.72 10.6779 10.868 10.3099 10.964C9.94988 11.052 9.58988 11.096 9.22988 11.096ZM14.9078 5.684C14.6198 5.684 14.3558 5.612 14.1158 5.468C13.8758 5.324 13.6838 5.132 13.5398 4.892C13.3958 4.652 13.3238 4.388 13.3238 4.1C13.3238 3.804 13.3958 3.536 13.5398 3.296C13.6838 3.056 13.8758 2.864 14.1158 2.72C14.3558 2.576 14.6198 2.504 14.9078 2.504C15.2038 2.504 15.4718 2.576 15.7118 2.72C15.9518 2.864 16.1438 3.056 16.2878 3.296C16.4318 3.536 16.5038 3.804 16.5038 4.1C16.5038 4.388 16.4318 4.652 16.2878 4.892C16.1438 5.132 15.9518 5.324 15.7118 5.468C15.4718 5.612 15.2038 5.684 14.9078 5.684ZM14.9078 4.94C15.1318 4.94 15.3238 4.86 15.4838 4.7C15.6438 4.532 15.7238 4.332 15.7238 4.1C15.7238 3.868 15.6438 3.668 15.4838 3.5C15.3238 3.332 15.1318 3.248 14.9078 3.248C14.6838 3.248 14.4918 3.332 14.3318 3.5C14.1798 3.668 14.1038 3.868 14.1038 4.1C14.1038 4.332 14.1798 4.532 14.3318 4.7C14.4918 4.86 14.6838 4.94 14.9078 4.94ZM21.4685 11.096C20.1245 11.096 19.1285 10.748 18.4805 10.052C17.8405 9.348 17.5205 8.256 17.5205 6.776C17.5205 3.928 18.8565 2.504 21.5285 2.504C21.7845 2.504 22.0485 2.524 22.3205 2.564C22.6005 2.596 22.8645 2.648 23.1125 2.72C23.3605 2.784 23.5645 2.864 23.7245 2.96C23.9325 3.08 24.0365 3.208 24.0365 3.344C24.0365 3.456 23.9925 3.604 23.9045 3.788C23.8165 3.964 23.7125 4.124 23.5925 4.268C23.4725 4.404 23.3605 4.472 23.2565 4.472C23.2085 4.472 23.1165 4.44 22.9805 4.376C22.8525 4.312 22.6685 4.248 22.4285 4.184C22.1885 4.12 21.8765 4.088 21.4925 4.088C20.7885 4.088 20.2645 4.312 19.9205 4.76C19.5845 5.208 19.4165 5.884 19.4165 6.788C19.4165 7.684 19.5845 8.364 19.9205 8.828C20.2645 9.292 20.7805 9.524 21.4685 9.524C21.8525 9.524 22.1765 9.484 22.4405 9.404C22.7125 9.324 22.9325 9.244 23.1005 9.164C23.2685 9.084 23.3805 9.044 23.4365 9.044C23.5645 9.044 23.6805 9.116 23.7845 9.26C23.8965 9.404 23.9845 9.56 24.0485 9.728C24.1125 9.896 24.1445 10.016 24.1445 10.088C24.1445 10.2 24.1045 10.304 24.0245 10.4C23.9525 10.488 23.8525 10.568 23.7245 10.64C23.5325 10.744 23.3005 10.832 23.0285 10.904C22.7645 10.968 22.4925 11.016 22.2125 11.048C21.9405 11.08 21.6925 11.096 21.4685 11.096Z" fill="#303030"/>
<path d="M0.756 52C0.7 52 0.644 51.936 0.588 51.808C0.54 51.68 0.5 51.532 0.468 51.364C0.436 51.196 0.42 51.056 0.42 50.944C0.42 50.856 0.432 50.796 0.456 50.764L3.492 47.044C3.58 46.932 3.656 46.816 3.72 46.696C3.792 46.576 3.848 46.448 3.888 46.312C3.928 46.176 3.948 46.036 3.948 45.892C3.948 45.564 3.84 45.32 3.624 45.16C3.416 45 3.152 44.92 2.832 44.92C2.576 44.92 2.356 44.964 2.172 45.052C1.988 45.132 1.836 45.216 1.716 45.304C1.596 45.392 1.5 45.436 1.428 45.436C1.308 45.436 1.196 45.388 1.092 45.292C0.988 45.196 0.904 45.084 0.84 44.956C0.776 44.828 0.744 44.712 0.744 44.608C0.744 44.432 0.812 44.276 0.948 44.14C1.092 44.004 1.28 43.888 1.512 43.792C1.744 43.696 2 43.624 2.28 43.576C2.568 43.528 2.852 43.504 3.132 43.504C3.98 43.504 4.628 43.724 5.076 44.164C5.524 44.604 5.748 45.168 5.748 45.856C5.748 46.008 5.736 46.156 5.712 46.3C5.688 46.444 5.656 46.584 5.616 46.72C5.576 46.856 5.524 46.988 5.46 47.116C5.396 47.244 5.328 47.368 5.256 47.488C5.184 47.6 5.104 47.708 5.016 47.812L2.76 50.596H5.532C5.772 50.596 5.892 50.796 5.892 51.196V51.4C5.892 51.8 5.772 52 5.532 52H0.756ZM9.63788 52.096C9.04588 52.096 8.53788 51.928 8.11388 51.592C7.68988 51.248 7.36188 50.756 7.12988 50.116C6.90588 49.468 6.79388 48.696 6.79388 47.8C6.79388 46.896 6.90588 46.124 7.12988 45.484C7.36188 44.844 7.68988 44.356 8.11388 44.02C8.53788 43.676 9.04588 43.504 9.63788 43.504C10.2299 43.504 10.7379 43.676 11.1619 44.02C11.5859 44.356 11.9099 44.844 12.1339 45.484C12.3659 46.124 12.4819 46.896 12.4819 47.8C12.4819 48.696 12.3659 49.468 12.1339 50.116C11.9099 50.756 11.5859 51.248 11.1619 51.592C10.7379 51.928 10.2299 52.096 9.63788 52.096ZM9.63788 50.692C9.86188 50.692 10.0499 50.584 10.2019 50.368C10.3619 50.152 10.4819 49.828 10.5619 49.396C10.6419 48.964 10.6819 48.432 10.6819 47.8C10.6819 47.16 10.6419 46.628 10.5619 46.204C10.4819 45.772 10.3619 45.448 10.2019 45.232C10.0499 45.016 9.86188 44.908 9.63788 44.908C9.41388 44.908 9.22188 45.016 9.06188 45.232C8.90988 45.448 8.79388 45.772 8.71388 46.204C8.63388 46.628 8.59388 47.16 8.59388 47.8C8.59388 48.432 8.63388 48.964 8.71388 49.396C8.79388 49.828 8.90988 50.152 9.06188 50.368C9.22188 50.584 9.41388 50.692 9.63788 50.692ZM14.9078 46.684C14.6198 46.684 14.3558 46.612 14.1158 46.468C13.8758 46.324 13.6838 46.132 13.5398 45.892C13.3958 45.652 13.3238 45.388 13.3238 45.1C13.3238 44.804 13.3958 44.536 13.5398 44.296C13.6838 44.056 13.8758 43.864 14.1158 43.72C14.3558 43.576 14.6198 43.504 14.9078 43.504C15.2038 43.504 15.4718 43.576 15.7118 43.72C15.9518 43.864 16.1438 44.056 16.2878 44.296C16.4318 44.536 16.5038 44.804 16.5038 45.1C16.5038 45.388 16.4318 45.652 16.2878 45.892C16.1438 46.132 15.9518 46.324 15.7118 46.468C15.4718 46.612 15.2038 46.684 14.9078 46.684ZM14.9078 45.94C15.1318 45.94 15.3238 45.86 15.4838 45.7C15.6438 45.532 15.7238 45.332 15.7238 45.1C15.7238 44.868 15.6438 44.668 15.4838 44.5C15.3238 44.332 15.1318 44.248 14.9078 44.248C14.6838 44.248 14.4918 44.332 14.3318 44.5C14.1798 44.668 14.1038 44.868 14.1038 45.1C14.1038 45.332 14.1798 45.532 14.3318 45.7C14.4918 45.86 14.6838 45.94 14.9078 45.94ZM21.4685 52.096C20.1245 52.096 19.1285 51.748 18.4805 51.052C17.8405 50.348 17.5205 49.256 17.5205 47.776C17.5205 44.928 18.8565 43.504 21.5285 43.504C21.7845 43.504 22.0485 43.524 22.3205 43.564C22.6005 43.596 22.8645 43.648 23.1125 43.72C23.3605 43.784 23.5645 43.864 23.7245 43.96C23.9325 44.08 24.0365 44.208 24.0365 44.344C24.0365 44.456 23.9925 44.604 23.9045 44.788C23.8165 44.964 23.7125 45.124 23.5925 45.268C23.4725 45.404 23.3605 45.472 23.2565 45.472C23.2085 45.472 23.1165 45.44 22.9805 45.376C22.8525 45.312 22.6685 45.248 22.4285 45.184C22.1885 45.12 21.8765 45.088 21.4925 45.088C20.7885 45.088 20.2645 45.312 19.9205 45.76C19.5845 46.208 19.4165 46.884 19.4165 47.788C19.4165 48.684 19.5845 49.364 19.9205 49.828C20.2645 50.292 20.7805 50.524 21.4685 50.524C21.8525 50.524 22.1765 50.484 22.4405 50.404C22.7125 50.324 22.9325 50.244 23.1005 50.164C23.2685 50.084 23.3805 50.044 23.4365 50.044C23.5645 50.044 23.6805 50.116 23.7845 50.26C23.8965 50.404 23.9845 50.56 24.0485 50.728C24.1125 50.896 24.1445 51.016 24.1445 51.088C24.1445 51.2 24.1045 51.304 24.0245 51.4C23.9525 51.488 23.8525 51.568 23.7245 51.64C23.5325 51.744 23.3005 51.832 23.0285 51.904C22.7645 51.968 22.4925 52.016 22.2125 52.048C21.9405 52.08 21.6925 52.096 21.4685 52.096Z" fill="#303030"/>
<path d="M6.716 94.096C6.124 94.096 5.616 93.928 5.192 93.592C4.768 93.248 4.44 92.756 4.208 92.116C3.984 91.468 3.872 90.696 3.872 89.8C3.872 88.896 3.984 88.124 4.208 87.484C4.44 86.844 4.768 86.356 5.192 86.02C5.616 85.676 6.124 85.504 6.716 85.504C7.308 85.504 7.816 85.676 8.24 86.02C8.664 86.356 8.988 86.844 9.212 87.484C9.444 88.124 9.56 88.896 9.56 89.8C9.56 90.696 9.444 91.468 9.212 92.116C8.988 92.756 8.664 93.248 8.24 93.592C7.816 93.928 7.308 94.096 6.716 94.096ZM6.716 92.692C6.94 92.692 7.128 92.584 7.28 92.368C7.44 92.152 7.56 91.828 7.64 91.396C7.72 90.964 7.76 90.432 7.76 89.8C7.76 89.16 7.72 88.628 7.64 88.204C7.56 87.772 7.44 87.448 7.28 87.232C7.128 87.016 6.94 86.908 6.716 86.908C6.492 86.908 6.3 87.016 6.14 87.232C5.988 87.448 5.872 87.772 5.792 88.204C5.712 88.628 5.672 89.16 5.672 89.8C5.672 90.432 5.712 90.964 5.792 91.396C5.872 91.828 5.988 92.152 6.14 92.368C6.3 92.584 6.492 92.692 6.716 92.692ZM11.9859 88.684C11.6979 88.684 11.4339 88.612 11.1939 88.468C10.9539 88.324 10.7619 88.132 10.6179 87.892C10.4739 87.652 10.4019 87.388 10.4019 87.1C10.4019 86.804 10.4739 86.536 10.6179 86.296C10.7619 86.056 10.9539 85.864 11.1939 85.72C11.4339 85.576 11.6979 85.504 11.9859 85.504C12.2819 85.504 12.5499 85.576 12.7899 85.72C13.0299 85.864 13.2219 86.056 13.3659 86.296C13.5099 86.536 13.5819 86.804 13.5819 87.1C13.5819 87.388 13.5099 87.652 13.3659 87.892C13.2219 88.132 13.0299 88.324 12.7899 88.468C12.5499 88.612 12.2819 88.684 11.9859 88.684ZM11.9859 87.94C12.2099 87.94 12.4019 87.86 12.5619 87.7C12.7219 87.532 12.8019 87.332 12.8019 87.1C12.8019 86.868 12.7219 86.668 12.5619 86.5C12.4019 86.332 12.2099 86.248 11.9859 86.248C11.7619 86.248 11.5699 86.332 11.4099 86.5C11.2579 86.668 11.1819 86.868 11.1819 87.1C11.1819 87.332 11.2579 87.532 11.4099 87.7C11.5699 87.86 11.7619 87.94 11.9859 87.94ZM18.5466 94.096C17.2026 94.096 16.2066 93.748 15.5586 93.052C14.9186 92.348 14.5986 91.256 14.5986 89.776C14.5986 86.928 15.9346 85.504 18.6066 85.504C18.8626 85.504 19.1266 85.524 19.3986 85.564C19.6786 85.596 19.9426 85.648 20.1906 85.72C20.4386 85.784 20.6426 85.864 20.8026 85.96C21.0106 86.08 21.1146 86.208 21.1146 86.344C21.1146 86.456 21.0706 86.604 20.9826 86.788C20.8946 86.964 20.7906 87.124 20.6706 87.268C20.5506 87.404 20.4386 87.472 20.3346 87.472C20.2866 87.472 20.1946 87.44 20.0586 87.376C19.9306 87.312 19.7466 87.248 19.5066 87.184C19.2666 87.12 18.9546 87.088 18.5706 87.088C17.8666 87.088 17.3426 87.312 16.9986 87.76C16.6626 88.208 16.4946 88.884 16.4946 89.788C16.4946 90.684 16.6626 91.364 16.9986 91.828C17.3426 92.292 17.8586 92.524 18.5466 92.524C18.9306 92.524 19.2546 92.484 19.5186 92.404C19.7906 92.324 20.0106 92.244 20.1786 92.164C20.3466 92.084 20.4586 92.044 20.5146 92.044C20.6426 92.044 20.7586 92.116 20.8626 92.26C20.9746 92.404 21.0626 92.56 21.1266 92.728C21.1906 92.896 21.2226 93.016 21.2226 93.088C21.2226 93.2 21.1826 93.304 21.1026 93.4C21.0306 93.488 20.9306 93.568 20.8026 93.64C20.6106 93.744 20.3786 93.832 20.1066 93.904C19.8426 93.968 19.5706 94.016 19.2906 94.048C19.0186 94.08 18.7706 94.096 18.5466 94.096Z" fill="#303030"/>
</svg>
