<svg width="485" height="266" viewBox="0 0 485 266" fill="none" xmlns="http://www.w3.org/2000/svg">
<path d="M88.4866 193.102C65.7903 205.496 46.7458 179.21 46.7458 179.21V247H483.766V81.4869C483.766 81.4869 448.183 85.3675 431.143 81.4869C414.103 77.6063 419.115 99.1931 401.574 123.981C384.033 148.768 359.476 86.3211 341.434 108.25C323.392 130.178 326.217 130.231 310.768 135.139C291.194 141.357 280.792 118.738 259.242 123.981C237.692 129.224 225.162 69.9779 209.125 81.4869C193.087 92.9959 200.104 121.121 178.554 123.981C157.003 126.841 150.045 121.718 133.949 128.271C104.535 140.246 111.183 180.708 88.4866 193.102Z" fill="#BDC8D9" stroke="#BDC8D9"/>
<ellipse cx="185.448" cy="122" rx="6.60484" ry="6" fill="#2C5DAB"/>
<line x1="185.948" y1="-1.67873e-08" x2="185.948" y2="246" stroke="#2C5DAB"/>
<path d="M3.21221 44.096C3.01221 44.096 2.77621 44.08 2.50421 44.048C2.24021 44.016 1.98021 43.964 1.72421 43.892C1.46821 43.812 1.25621 43.708 1.08821 43.58C0.928207 43.452 0.848207 43.296 0.848207 43.112C0.848207 43.032 0.876207 42.92 0.932207 42.776C0.996207 42.632 1.07221 42.5 1.16021 42.38C1.25621 42.26 1.34821 42.2 1.43621 42.2C1.50821 42.2 1.61621 42.24 1.76021 42.32C1.91221 42.4 2.10421 42.484 2.33621 42.572C2.57621 42.652 2.85621 42.692 3.17621 42.692C3.42421 42.692 3.64021 42.648 3.82421 42.56C4.00821 42.472 4.15221 42.344 4.25621 42.176C4.36021 42 4.41221 41.792 4.41221 41.552C4.41221 41.152 4.30021 40.844 4.07621 40.628C3.85221 40.412 3.48021 40.304 2.96021 40.304H2.62421C2.38421 40.304 2.26421 40.104 2.26421 39.704V39.488C2.26421 39.28 2.29221 39.128 2.34821 39.032C2.40421 38.936 2.49621 38.888 2.62421 38.888H2.85221C3.06021 38.888 3.24421 38.864 3.40421 38.816C3.57221 38.768 3.71221 38.7 3.82421 38.612C3.94421 38.524 4.03221 38.42 4.08821 38.3C4.15221 38.172 4.18421 38.032 4.18421 37.88C4.18421 37.688 4.14421 37.52 4.06421 37.376C3.98421 37.232 3.86421 37.12 3.70421 37.04C3.55221 36.96 3.35621 36.92 3.11621 36.92C2.81221 36.92 2.56821 36.952 2.38421 37.016C2.20821 37.072 2.06821 37.132 1.96421 37.196C1.86021 37.26 1.77221 37.292 1.70021 37.292C1.62021 37.292 1.53221 37.24 1.43621 37.136C1.34821 37.024 1.26821 36.892 1.19621 36.74C1.13221 36.588 1.10021 36.448 1.10021 36.32C1.10021 36.216 1.16421 36.116 1.29221 36.02C1.42021 35.924 1.59221 35.836 1.80821 35.756C2.03221 35.676 2.28421 35.616 2.56421 35.576C2.84421 35.528 3.13221 35.504 3.42821 35.504C4.18021 35.504 4.77621 35.696 5.21621 36.08C5.66421 36.456 5.88821 36.964 5.88821 37.604C5.88821 37.876 5.84021 38.128 5.74421 38.36C5.65621 38.592 5.52821 38.792 5.36021 38.96C5.20021 39.128 5.00421 39.26 4.77221 39.356V39.404C5.09221 39.524 5.35221 39.692 5.55221 39.908C5.76021 40.116 5.91221 40.36 6.00821 40.64C6.11221 40.92 6.16421 41.224 6.16421 41.552C6.16421 42.08 6.03621 42.536 5.78021 42.92C5.53221 43.296 5.18421 43.588 4.73621 43.796C4.29621 43.996 3.78821 44.096 3.21221 44.096ZM10.1501 44.096C9.55808 44.096 9.05008 43.928 8.62608 43.592C8.20208 43.248 7.87408 42.756 7.64208 42.116C7.41808 41.468 7.30608 40.696 7.30608 39.8C7.30608 38.896 7.41808 38.124 7.64208 37.484C7.87408 36.844 8.20208 36.356 8.62608 36.02C9.05008 35.676 9.55808 35.504 10.1501 35.504C10.7421 35.504 11.2501 35.676 11.6741 36.02C12.0981 36.356 12.4221 36.844 12.6461 37.484C12.8781 38.124 12.9941 38.896 12.9941 39.8C12.9941 40.696 12.8781 41.468 12.6461 42.116C12.4221 42.756 12.0981 43.248 11.6741 43.592C11.2501 43.928 10.7421 44.096 10.1501 44.096ZM10.1501 42.692C10.3741 42.692 10.5621 42.584 10.7141 42.368C10.8741 42.152 10.9941 41.828 11.0741 41.396C11.1541 40.964 11.1941 40.432 11.1941 39.8C11.1941 39.16 11.1541 38.628 11.0741 38.204C10.9941 37.772 10.8741 37.448 10.7141 37.232C10.5621 37.016 10.3741 36.908 10.1501 36.908C9.92608 36.908 9.73408 37.016 9.57408 37.232C9.42208 37.448 9.30608 37.772 9.22608 38.204C9.14608 38.628 9.10608 39.16 9.10608 39.8C9.10608 40.432 9.14608 40.964 9.22608 41.396C9.30608 41.828 9.42208 42.152 9.57408 42.368C9.73408 42.584 9.92608 42.692 10.1501 42.692ZM15.42 38.684C14.94 38.684 14.544 38.536 14.232 38.24C13.92 37.944 13.764 37.564 13.764 37.1C13.764 36.636 13.92 36.256 14.232 35.96C14.544 35.656 14.94 35.504 15.42 35.504C15.908 35.504 16.308 35.656 16.62 35.96C16.932 36.256 17.088 36.636 17.088 37.1C17.088 37.564 16.932 37.944 16.62 38.24C16.308 38.536 15.908 38.684 15.42 38.684ZM15.42 37.94C15.668 37.94 15.872 37.864 16.032 37.712C16.192 37.552 16.272 37.348 16.272 37.1C16.272 36.852 16.192 36.648 16.032 36.488C15.872 36.328 15.668 36.248 15.42 36.248C15.172 36.248 14.968 36.328 14.808 36.488C14.656 36.648 14.58 36.852 14.58 37.1C14.58 37.348 14.656 37.552 14.808 37.712C14.968 37.864 15.172 37.94 15.42 37.94ZM21.9807 44.096C20.6367 44.096 19.6407 43.748 18.9927 43.052C18.3527 42.348 18.0327 41.256 18.0327 39.776C18.0327 38.344 18.3687 37.276 19.0407 36.572C19.7127 35.86 20.7127 35.504 22.0407 35.504C22.2967 35.504 22.5607 35.524 22.8327 35.564C23.1127 35.596 23.3767 35.648 23.6247 35.72C23.8727 35.784 24.0767 35.864 24.2367 35.96C24.3327 36.016 24.4087 36.076 24.4647 36.14C24.5207 36.204 24.5487 36.272 24.5487 36.344C24.5487 36.424 24.5287 36.528 24.4887 36.656C24.4567 36.776 24.4127 36.896 24.3567 37.016C24.3007 37.136 24.2367 37.236 24.1647 37.316C24.0927 37.396 24.0207 37.436 23.9487 37.436C23.8527 37.436 23.7167 37.408 23.5407 37.352C23.3647 37.288 23.1487 37.228 22.8927 37.172C22.6447 37.116 22.3487 37.088 22.0047 37.088C21.5327 37.088 21.1407 37.188 20.8287 37.388C20.5247 37.588 20.2967 37.888 20.1447 38.288C20.0007 38.688 19.9287 39.188 19.9287 39.788C19.9287 40.388 20.0047 40.892 20.1567 41.3C20.3087 41.7 20.5367 42.004 20.8407 42.212C21.1447 42.42 21.5247 42.524 21.9807 42.524C22.2687 42.524 22.5287 42.5 22.7607 42.452C22.9927 42.404 23.1967 42.348 23.3727 42.284C23.5487 42.22 23.6967 42.164 23.8167 42.116C23.9367 42.068 24.0247 42.044 24.0807 42.044C24.1767 42.044 24.2607 42.088 24.3327 42.176C24.4047 42.264 24.4647 42.368 24.5127 42.488C24.5607 42.608 24.5967 42.728 24.6207 42.848C24.6447 42.96 24.6567 43.04 24.6567 43.088C24.6567 43.224 24.6247 43.324 24.5607 43.388C24.4967 43.452 24.3727 43.536 24.1887 43.64C23.9967 43.744 23.7687 43.832 23.5047 43.904C23.2487 43.968 22.9847 44.016 22.7127 44.048C22.4487 44.08 22.2047 44.096 21.9807 44.096Z" fill="#303030"/>
<path d="M3.21221 11.096C3.01221 11.096 2.77621 11.08 2.50421 11.048C2.24021 11.016 1.98021 10.964 1.72421 10.892C1.46821 10.812 1.25621 10.708 1.08821 10.58C0.928207 10.452 0.848207 10.296 0.848207 10.112C0.848207 10.032 0.876207 9.92 0.932207 9.776C0.996207 9.632 1.07221 9.5 1.16021 9.38C1.25621 9.26 1.34821 9.2 1.43621 9.2C1.50821 9.2 1.61621 9.24 1.76021 9.32C1.91221 9.4 2.10421 9.484 2.33621 9.572C2.57621 9.652 2.85621 9.692 3.17621 9.692C3.42421 9.692 3.64021 9.648 3.82421 9.56C4.00821 9.472 4.15221 9.344 4.25621 9.176C4.36021 9 4.41221 8.792 4.41221 8.552C4.41221 8.152 4.30021 7.844 4.07621 7.628C3.85221 7.412 3.48021 7.304 2.96021 7.304H2.62421C2.38421 7.304 2.26421 7.104 2.26421 6.704V6.488C2.26421 6.28 2.29221 6.128 2.34821 6.032C2.40421 5.936 2.49621 5.888 2.62421 5.888H2.85221C3.06021 5.888 3.24421 5.864 3.40421 5.816C3.57221 5.768 3.71221 5.7 3.82421 5.612C3.94421 5.524 4.03221 5.42 4.08821 5.3C4.15221 5.172 4.18421 5.032 4.18421 4.88C4.18421 4.688 4.14421 4.52 4.06421 4.376C3.98421 4.232 3.86421 4.12 3.70421 4.04C3.55221 3.96 3.35621 3.92 3.11621 3.92C2.81221 3.92 2.56821 3.952 2.38421 4.016C2.20821 4.072 2.06821 4.132 1.96421 4.196C1.86021 4.26 1.77221 4.292 1.70021 4.292C1.62021 4.292 1.53221 4.24 1.43621 4.136C1.34821 4.024 1.26821 3.892 1.19621 3.74C1.13221 3.588 1.10021 3.448 1.10021 3.32C1.10021 3.216 1.16421 3.116 1.29221 3.02C1.42021 2.924 1.59221 2.836 1.80821 2.756C2.03221 2.676 2.28421 2.616 2.56421 2.576C2.84421 2.528 3.13221 2.504 3.42821 2.504C4.18021 2.504 4.77621 2.696 5.21621 3.08C5.66421 3.456 5.88821 3.964 5.88821 4.604C5.88821 4.876 5.84021 5.128 5.74421 5.36C5.65621 5.592 5.52821 5.792 5.36021 5.96C5.20021 6.128 5.00421 6.26 4.77221 6.356V6.404C5.09221 6.524 5.35221 6.692 5.55221 6.908C5.76021 7.116 5.91221 7.36 6.00821 7.64C6.11221 7.92 6.16421 8.224 6.16421 8.552C6.16421 9.08 6.03621 9.536 5.78021 9.92C5.53221 10.296 5.18421 10.588 4.73621 10.796C4.29621 10.996 3.78821 11.096 3.21221 11.096ZM9.74208 11.096C9.29408 11.096 8.89008 11.06 8.53008 10.988C8.17808 10.908 7.89808 10.804 7.69008 10.676C7.49008 10.54 7.39008 10.392 7.39008 10.232C7.39008 10.176 7.41008 10.096 7.45008 9.992C7.49008 9.888 7.54208 9.784 7.60608 9.68C7.67808 9.568 7.75008 9.476 7.82208 9.404C7.89408 9.324 7.96608 9.284 8.03808 9.284C8.08608 9.284 8.18208 9.32 8.32608 9.392C8.47008 9.456 8.65808 9.524 8.89008 9.596C9.13008 9.66 9.41008 9.692 9.73008 9.692C10.1381 9.692 10.4621 9.584 10.7021 9.368C10.9501 9.152 11.0741 8.848 11.0741 8.456C11.0741 8.032 10.9581 7.704 10.7261 7.472C10.4941 7.24 10.0901 7.124 9.51408 7.124H8.20608C8.03008 7.124 7.91008 7.088 7.84608 7.016C7.78208 6.936 7.75408 6.812 7.76208 6.644L7.99008 3.08C8.00608 2.912 8.05008 2.792 8.12208 2.72C8.19408 2.64 8.31808 2.6 8.49408 2.6H12.0341C12.2741 2.6 12.3941 2.8 12.3941 3.2V3.524C12.3941 3.844 12.2741 4.004 12.0341 4.004H8.91408L9.65808 3.308L9.44208 6.416L8.79408 5.72H9.80208C10.2581 5.72 10.6701 5.764 11.0381 5.852C11.4061 5.94 11.7221 6.088 11.9861 6.296C12.2501 6.496 12.4541 6.768 12.5981 7.112C12.7421 7.456 12.8141 7.888 12.8141 8.408C12.8141 8.912 12.7221 9.34 12.5381 9.692C12.3621 10.036 12.1221 10.312 11.8181 10.52C11.5221 10.72 11.1901 10.868 10.8221 10.964C10.4621 11.052 10.1021 11.096 9.74208 11.096ZM15.42 5.684C14.94 5.684 14.544 5.536 14.232 5.24C13.92 4.944 13.764 4.564 13.764 4.1C13.764 3.636 13.92 3.256 14.232 2.96C14.544 2.656 14.94 2.504 15.42 2.504C15.908 2.504 16.308 2.656 16.62 2.96C16.932 3.256 17.088 3.636 17.088 4.1C17.088 4.564 16.932 4.944 16.62 5.24C16.308 5.536 15.908 5.684 15.42 5.684ZM15.42 4.94C15.668 4.94 15.872 4.864 16.032 4.712C16.192 4.552 16.272 4.348 16.272 4.1C16.272 3.852 16.192 3.648 16.032 3.488C15.872 3.328 15.668 3.248 15.42 3.248C15.172 3.248 14.968 3.328 14.808 3.488C14.656 3.648 14.58 3.852 14.58 4.1C14.58 4.348 14.656 4.552 14.808 4.712C14.968 4.864 15.172 4.94 15.42 4.94ZM21.9807 11.096C20.6367 11.096 19.6407 10.748 18.9927 10.052C18.3527 9.348 18.0327 8.256 18.0327 6.776C18.0327 5.344 18.3687 4.276 19.0407 3.572C19.7127 2.86 20.7127 2.504 22.0407 2.504C22.2967 2.504 22.5607 2.524 22.8327 2.564C23.1127 2.596 23.3767 2.648 23.6247 2.72C23.8727 2.784 24.0767 2.864 24.2367 2.96C24.3327 3.016 24.4087 3.076 24.4647 3.14C24.5207 3.204 24.5487 3.272 24.5487 3.344C24.5487 3.424 24.5287 3.528 24.4887 3.656C24.4567 3.776 24.4127 3.896 24.3567 4.016C24.3007 4.136 24.2367 4.236 24.1647 4.316C24.0927 4.396 24.0207 4.436 23.9487 4.436C23.8527 4.436 23.7167 4.408 23.5407 4.352C23.3647 4.288 23.1487 4.228 22.8927 4.172C22.6447 4.116 22.3487 4.088 22.0047 4.088C21.5327 4.088 21.1407 4.188 20.8287 4.388C20.5247 4.588 20.2967 4.888 20.1447 5.288C20.0007 5.688 19.9287 6.188 19.9287 6.788C19.9287 7.388 20.0047 7.892 20.1567 8.3C20.3087 8.7 20.5367 9.004 20.8407 9.212C21.1447 9.42 21.5247 9.524 21.9807 9.524C22.2687 9.524 22.5287 9.5 22.7607 9.452C22.9927 9.404 23.1967 9.348 23.3727 9.284C23.5487 9.22 23.6967 9.164 23.8167 9.116C23.9367 9.068 24.0247 9.044 24.0807 9.044C24.1767 9.044 24.2607 9.088 24.3327 9.176C24.4047 9.264 24.4647 9.368 24.5127 9.488C24.5607 9.608 24.5967 9.728 24.6207 9.848C24.6447 9.96 24.6567 10.04 24.6567 10.088C24.6567 10.224 24.6247 10.324 24.5607 10.388C24.4967 10.452 24.3727 10.536 24.1887 10.64C23.9967 10.744 23.7687 10.832 23.5047 10.904C23.2487 10.968 22.9847 11.016 22.7127 11.048C22.4487 11.08 22.2047 11.096 21.9807 11.096Z" fill="#303030"/>
<path d="M1.22021 77C1.16421 77 1.11221 76.936 1.06421 76.808C1.02421 76.68 0.992207 76.532 0.968207 76.364C0.944207 76.196 0.932207 76.056 0.932207 75.944C0.932207 75.904 0.936207 75.868 0.944207 75.836C0.952207 75.804 0.960207 75.78 0.968207 75.764L4.00421 72.044C4.09221 71.932 4.16821 71.816 4.23221 71.696C4.30421 71.576 4.36021 71.448 4.40021 71.312C4.44021 71.176 4.46021 71.036 4.46021 70.892C4.46021 70.564 4.36421 70.32 4.17221 70.16C3.98021 70 3.74421 69.92 3.46421 69.92C3.19221 69.92 2.95621 69.964 2.75621 70.052C2.55621 70.132 2.38821 70.216 2.25221 70.304C2.12421 70.392 2.02021 70.436 1.94021 70.436C1.82021 70.436 1.70821 70.384 1.60421 70.28C1.50021 70.168 1.41621 70.04 1.35221 69.896C1.28821 69.744 1.25621 69.608 1.25621 69.488C1.25621 69.384 1.32421 69.276 1.46021 69.164C1.60421 69.044 1.79221 68.936 2.02421 68.84C2.25621 68.736 2.51221 68.656 2.79221 68.6C3.08021 68.536 3.36421 68.504 3.64421 68.504C4.49221 68.504 5.14021 68.724 5.58821 69.164C6.03621 69.604 6.26021 70.168 6.26021 70.856C6.26021 71.112 6.22821 71.356 6.16421 71.588C6.10821 71.82 6.02421 72.04 5.91221 72.248C5.80021 72.448 5.67221 72.636 5.52821 72.812L3.26021 75.596H6.04421C6.28421 75.596 6.40421 75.796 6.40421 76.196V76.4C6.40421 76.8 6.28421 77 6.04421 77H1.22021ZM9.74208 77.096C9.29408 77.096 8.89008 77.06 8.53008 76.988C8.17808 76.908 7.89808 76.804 7.69008 76.676C7.49008 76.54 7.39008 76.392 7.39008 76.232C7.39008 76.176 7.41008 76.096 7.45008 75.992C7.49008 75.888 7.54208 75.784 7.60608 75.68C7.67808 75.568 7.75008 75.476 7.82208 75.404C7.89408 75.324 7.96608 75.284 8.03808 75.284C8.08608 75.284 8.18208 75.32 8.32608 75.392C8.47008 75.456 8.65808 75.524 8.89008 75.596C9.13008 75.66 9.41008 75.692 9.73008 75.692C10.1381 75.692 10.4621 75.584 10.7021 75.368C10.9501 75.152 11.0741 74.848 11.0741 74.456C11.0741 74.032 10.9581 73.704 10.7261 73.472C10.4941 73.24 10.0901 73.124 9.51408 73.124H8.20608C8.03008 73.124 7.91008 73.088 7.84608 73.016C7.78208 72.936 7.75408 72.812 7.76208 72.644L7.99008 69.08C8.00608 68.912 8.05008 68.792 8.12208 68.72C8.19408 68.64 8.31808 68.6 8.49408 68.6H12.0341C12.2741 68.6 12.3941 68.8 12.3941 69.2V69.524C12.3941 69.844 12.2741 70.004 12.0341 70.004H8.91408L9.65808 69.308L9.44208 72.416L8.79408 71.72H9.80208C10.2581 71.72 10.6701 71.764 11.0381 71.852C11.4061 71.94 11.7221 72.088 11.9861 72.296C12.2501 72.496 12.4541 72.768 12.5981 73.112C12.7421 73.456 12.8141 73.888 12.8141 74.408C12.8141 74.912 12.7221 75.34 12.5381 75.692C12.3621 76.036 12.1221 76.312 11.8181 76.52C11.5221 76.72 11.1901 76.868 10.8221 76.964C10.4621 77.052 10.1021 77.096 9.74208 77.096ZM15.42 71.684C14.94 71.684 14.544 71.536 14.232 71.24C13.92 70.944 13.764 70.564 13.764 70.1C13.764 69.636 13.92 69.256 14.232 68.96C14.544 68.656 14.94 68.504 15.42 68.504C15.908 68.504 16.308 68.656 16.62 68.96C16.932 69.256 17.088 69.636 17.088 70.1C17.088 70.564 16.932 70.944 16.62 71.24C16.308 71.536 15.908 71.684 15.42 71.684ZM15.42 70.94C15.668 70.94 15.872 70.864 16.032 70.712C16.192 70.552 16.272 70.348 16.272 70.1C16.272 69.852 16.192 69.648 16.032 69.488C15.872 69.328 15.668 69.248 15.42 69.248C15.172 69.248 14.968 69.328 14.808 69.488C14.656 69.648 14.58 69.852 14.58 70.1C14.58 70.348 14.656 70.552 14.808 70.712C14.968 70.864 15.172 70.94 15.42 70.94ZM21.9807 77.096C20.6367 77.096 19.6407 76.748 18.9927 76.052C18.3527 75.348 18.0327 74.256 18.0327 72.776C18.0327 71.344 18.3687 70.276 19.0407 69.572C19.7127 68.86 20.7127 68.504 22.0407 68.504C22.2967 68.504 22.5607 68.524 22.8327 68.564C23.1127 68.596 23.3767 68.648 23.6247 68.72C23.8727 68.784 24.0767 68.864 24.2367 68.96C24.3327 69.016 24.4087 69.076 24.4647 69.14C24.5207 69.204 24.5487 69.272 24.5487 69.344C24.5487 69.424 24.5287 69.528 24.4887 69.656C24.4567 69.776 24.4127 69.896 24.3567 70.016C24.3007 70.136 24.2367 70.236 24.1647 70.316C24.0927 70.396 24.0207 70.436 23.9487 70.436C23.8527 70.436 23.7167 70.408 23.5407 70.352C23.3647 70.288 23.1487 70.228 22.8927 70.172C22.6447 70.116 22.3487 70.088 22.0047 70.088C21.5327 70.088 21.1407 70.188 20.8287 70.388C20.5247 70.588 20.2967 70.888 20.1447 71.288C20.0007 71.688 19.9287 72.188 19.9287 72.788C19.9287 73.388 20.0047 73.892 20.1567 74.3C20.3087 74.7 20.5367 75.004 20.8407 75.212C21.1447 75.42 21.5247 75.524 21.9807 75.524C22.2687 75.524 22.5287 75.5 22.7607 75.452C22.9927 75.404 23.1967 75.348 23.3727 75.284C23.5487 75.22 23.6967 75.164 23.8167 75.116C23.9367 75.068 24.0247 75.044 24.0807 75.044C24.1767 75.044 24.2607 75.088 24.3327 75.176C24.4047 75.264 24.4647 75.368 24.5127 75.488C24.5607 75.608 24.5967 75.728 24.6207 75.848C24.6447 75.96 24.6567 76.04 24.6567 76.088C24.6567 76.224 24.6247 76.324 24.5607 76.388C24.4967 76.452 24.3727 76.536 24.1887 76.64C23.9967 76.744 23.7687 76.832 23.5047 76.904C23.2487 76.968 22.9847 77.016 22.7127 77.048C22.4487 77.08 22.2047 77.096 21.9807 77.096Z" fill="#303030"/>
<path d="M1.22021 109C1.16421 109 1.11221 108.936 1.06421 108.808C1.02421 108.68 0.992207 108.532 0.968207 108.364C0.944207 108.196 0.932207 108.056 0.932207 107.944C0.932207 107.904 0.936207 107.868 0.944207 107.836C0.952207 107.804 0.960207 107.78 0.968207 107.764L4.00421 104.044C4.09221 103.932 4.16821 103.816 4.23221 103.696C4.30421 103.576 4.36021 103.448 4.40021 103.312C4.44021 103.176 4.46021 103.036 4.46021 102.892C4.46021 102.564 4.36421 102.32 4.17221 102.16C3.98021 102 3.74421 101.92 3.46421 101.92C3.19221 101.92 2.95621 101.964 2.75621 102.052C2.55621 102.132 2.38821 102.216 2.25221 102.304C2.12421 102.392 2.02021 102.436 1.94021 102.436C1.82021 102.436 1.70821 102.384 1.60421 102.28C1.50021 102.168 1.41621 102.04 1.35221 101.896C1.28821 101.744 1.25621 101.608 1.25621 101.488C1.25621 101.384 1.32421 101.276 1.46021 101.164C1.60421 101.044 1.79221 100.936 2.02421 100.84C2.25621 100.736 2.51221 100.656 2.79221 100.6C3.08021 100.536 3.36421 100.504 3.64421 100.504C4.49221 100.504 5.14021 100.724 5.58821 101.164C6.03621 101.604 6.26021 102.168 6.26021 102.856C6.26021 103.112 6.22821 103.356 6.16421 103.588C6.10821 103.82 6.02421 104.04 5.91221 104.248C5.80021 104.448 5.67221 104.636 5.52821 104.812L3.26021 107.596H6.04421C6.28421 107.596 6.40421 107.796 6.40421 108.196V108.4C6.40421 108.8 6.28421 109 6.04421 109H1.22021ZM10.1501 109.096C9.55808 109.096 9.05008 108.928 8.62608 108.592C8.20208 108.248 7.87408 107.756 7.64208 107.116C7.41808 106.468 7.30608 105.696 7.30608 104.8C7.30608 103.896 7.41808 103.124 7.64208 102.484C7.87408 101.844 8.20208 101.356 8.62608 101.02C9.05008 100.676 9.55808 100.504 10.1501 100.504C10.7421 100.504 11.2501 100.676 11.6741 101.02C12.0981 101.356 12.4221 101.844 12.6461 102.484C12.8781 103.124 12.9941 103.896 12.9941 104.8C12.9941 105.696 12.8781 106.468 12.6461 107.116C12.4221 107.756 12.0981 108.248 11.6741 108.592C11.2501 108.928 10.7421 109.096 10.1501 109.096ZM10.1501 107.692C10.3741 107.692 10.5621 107.584 10.7141 107.368C10.8741 107.152 10.9941 106.828 11.0741 106.396C11.1541 105.964 11.1941 105.432 11.1941 104.8C11.1941 104.16 11.1541 103.628 11.0741 103.204C10.9941 102.772 10.8741 102.448 10.7141 102.232C10.5621 102.016 10.3741 101.908 10.1501 101.908C9.92608 101.908 9.73408 102.016 9.57408 102.232C9.42208 102.448 9.30608 102.772 9.22608 103.204C9.14608 103.628 9.10608 104.16 9.10608 104.8C9.10608 105.432 9.14608 105.964 9.22608 106.396C9.30608 106.828 9.42208 107.152 9.57408 107.368C9.73408 107.584 9.92608 107.692 10.1501 107.692ZM15.42 103.684C14.94 103.684 14.544 103.536 14.232 103.24C13.92 102.944 13.764 102.564 13.764 102.1C13.764 101.636 13.92 101.256 14.232 100.96C14.544 100.656 14.94 100.504 15.42 100.504C15.908 100.504 16.308 100.656 16.62 100.96C16.932 101.256 17.088 101.636 17.088 102.1C17.088 102.564 16.932 102.944 16.62 103.24C16.308 103.536 15.908 103.684 15.42 103.684ZM15.42 102.94C15.668 102.94 15.872 102.864 16.032 102.712C16.192 102.552 16.272 102.348 16.272 102.1C16.272 101.852 16.192 101.648 16.032 101.488C15.872 101.328 15.668 101.248 15.42 101.248C15.172 101.248 14.968 101.328 14.808 101.488C14.656 101.648 14.58 101.852 14.58 102.1C14.58 102.348 14.656 102.552 14.808 102.712C14.968 102.864 15.172 102.94 15.42 102.94ZM21.9807 109.096C20.6367 109.096 19.6407 108.748 18.9927 108.052C18.3527 107.348 18.0327 106.256 18.0327 104.776C18.0327 103.344 18.3687 102.276 19.0407 101.572C19.7127 100.86 20.7127 100.504 22.0407 100.504C22.2967 100.504 22.5607 100.524 22.8327 100.564C23.1127 100.596 23.3767 100.648 23.6247 100.72C23.8727 100.784 24.0767 100.864 24.2367 100.96C24.3327 101.016 24.4087 101.076 24.4647 101.14C24.5207 101.204 24.5487 101.272 24.5487 101.344C24.5487 101.424 24.5287 101.528 24.4887 101.656C24.4567 101.776 24.4127 101.896 24.3567 102.016C24.3007 102.136 24.2367 102.236 24.1647 102.316C24.0927 102.396 24.0207 102.436 23.9487 102.436C23.8527 102.436 23.7167 102.408 23.5407 102.352C23.3647 102.288 23.1487 102.228 22.8927 102.172C22.6447 102.116 22.3487 102.088 22.0047 102.088C21.5327 102.088 21.1407 102.188 20.8287 102.388C20.5247 102.588 20.2967 102.888 20.1447 103.288C20.0007 103.688 19.9287 104.188 19.9287 104.788C19.9287 105.388 20.0047 105.892 20.1567 106.3C20.3087 106.7 20.5367 107.004 20.8407 107.212C21.1447 107.42 21.5247 107.524 21.9807 107.524C22.2687 107.524 22.5287 107.5 22.7607 107.452C22.9927 107.404 23.1967 107.348 23.3727 107.284C23.5487 107.22 23.6967 107.164 23.8167 107.116C23.9367 107.068 24.0247 107.044 24.0807 107.044C24.1767 107.044 24.2607 107.088 24.3327 107.176C24.4047 107.264 24.4647 107.368 24.5127 107.488C24.5607 107.608 24.5967 107.728 24.6207 107.848C24.6447 107.96 24.6567 108.04 24.6567 108.088C24.6567 108.224 24.6247 108.324 24.5607 108.388C24.4967 108.452 24.3727 108.536 24.1887 108.64C23.9967 108.744 23.7687 108.832 23.5047 108.904C23.2487 108.968 22.9847 109.016 22.7127 109.048C22.4487 109.08 22.2047 109.096 21.9807 109.096Z" fill="#303030"/>
<path d="M2.50079 175C2.26079 175 2.14079 174.8 2.14079 174.4V174.196C2.14079 173.796 2.26079 173.596 2.50079 173.596H4.09679V167.512L4.78079 168.112L2.58479 168.436C2.44079 168.452 2.33279 168.412 2.26079 168.316C2.18879 168.212 2.14079 168.088 2.11679 167.944C2.09279 167.8 2.08079 167.672 2.08079 167.56C2.08079 167.408 2.10479 167.3 2.15279 167.236C2.20879 167.164 2.28879 167.12 2.39279 167.104L5.38079 166.552C5.47679 166.552 5.58079 166.584 5.69279 166.648C5.81279 166.712 5.87279 166.796 5.87279 166.9V173.596H7.39679C7.63679 173.596 7.75679 173.796 7.75679 174.196V174.4C7.75679 174.8 7.63679 175 7.39679 175H2.50079ZM11.2507 175.096C10.6587 175.096 10.1507 174.928 9.72667 174.592C9.30267 174.248 8.97467 173.756 8.74267 173.116C8.51867 172.468 8.40667 171.696 8.40667 170.8C8.40667 169.896 8.51867 169.124 8.74267 168.484C8.97467 167.844 9.30267 167.356 9.72667 167.02C10.1507 166.676 10.6587 166.504 11.2507 166.504C11.8427 166.504 12.3507 166.676 12.7747 167.02C13.1987 167.356 13.5227 167.844 13.7467 168.484C13.9787 169.124 14.0947 169.896 14.0947 170.8C14.0947 171.696 13.9787 172.468 13.7467 173.116C13.5227 173.756 13.1987 174.248 12.7747 174.592C12.3507 174.928 11.8427 175.096 11.2507 175.096ZM11.2507 173.692C11.4747 173.692 11.6627 173.584 11.8147 173.368C11.9747 173.152 12.0947 172.828 12.1747 172.396C12.2547 171.964 12.2947 171.432 12.2947 170.8C12.2947 170.16 12.2547 169.628 12.1747 169.204C12.0947 168.772 11.9747 168.448 11.8147 168.232C11.6627 168.016 11.4747 167.908 11.2507 167.908C11.0267 167.908 10.8347 168.016 10.6747 168.232C10.5227 168.448 10.4067 168.772 10.3267 169.204C10.2467 169.628 10.2067 170.16 10.2067 170.8C10.2067 171.432 10.2467 171.964 10.3267 172.396C10.4067 172.828 10.5227 173.152 10.6747 173.368C10.8347 173.584 11.0267 173.692 11.2507 173.692ZM16.5205 169.684C16.0405 169.684 15.6445 169.536 15.3325 169.24C15.0205 168.944 14.8645 168.564 14.8645 168.1C14.8645 167.636 15.0205 167.256 15.3325 166.96C15.6445 166.656 16.0405 166.504 16.5205 166.504C17.0085 166.504 17.4085 166.656 17.7205 166.96C18.0325 167.256 18.1885 167.636 18.1885 168.1C18.1885 168.564 18.0325 168.944 17.7205 169.24C17.4085 169.536 17.0085 169.684 16.5205 169.684ZM16.5205 168.94C16.7685 168.94 16.9725 168.864 17.1325 168.712C17.2925 168.552 17.3725 168.348 17.3725 168.1C17.3725 167.852 17.2925 167.648 17.1325 167.488C16.9725 167.328 16.7685 167.248 16.5205 167.248C16.2725 167.248 16.0685 167.328 15.9085 167.488C15.7565 167.648 15.6805 167.852 15.6805 168.1C15.6805 168.348 15.7565 168.552 15.9085 168.712C16.0685 168.864 16.2725 168.94 16.5205 168.94ZM23.0813 175.096C21.7373 175.096 20.7413 174.748 20.0933 174.052C19.4533 173.348 19.1333 172.256 19.1333 170.776C19.1333 169.344 19.4693 168.276 20.1413 167.572C20.8133 166.86 21.8133 166.504 23.1413 166.504C23.3973 166.504 23.6613 166.524 23.9333 166.564C24.2133 166.596 24.4773 166.648 24.7253 166.72C24.9733 166.784 25.1773 166.864 25.3373 166.96C25.4333 167.016 25.5093 167.076 25.5653 167.14C25.6213 167.204 25.6493 167.272 25.6493 167.344C25.6493 167.424 25.6293 167.528 25.5893 167.656C25.5573 167.776 25.5133 167.896 25.4573 168.016C25.4013 168.136 25.3373 168.236 25.2653 168.316C25.1933 168.396 25.1213 168.436 25.0493 168.436C24.9533 168.436 24.8173 168.408 24.6413 168.352C24.4653 168.288 24.2493 168.228 23.9933 168.172C23.7453 168.116 23.4493 168.088 23.1053 168.088C22.6333 168.088 22.2413 168.188 21.9293 168.388C21.6253 168.588 21.3973 168.888 21.2453 169.288C21.1013 169.688 21.0293 170.188 21.0293 170.788C21.0293 171.388 21.1053 171.892 21.2573 172.3C21.4093 172.7 21.6373 173.004 21.9413 173.212C22.2453 173.42 22.6253 173.524 23.0813 173.524C23.3693 173.524 23.6293 173.5 23.8613 173.452C24.0933 173.404 24.2973 173.348 24.4733 173.284C24.6493 173.22 24.7973 173.164 24.9173 173.116C25.0373 173.068 25.1253 173.044 25.1813 173.044C25.2773 173.044 25.3613 173.088 25.4333 173.176C25.5053 173.264 25.5653 173.368 25.6133 173.488C25.6613 173.608 25.6973 173.728 25.7213 173.848C25.7453 173.96 25.7573 174.04 25.7573 174.088C25.7573 174.224 25.7253 174.324 25.6613 174.388C25.5973 174.452 25.4733 174.536 25.2893 174.64C25.0973 174.744 24.8693 174.832 24.6053 174.904C24.3493 174.968 24.0853 175.016 23.8133 175.048C23.5493 175.08 23.3053 175.096 23.0813 175.096Z" fill="#303030"/>
<path d="M6.62245 208.096C6.17445 208.096 5.77045 208.06 5.41045 207.988C5.05845 207.908 4.77845 207.804 4.57045 207.676C4.37045 207.54 4.27045 207.392 4.27045 207.232C4.27045 207.176 4.29045 207.096 4.33045 206.992C4.37045 206.888 4.42245 206.784 4.48645 206.68C4.55845 206.568 4.63045 206.476 4.70245 206.404C4.77445 206.324 4.84645 206.284 4.91845 206.284C4.96645 206.284 5.06245 206.32 5.20645 206.392C5.35045 206.456 5.53845 206.524 5.77045 206.596C6.01045 206.66 6.29045 206.692 6.61045 206.692C7.01845 206.692 7.34245 206.584 7.58245 206.368C7.83045 206.152 7.95445 205.848 7.95445 205.456C7.95445 205.032 7.83845 204.704 7.60645 204.472C7.37445 204.24 6.97045 204.124 6.39445 204.124H5.08645C4.91045 204.124 4.79045 204.088 4.72645 204.016C4.66245 203.936 4.63445 203.812 4.64245 203.644L4.87045 200.08C4.88645 199.912 4.93045 199.792 5.00245 199.72C5.07445 199.64 5.19845 199.6 5.37445 199.6H8.91445C9.15445 199.6 9.27445 199.8 9.27445 200.2V200.524C9.27445 200.844 9.15445 201.004 8.91445 201.004H5.79445L6.53845 200.308L6.32245 203.416L5.67445 202.72H6.68245C7.13845 202.72 7.55045 202.764 7.91845 202.852C8.28645 202.94 8.60245 203.088 8.86645 203.296C9.13045 203.496 9.33445 203.768 9.47845 204.112C9.62245 204.456 9.69445 204.888 9.69445 205.408C9.69445 205.912 9.60245 206.34 9.41845 206.692C9.24245 207.036 9.00245 207.312 8.69845 207.52C8.40245 207.72 8.07045 207.868 7.70245 207.964C7.34245 208.052 6.98245 208.096 6.62245 208.096ZM12.3003 202.684C11.8203 202.684 11.4243 202.536 11.1123 202.24C10.8003 201.944 10.6443 201.564 10.6443 201.1C10.6443 200.636 10.8003 200.256 11.1123 199.96C11.4243 199.656 11.8203 199.504 12.3003 199.504C12.7883 199.504 13.1883 199.656 13.5003 199.96C13.8123 200.256 13.9683 200.636 13.9683 201.1C13.9683 201.564 13.8123 201.944 13.5003 202.24C13.1883 202.536 12.7883 202.684 12.3003 202.684ZM12.3003 201.94C12.5483 201.94 12.7523 201.864 12.9123 201.712C13.0723 201.552 13.1523 201.348 13.1523 201.1C13.1523 200.852 13.0723 200.648 12.9123 200.488C12.7523 200.328 12.5483 200.248 12.3003 200.248C12.0523 200.248 11.8483 200.328 11.6883 200.488C11.5363 200.648 11.4603 200.852 11.4603 201.1C11.4603 201.348 11.5363 201.552 11.6883 201.712C11.8483 201.864 12.0523 201.94 12.3003 201.94ZM18.861 208.096C17.517 208.096 16.521 207.748 15.873 207.052C15.233 206.348 14.913 205.256 14.913 203.776C14.913 202.344 15.249 201.276 15.921 200.572C16.593 199.86 17.593 199.504 18.921 199.504C19.177 199.504 19.441 199.524 19.713 199.564C19.993 199.596 20.257 199.648 20.505 199.72C20.753 199.784 20.957 199.864 21.117 199.96C21.213 200.016 21.289 200.076 21.345 200.14C21.401 200.204 21.429 200.272 21.429 200.344C21.429 200.424 21.409 200.528 21.369 200.656C21.337 200.776 21.293 200.896 21.237 201.016C21.181 201.136 21.117 201.236 21.045 201.316C20.973 201.396 20.901 201.436 20.829 201.436C20.733 201.436 20.597 201.408 20.421 201.352C20.245 201.288 20.029 201.228 19.773 201.172C19.525 201.116 19.229 201.088 18.885 201.088C18.413 201.088 18.021 201.188 17.709 201.388C17.405 201.588 17.177 201.888 17.025 202.288C16.881 202.688 16.809 203.188 16.809 203.788C16.809 204.388 16.885 204.892 17.037 205.3C17.189 205.7 17.417 206.004 17.721 206.212C18.025 206.42 18.405 206.524 18.861 206.524C19.149 206.524 19.409 206.5 19.641 206.452C19.873 206.404 20.077 206.348 20.253 206.284C20.429 206.22 20.577 206.164 20.697 206.116C20.817 206.068 20.905 206.044 20.961 206.044C21.057 206.044 21.141 206.088 21.213 206.176C21.285 206.264 21.345 206.368 21.393 206.488C21.441 206.608 21.477 206.728 21.501 206.848C21.525 206.96 21.537 207.04 21.537 207.088C21.537 207.224 21.505 207.324 21.441 207.388C21.377 207.452 21.253 207.536 21.069 207.64C20.877 207.744 20.649 207.832 20.385 207.904C20.129 207.968 19.865 208.016 19.593 208.048C19.329 208.08 19.085 208.096 18.861 208.096Z" fill="#303030"/>
<path d="M7.03045 241.096C6.43845 241.096 5.93045 240.928 5.50645 240.592C5.08245 240.248 4.75445 239.756 4.52245 239.116C4.29845 238.468 4.18645 237.696 4.18645 236.8C4.18645 235.896 4.29845 235.124 4.52245 234.484C4.75445 233.844 5.08245 233.356 5.50645 233.02C5.93045 232.676 6.43845 232.504 7.03045 232.504C7.62245 232.504 8.13045 232.676 8.55445 233.02C8.97845 233.356 9.30245 233.844 9.52645 234.484C9.75845 235.124 9.87445 235.896 9.87445 236.8C9.87445 237.696 9.75845 238.468 9.52645 239.116C9.30245 239.756 8.97845 240.248 8.55445 240.592C8.13045 240.928 7.62245 241.096 7.03045 241.096ZM7.03045 239.692C7.25445 239.692 7.44245 239.584 7.59445 239.368C7.75445 239.152 7.87445 238.828 7.95445 238.396C8.03445 237.964 8.07445 237.432 8.07445 236.8C8.07445 236.16 8.03445 235.628 7.95445 235.204C7.87445 234.772 7.75445 234.448 7.59445 234.232C7.44245 234.016 7.25445 233.908 7.03045 233.908C6.80645 233.908 6.61445 234.016 6.45445 234.232C6.30245 234.448 6.18645 234.772 6.10645 235.204C6.02645 235.628 5.98645 236.16 5.98645 236.8C5.98645 237.432 6.02645 237.964 6.10645 238.396C6.18645 238.828 6.30245 239.152 6.45445 239.368C6.61445 239.584 6.80645 239.692 7.03045 239.692ZM12.3003 235.684C11.8203 235.684 11.4243 235.536 11.1123 235.24C10.8003 234.944 10.6443 234.564 10.6443 234.1C10.6443 233.636 10.8003 233.256 11.1123 232.96C11.4243 232.656 11.8203 232.504 12.3003 232.504C12.7883 232.504 13.1883 232.656 13.5003 232.96C13.8123 233.256 13.9683 233.636 13.9683 234.1C13.9683 234.564 13.8123 234.944 13.5003 235.24C13.1883 235.536 12.7883 235.684 12.3003 235.684ZM12.3003 234.94C12.5483 234.94 12.7523 234.864 12.9123 234.712C13.0723 234.552 13.1523 234.348 13.1523 234.1C13.1523 233.852 13.0723 233.648 12.9123 233.488C12.7523 233.328 12.5483 233.248 12.3003 233.248C12.0523 233.248 11.8483 233.328 11.6883 233.488C11.5363 233.648 11.4603 233.852 11.4603 234.1C11.4603 234.348 11.5363 234.552 11.6883 234.712C11.8483 234.864 12.0523 234.94 12.3003 234.94ZM18.861 241.096C17.517 241.096 16.521 240.748 15.873 240.052C15.233 239.348 14.913 238.256 14.913 236.776C14.913 235.344 15.249 234.276 15.921 233.572C16.593 232.86 17.593 232.504 18.921 232.504C19.177 232.504 19.441 232.524 19.713 232.564C19.993 232.596 20.257 232.648 20.505 232.72C20.753 232.784 20.957 232.864 21.117 232.96C21.213 233.016 21.289 233.076 21.345 233.14C21.401 233.204 21.429 233.272 21.429 233.344C21.429 233.424 21.409 233.528 21.369 233.656C21.337 233.776 21.293 233.896 21.237 234.016C21.181 234.136 21.117 234.236 21.045 234.316C20.973 234.396 20.901 234.436 20.829 234.436C20.733 234.436 20.597 234.408 20.421 234.352C20.245 234.288 20.029 234.228 19.773 234.172C19.525 234.116 19.229 234.088 18.885 234.088C18.413 234.088 18.021 234.188 17.709 234.388C17.405 234.588 17.177 234.888 17.025 235.288C16.881 235.688 16.809 236.188 16.809 236.788C16.809 237.388 16.885 237.892 17.037 238.3C17.189 238.7 17.417 239.004 17.721 239.212C18.025 239.42 18.405 239.524 18.861 239.524C19.149 239.524 19.409 239.5 19.641 239.452C19.873 239.404 20.077 239.348 20.253 239.284C20.429 239.22 20.577 239.164 20.697 239.116C20.817 239.068 20.905 239.044 20.961 239.044C21.057 239.044 21.141 239.088 21.213 239.176C21.285 239.264 21.345 239.368 21.393 239.488C21.441 239.608 21.477 239.728 21.501 239.848C21.525 239.96 21.537 240.04 21.537 240.088C21.537 240.224 21.505 240.324 21.441 240.388C21.377 240.452 21.253 240.536 21.069 240.64C20.877 240.744 20.649 240.832 20.385 240.904C20.129 240.968 19.865 241.016 19.593 241.048C19.329 241.08 19.085 241.096 18.861 241.096Z" fill="#303030"/>
<path d="M49.4558 264.08C48.8892 264.08 48.4258 263.983 48.0658 263.79C47.7125 263.597 47.4525 263.34 47.2858 263.02C47.1192 262.7 47.0358 262.357 47.0358 261.99C47.0358 261.65 47.0892 261.36 47.1958 261.12C47.3025 260.873 47.4392 260.673 47.6058 260.52C47.7792 260.367 47.9658 260.263 48.1658 260.21L49.2058 260.65C49.0658 260.737 48.9458 260.837 48.8458 260.95C48.7458 261.063 48.6658 261.197 48.6058 261.35C48.5525 261.503 48.5258 261.687 48.5258 261.9C48.5258 262.1 48.5592 262.277 48.6258 262.43C48.6992 262.577 48.8025 262.693 48.9358 262.78C49.0758 262.867 49.2425 262.91 49.4358 262.91C49.6292 262.91 49.7892 262.863 49.9158 262.77C50.0492 262.677 50.1458 262.56 50.2058 262.42C50.2725 262.28 50.3058 262.14 50.3058 262C50.3058 261.76 50.2492 261.563 50.1358 261.41C50.0292 261.25 49.8858 261.12 49.7058 261.02C49.5325 260.92 49.3392 260.83 49.1258 260.75C48.9125 260.67 48.6992 260.583 48.4858 260.49C48.2725 260.397 48.0758 260.283 47.8958 260.15C47.7225 260.01 47.5792 259.833 47.4658 259.62C47.3592 259.407 47.3058 259.137 47.3058 258.81C47.3058 258.483 47.3858 258.177 47.5458 257.89C47.7058 257.603 47.9492 257.37 48.2758 257.19C48.6025 257.01 49.0125 256.92 49.5058 256.92C49.9392 256.92 50.3092 257 50.6158 257.16C50.9292 257.32 51.1658 257.533 51.3258 257.8C51.4925 258.06 51.5758 258.347 51.5758 258.66C51.5758 258.96 51.5292 259.21 51.4358 259.41C51.3492 259.603 51.2292 259.763 51.0758 259.89C50.9292 260.017 50.7625 260.127 50.5758 260.22L49.4258 259.78C49.5858 259.693 49.7158 259.6 49.8158 259.5C49.9225 259.393 50.0025 259.277 50.0558 259.15C50.1092 259.023 50.1358 258.893 50.1358 258.76C50.1358 258.547 50.0658 258.383 49.9258 258.27C49.7925 258.15 49.6358 258.09 49.4558 258.09C49.2758 258.09 49.1158 258.147 48.9758 258.26C48.8358 258.373 48.7658 258.54 48.7658 258.76C48.7658 258.973 48.8192 259.143 48.9258 259.27C49.0392 259.397 49.1858 259.503 49.3658 259.59C49.5458 259.677 49.7425 259.757 49.9558 259.83C50.1758 259.903 50.3925 259.99 50.6058 260.09C50.8258 260.19 51.0258 260.323 51.2058 260.49C51.3858 260.65 51.5292 260.857 51.6358 261.11C51.7492 261.363 51.8059 261.687 51.8059 262.08C51.8059 262.307 51.7625 262.54 51.6758 262.78C51.5892 263.013 51.4525 263.23 51.2658 263.43C51.0858 263.623 50.8458 263.78 50.5458 263.9C50.2458 264.02 49.8825 264.08 49.4558 264.08ZM52.7074 264.02C52.5007 264.02 52.3474 264 52.2474 263.96C52.1474 263.92 52.0974 263.867 52.0974 263.8C52.0974 263.773 52.1007 263.747 52.1074 263.72C52.1207 263.687 52.1307 263.653 52.1374 263.62L54.3374 257.19C54.3641 257.117 54.4241 257.063 54.5174 257.03C54.6107 256.997 54.7407 256.98 54.9074 256.98H55.4274C55.6007 256.98 55.7307 256.997 55.8174 257.03C55.9107 257.063 55.9707 257.117 55.9974 257.19L58.1974 263.62C58.2107 263.653 58.2174 263.687 58.2174 263.72C58.2241 263.747 58.2274 263.773 58.2274 263.8C58.2274 263.867 58.1874 263.92 58.1074 263.96C58.0274 264 57.9007 264.02 57.7274 264.02H57.2874C57.1407 264.02 57.0174 264.007 56.9174 263.98C56.8174 263.947 56.7541 263.89 56.7274 263.81L55.3274 259.49C55.2941 259.383 55.2641 259.277 55.2374 259.17C55.2174 259.063 55.1974 258.957 55.1774 258.85H55.1374C55.1174 258.957 55.0941 259.063 55.0674 259.17C55.0474 259.277 55.0207 259.383 54.9874 259.49L53.5674 263.81C53.5407 263.883 53.4874 263.937 53.4074 263.97C53.3274 264.003 53.2274 264.02 53.1074 264.02H52.7074ZM53.4574 262.53V261.32H56.8774V262.53H53.4574ZM59.4802 264.02C59.2736 264.02 59.1202 263.993 59.0202 263.94C58.9269 263.88 58.8802 263.797 58.8802 263.69V257.31C58.8802 257.203 58.9269 257.123 59.0202 257.07C59.1202 257.01 59.2736 256.98 59.4802 256.98H60.0102C60.1569 256.98 60.2869 257.003 60.4002 257.05C60.5202 257.09 60.6136 257.17 60.6802 257.29L62.1902 260C62.2436 260.087 62.2936 260.18 62.3402 260.28C62.3936 260.373 62.4336 260.457 62.4602 260.53C62.4936 260.463 62.5336 260.377 62.5802 260.27C62.6336 260.163 62.6769 260.077 62.7102 260.01L64.2502 257.3C64.3236 257.173 64.4102 257.09 64.5102 257.05C64.6169 257.003 64.7436 256.98 64.8902 256.98H65.4102C65.6236 256.98 65.7769 257.01 65.8702 257.07C65.9636 257.123 66.0102 257.203 66.0102 257.31V263.7C66.0102 263.807 65.9636 263.887 65.8702 263.94C65.7769 263.993 65.6236 264.02 65.4102 264.02H65.1702C64.9636 264.02 64.8102 263.993 64.7102 263.94C64.6169 263.88 64.5702 263.797 64.5702 263.69V260.05C64.5702 259.963 64.5702 259.88 64.5702 259.8C64.5702 259.72 64.5702 259.64 64.5702 259.56L64.5302 259.55C64.4969 259.617 64.4602 259.683 64.4202 259.75C64.3802 259.81 64.3436 259.873 64.3102 259.94L63.1302 262.07C63.0769 262.17 63.0002 262.24 62.9002 262.28C62.8069 262.313 62.6769 262.33 62.5102 262.33H62.3802C62.2136 262.33 62.0802 262.313 61.9802 262.28C61.8869 262.24 61.8136 262.17 61.7602 262.07L60.5802 259.94C60.5469 259.873 60.5102 259.81 60.4702 259.75C60.4302 259.683 60.3936 259.617 60.3602 259.55L60.3202 259.56C60.3202 259.64 60.3202 259.72 60.3202 259.8C60.3202 259.88 60.3202 259.963 60.3202 260.05V263.69C60.3202 263.797 60.2736 263.88 60.1802 263.94C60.0869 263.993 59.9336 264.02 59.7202 264.02H59.4802Z" fill="#303030"/>
<path d="M93.4383 256.96C93.7183 256.96 93.9983 257.007 94.2783 257.1C94.5583 257.193 94.8117 257.343 95.0383 257.55C95.2717 257.75 95.455 258.017 95.5883 258.35C95.7283 258.683 95.7983 259.09 95.7983 259.57C95.7983 260.21 95.715 260.767 95.5483 261.24C95.3883 261.713 95.1783 262.117 94.9183 262.45C94.6583 262.777 94.3783 263.05 94.0783 263.27C93.785 263.483 93.5017 263.65 93.2283 263.77C92.9617 263.883 92.7383 263.963 92.5583 264.01C92.385 264.057 92.285 264.08 92.2583 264.08C92.1717 264.08 92.095 264.043 92.0283 263.97C91.9683 263.897 91.9183 263.807 91.8783 263.7C91.8383 263.593 91.8083 263.49 91.7883 263.39C91.7683 263.29 91.7583 263.217 91.7583 263.17C91.7583 263.097 91.765 263.047 91.7783 263.02C91.7983 262.993 91.835 262.973 91.8883 262.96C92.3683 262.82 92.7617 262.63 93.0683 262.39C93.3817 262.143 93.625 261.863 93.7983 261.55C93.9783 261.237 94.105 260.9 94.1783 260.54C94.2517 260.18 94.2883 259.817 94.2883 259.45C94.2883 259.203 94.265 258.997 94.2183 258.83C94.1783 258.657 94.1183 258.52 94.0383 258.42C93.9583 258.32 93.865 258.247 93.7583 258.2C93.6583 258.153 93.5483 258.13 93.4283 258.13C93.255 258.13 93.1017 258.173 92.9683 258.26C92.8417 258.34 92.745 258.457 92.6783 258.61C92.6117 258.763 92.5783 258.947 92.5783 259.16C92.5783 259.36 92.6117 259.537 92.6783 259.69C92.7517 259.837 92.855 259.95 92.9883 260.03C93.1283 260.11 93.295 260.15 93.4883 260.15C93.7083 260.15 93.925 260.1 94.1383 260C94.3517 259.9 94.555 259.777 94.7483 259.63L94.5683 260.76C94.2683 261 93.995 261.153 93.7483 261.22C93.5017 261.287 93.2717 261.32 93.0583 261.32C92.8717 261.32 92.665 261.287 92.4383 261.22C92.2183 261.147 92.005 261.03 91.7983 260.87C91.5917 260.71 91.4217 260.493 91.2883 260.22C91.155 259.947 91.0883 259.607 91.0883 259.2C91.0883 258.793 91.155 258.45 91.2883 258.17C91.4283 257.883 91.6117 257.653 91.8383 257.48C92.065 257.3 92.3183 257.17 92.5983 257.09C92.8783 257.003 93.1583 256.96 93.4383 256.96ZM96.7399 264.02C96.5332 264.02 96.3799 264 96.2799 263.96C96.1799 263.92 96.1299 263.867 96.1299 263.8C96.1299 263.773 96.1332 263.747 96.1399 263.72C96.1532 263.687 96.1632 263.653 96.1699 263.62L98.3699 257.19C98.3965 257.117 98.4565 257.063 98.5499 257.03C98.6432 256.997 98.7732 256.98 98.9399 256.98H99.4599C99.6332 256.98 99.7632 256.997 99.8499 257.03C99.9432 257.063 100.003 257.117 100.03 257.19L102.23 263.62C102.243 263.653 102.25 263.687 102.25 263.72C102.257 263.747 102.26 263.773 102.26 263.8C102.26 263.867 102.22 263.92 102.14 263.96C102.06 264 101.933 264.02 101.76 264.02H101.32C101.173 264.02 101.05 264.007 100.95 263.98C100.85 263.947 100.787 263.89 100.76 263.81L99.3599 259.49C99.3265 259.383 99.2965 259.277 99.2699 259.17C99.2499 259.063 99.2299 258.957 99.2099 258.85H99.1699C99.1499 258.957 99.1265 259.063 99.0999 259.17C99.0799 259.277 99.0532 259.383 99.0199 259.49L97.5999 263.81C97.5732 263.883 97.5199 263.937 97.4399 263.97C97.3599 264.003 97.2599 264.02 97.1399 264.02H96.7399ZM97.4899 262.53V261.32H100.91V262.53H97.4899ZM103.513 264.02C103.306 264.02 103.153 263.993 103.053 263.94C102.959 263.88 102.913 263.797 102.913 263.69V257.31C102.913 257.203 102.959 257.123 103.053 257.07C103.153 257.01 103.306 256.98 103.513 256.98H104.043C104.189 256.98 104.319 257.003 104.433 257.05C104.553 257.09 104.646 257.17 104.713 257.29L106.223 260C106.276 260.087 106.326 260.18 106.373 260.28C106.426 260.373 106.466 260.457 106.493 260.53C106.526 260.463 106.566 260.377 106.613 260.27C106.666 260.163 106.709 260.077 106.743 260.01L108.283 257.3C108.356 257.173 108.443 257.09 108.543 257.05C108.649 257.003 108.776 256.98 108.923 256.98H109.443C109.656 256.98 109.809 257.01 109.903 257.07C109.996 257.123 110.043 257.203 110.043 257.31V263.7C110.043 263.807 109.996 263.887 109.903 263.94C109.809 263.993 109.656 264.02 109.443 264.02H109.203C108.996 264.02 108.843 263.993 108.743 263.94C108.649 263.88 108.603 263.797 108.603 263.69V260.05C108.603 259.963 108.603 259.88 108.603 259.8C108.603 259.72 108.603 259.64 108.603 259.56L108.563 259.55C108.529 259.617 108.493 259.683 108.453 259.75C108.413 259.81 108.376 259.873 108.343 259.94L107.163 262.07C107.109 262.17 107.033 262.24 106.933 262.28C106.839 262.313 106.709 262.33 106.543 262.33H106.413C106.246 262.33 106.113 262.313 106.013 262.28C105.919 262.24 105.846 262.17 105.793 262.07L104.613 259.94C104.579 259.873 104.543 259.81 104.503 259.75C104.463 259.683 104.426 259.617 104.393 259.55L104.353 259.56C104.353 259.64 104.353 259.72 104.353 259.8C104.353 259.88 104.353 259.963 104.353 260.05V263.69C104.353 263.797 104.306 263.88 104.213 263.94C104.119 263.993 103.966 264.02 103.753 264.02H103.513Z" fill="#303030"/>
<path d="M135.551 264C135.351 264 135.251 263.833 135.251 263.5V263.33C135.251 262.997 135.351 262.83 135.551 262.83H136.881V257.76L137.451 258.26L135.621 258.53C135.501 258.543 135.411 258.51 135.351 258.43C135.291 258.343 135.251 258.24 135.231 258.12C135.211 258 135.201 257.893 135.201 257.8C135.201 257.673 135.221 257.583 135.261 257.53C135.307 257.47 135.374 257.433 135.461 257.42L137.951 256.96C138.031 256.96 138.117 256.987 138.211 257.04C138.311 257.093 138.361 257.163 138.361 257.25V262.83H139.631C139.831 262.83 139.931 262.997 139.931 263.33V263.5C139.931 263.833 139.831 264 139.631 264H135.551ZM142.842 264.08C142.349 264.08 141.925 263.94 141.572 263.66C141.219 263.373 140.945 262.963 140.752 262.43C140.565 261.89 140.472 261.247 140.472 260.5C140.472 259.747 140.565 259.103 140.752 258.57C140.945 258.037 141.219 257.63 141.572 257.35C141.925 257.063 142.349 256.92 142.842 256.92C143.335 256.92 143.759 257.063 144.112 257.35C144.465 257.63 144.735 258.037 144.922 258.57C145.115 259.103 145.212 259.747 145.212 260.5C145.212 261.247 145.115 261.89 144.922 262.43C144.735 262.963 144.465 263.373 144.112 263.66C143.759 263.94 143.335 264.08 142.842 264.08ZM142.842 262.91C143.029 262.91 143.185 262.82 143.312 262.64C143.445 262.46 143.545 262.19 143.612 261.83C143.679 261.47 143.712 261.027 143.712 260.5C143.712 259.967 143.679 259.523 143.612 259.17C143.545 258.81 143.445 258.54 143.312 258.36C143.185 258.18 143.029 258.09 142.842 258.09C142.655 258.09 142.495 258.18 142.362 258.36C142.235 258.54 142.139 258.81 142.072 259.17C142.005 259.523 141.972 259.967 141.972 260.5C141.972 261.027 142.005 261.47 142.072 261.83C142.139 262.19 142.235 262.46 142.362 262.64C142.495 262.82 142.655 262.91 142.842 262.91ZM146.124 264.02C145.917 264.02 145.764 264 145.664 263.96C145.564 263.92 145.514 263.867 145.514 263.8C145.514 263.773 145.517 263.747 145.524 263.72C145.537 263.687 145.547 263.653 145.554 263.62L147.754 257.19C147.78 257.117 147.84 257.063 147.934 257.03C148.027 256.997 148.157 256.98 148.324 256.98H148.844C149.017 256.98 149.147 256.997 149.234 257.03C149.327 257.063 149.387 257.117 149.414 257.19L151.614 263.62C151.627 263.653 151.634 263.687 151.634 263.72C151.64 263.747 151.644 263.773 151.644 263.8C151.644 263.867 151.604 263.92 151.524 263.96C151.444 264 151.317 264.02 151.144 264.02H150.704C150.557 264.02 150.434 264.007 150.334 263.98C150.234 263.947 150.17 263.89 150.144 263.81L148.744 259.49C148.71 259.383 148.68 259.277 148.654 259.17C148.634 259.063 148.614 258.957 148.594 258.85H148.554C148.534 258.957 148.51 259.063 148.484 259.17C148.464 259.277 148.437 259.383 148.404 259.49L146.984 263.81C146.957 263.883 146.904 263.937 146.824 263.97C146.744 264.003 146.644 264.02 146.524 264.02H146.124ZM146.874 262.53V261.32H150.294V262.53H146.874ZM152.896 264.02C152.69 264.02 152.536 263.993 152.436 263.94C152.343 263.88 152.296 263.797 152.296 263.69V257.31C152.296 257.203 152.343 257.123 152.436 257.07C152.536 257.01 152.69 256.98 152.896 256.98H153.426C153.573 256.98 153.703 257.003 153.816 257.05C153.936 257.09 154.03 257.17 154.096 257.29L155.606 260C155.66 260.087 155.71 260.18 155.756 260.28C155.81 260.373 155.85 260.457 155.876 260.53C155.91 260.463 155.95 260.377 155.996 260.27C156.05 260.163 156.093 260.077 156.126 260.01L157.666 257.3C157.74 257.173 157.826 257.09 157.926 257.05C158.033 257.003 158.16 256.98 158.306 256.98H158.826C159.04 256.98 159.193 257.01 159.286 257.07C159.38 257.123 159.426 257.203 159.426 257.31V263.7C159.426 263.807 159.38 263.887 159.286 263.94C159.193 263.993 159.04 264.02 158.826 264.02H158.586C158.38 264.02 158.226 263.993 158.126 263.94C158.033 263.88 157.986 263.797 157.986 263.69V260.05C157.986 259.963 157.986 259.88 157.986 259.8C157.986 259.72 157.986 259.64 157.986 259.56L157.946 259.55C157.913 259.617 157.876 259.683 157.836 259.75C157.796 259.81 157.76 259.873 157.726 259.94L156.546 262.07C156.493 262.17 156.416 262.24 156.316 262.28C156.223 262.313 156.093 262.33 155.926 262.33H155.796C155.63 262.33 155.496 262.313 155.396 262.28C155.303 262.24 155.23 262.17 155.176 262.07L153.996 259.94C153.963 259.873 153.926 259.81 153.886 259.75C153.846 259.683 153.81 259.617 153.776 259.55L153.736 259.56C153.736 259.64 153.736 259.72 153.736 259.8C153.736 259.88 153.736 259.963 153.736 260.05V263.69C153.736 263.797 153.69 263.88 153.596 263.94C153.503 263.993 153.35 264.02 153.136 264.02H152.896Z" fill="#303030"/>
<path d="M318.134 264C318.088 264 318.044 263.947 318.004 263.84C317.971 263.733 317.944 263.61 317.924 263.47C317.904 263.33 317.894 263.213 317.894 263.12C317.894 263.087 317.898 263.057 317.904 263.03C317.911 263.003 317.918 262.983 317.924 262.97L320.454 259.87C320.528 259.777 320.591 259.68 320.644 259.58C320.704 259.48 320.751 259.373 320.784 259.26C320.818 259.147 320.834 259.03 320.834 258.91C320.834 258.637 320.754 258.433 320.594 258.3C320.434 258.167 320.238 258.1 320.004 258.1C319.778 258.1 319.581 258.137 319.414 258.21C319.248 258.277 319.108 258.347 318.994 258.42C318.888 258.493 318.801 258.53 318.734 258.53C318.634 258.53 318.541 258.487 318.454 258.4C318.368 258.307 318.298 258.2 318.244 258.08C318.191 257.953 318.164 257.84 318.164 257.74C318.164 257.653 318.221 257.563 318.334 257.47C318.454 257.37 318.611 257.28 318.804 257.2C318.998 257.113 319.211 257.047 319.444 257C319.684 256.947 319.921 256.92 320.154 256.92C320.861 256.92 321.401 257.103 321.774 257.47C322.148 257.837 322.334 258.307 322.334 258.88C322.334 259.093 322.308 259.297 322.254 259.49C322.208 259.683 322.138 259.867 322.044 260.04C321.951 260.207 321.844 260.363 321.724 260.51L319.834 262.83H322.154C322.354 262.83 322.454 262.997 322.454 263.33V263.5C322.454 263.833 322.354 264 322.154 264H318.134ZM324.146 264.02C323.939 264.02 323.786 263.993 323.686 263.94C323.593 263.88 323.546 263.797 323.546 263.69V257.4C323.546 257.133 323.669 257 323.916 257H325.976C326.789 257 327.399 257.183 327.806 257.55C328.219 257.917 328.426 258.467 328.426 259.2C328.426 259.927 328.219 260.477 327.806 260.85C327.399 261.217 326.789 261.4 325.976 261.4H325.096V263.69C325.096 263.797 325.049 263.88 324.956 263.94C324.863 263.993 324.709 264.02 324.496 264.02H324.146ZM325.096 260.09H325.976C326.283 260.09 326.503 260.02 326.636 259.88C326.776 259.74 326.846 259.513 326.846 259.2C326.846 258.887 326.776 258.66 326.636 258.52C326.503 258.38 326.283 258.31 325.976 258.31H325.096V260.09ZM329.849 264.02C329.642 264.02 329.489 263.993 329.389 263.94C329.296 263.88 329.249 263.797 329.249 263.69V257.31C329.249 257.203 329.296 257.123 329.389 257.07C329.489 257.01 329.642 256.98 329.849 256.98H330.379C330.526 256.98 330.656 257.003 330.769 257.05C330.889 257.09 330.982 257.17 331.049 257.29L332.559 260C332.612 260.087 332.662 260.18 332.709 260.28C332.762 260.373 332.802 260.457 332.829 260.53C332.862 260.463 332.902 260.377 332.949 260.27C333.002 260.163 333.046 260.077 333.079 260.01L334.619 257.3C334.692 257.173 334.779 257.09 334.879 257.05C334.986 257.003 335.112 256.98 335.259 256.98H335.779C335.992 256.98 336.146 257.01 336.239 257.07C336.332 257.123 336.379 257.203 336.379 257.31V263.7C336.379 263.807 336.332 263.887 336.239 263.94C336.146 263.993 335.992 264.02 335.779 264.02H335.539C335.332 264.02 335.179 263.993 335.079 263.94C334.986 263.88 334.939 263.797 334.939 263.69V260.05C334.939 259.963 334.939 259.88 334.939 259.8C334.939 259.72 334.939 259.64 334.939 259.56L334.899 259.55C334.866 259.617 334.829 259.683 334.789 259.75C334.749 259.81 334.712 259.873 334.679 259.94L333.499 262.07C333.446 262.17 333.369 262.24 333.269 262.28C333.176 262.313 333.046 262.33 332.879 262.33H332.749C332.582 262.33 332.449 262.313 332.349 262.28C332.256 262.24 332.182 262.17 332.129 262.07L330.949 259.94C330.916 259.873 330.879 259.81 330.839 259.75C330.799 259.683 330.762 259.617 330.729 259.55L330.689 259.56C330.689 259.64 330.689 259.72 330.689 259.8C330.689 259.88 330.689 259.963 330.689 260.05V263.69C330.689 263.797 330.642 263.88 330.549 263.94C330.456 263.993 330.302 264.02 330.089 264.02H329.849Z" fill="#303030"/>
<path d="M363.827 264.08C363.66 264.08 363.463 264.067 363.237 264.04C363.017 264.013 362.8 263.97 362.587 263.91C362.373 263.843 362.197 263.757 362.057 263.65C361.923 263.543 361.857 263.413 361.857 263.26C361.857 263.193 361.88 263.1 361.927 262.98C361.98 262.86 362.043 262.75 362.117 262.65C362.197 262.55 362.273 262.5 362.347 262.5C362.407 262.5 362.497 262.533 362.617 262.6C362.743 262.667 362.903 262.737 363.097 262.81C363.297 262.877 363.53 262.91 363.797 262.91C364.003 262.91 364.183 262.873 364.337 262.8C364.49 262.727 364.61 262.62 364.697 262.48C364.783 262.333 364.827 262.16 364.827 261.96C364.827 261.627 364.733 261.37 364.547 261.19C364.36 261.01 364.05 260.92 363.617 260.92H363.337C363.137 260.92 363.037 260.753 363.037 260.42V260.24C363.037 260.067 363.06 259.94 363.107 259.86C363.153 259.78 363.23 259.74 363.337 259.74H363.527C363.7 259.74 363.853 259.72 363.987 259.68C364.127 259.64 364.243 259.583 364.337 259.51C364.437 259.437 364.51 259.35 364.557 259.25C364.61 259.143 364.637 259.027 364.637 258.9C364.637 258.74 364.603 258.6 364.537 258.48C364.47 258.36 364.37 258.267 364.237 258.2C364.11 258.133 363.947 258.1 363.747 258.1C363.493 258.1 363.29 258.127 363.137 258.18C362.99 258.227 362.873 258.277 362.787 258.33C362.7 258.383 362.627 258.41 362.567 258.41C362.5 258.41 362.427 258.367 362.347 258.28C362.273 258.187 362.207 258.077 362.147 257.95C362.093 257.823 362.067 257.707 362.067 257.6C362.067 257.513 362.12 257.43 362.227 257.35C362.333 257.27 362.477 257.197 362.657 257.13C362.843 257.063 363.053 257.013 363.287 256.98C363.52 256.94 363.76 256.92 364.007 256.92C364.633 256.92 365.13 257.08 365.497 257.4C365.87 257.713 366.057 258.137 366.057 258.67C366.057 258.897 366.017 259.107 365.937 259.3C365.863 259.493 365.757 259.66 365.617 259.8C365.483 259.94 365.32 260.05 365.127 260.13V260.17C365.393 260.27 365.61 260.41 365.777 260.59C365.95 260.763 366.077 260.967 366.157 261.2C366.243 261.433 366.287 261.687 366.287 261.96C366.287 262.4 366.18 262.78 365.967 263.1C365.76 263.413 365.47 263.657 365.097 263.83C364.73 263.997 364.307 264.08 363.827 264.08ZM368.178 264.02C367.972 264.02 367.818 263.993 367.718 263.94C367.625 263.88 367.578 263.797 367.578 263.69V257.4C367.578 257.133 367.702 257 367.948 257H370.008C370.822 257 371.432 257.183 371.838 257.55C372.252 257.917 372.458 258.467 372.458 259.2C372.458 259.927 372.252 260.477 371.838 260.85C371.432 261.217 370.822 261.4 370.008 261.4H369.128V263.69C369.128 263.797 369.082 263.88 368.988 263.94C368.895 263.993 368.742 264.02 368.528 264.02H368.178ZM369.128 260.09H370.008C370.315 260.09 370.535 260.02 370.668 259.88C370.808 259.74 370.878 259.513 370.878 259.2C370.878 258.887 370.808 258.66 370.668 258.52C370.535 258.38 370.315 258.31 370.008 258.31H369.128V260.09ZM373.881 264.02C373.675 264.02 373.521 263.993 373.421 263.94C373.328 263.88 373.281 263.797 373.281 263.69V257.31C373.281 257.203 373.328 257.123 373.421 257.07C373.521 257.01 373.675 256.98 373.881 256.98H374.411C374.558 256.98 374.688 257.003 374.801 257.05C374.921 257.09 375.015 257.17 375.081 257.29L376.591 260C376.645 260.087 376.695 260.18 376.741 260.28C376.795 260.373 376.835 260.457 376.861 260.53C376.895 260.463 376.935 260.377 376.981 260.27C377.035 260.163 377.078 260.077 377.111 260.01L378.651 257.3C378.725 257.173 378.811 257.09 378.911 257.05C379.018 257.003 379.145 256.98 379.291 256.98H379.811C380.025 256.98 380.178 257.01 380.271 257.07C380.365 257.123 380.411 257.203 380.411 257.31V263.7C380.411 263.807 380.365 263.887 380.271 263.94C380.178 263.993 380.025 264.02 379.811 264.02H379.571C379.365 264.02 379.211 263.993 379.111 263.94C379.018 263.88 378.971 263.797 378.971 263.69V260.05C378.971 259.963 378.971 259.88 378.971 259.8C378.971 259.72 378.971 259.64 378.971 259.56L378.931 259.55C378.898 259.617 378.861 259.683 378.821 259.75C378.781 259.81 378.745 259.873 378.711 259.94L377.531 262.07C377.478 262.17 377.401 262.24 377.301 262.28C377.208 262.313 377.078 262.33 376.911 262.33H376.781C376.615 262.33 376.481 262.313 376.381 262.28C376.288 262.24 376.215 262.17 376.161 262.07L374.981 259.94C374.948 259.873 374.911 259.81 374.871 259.75C374.831 259.683 374.795 259.617 374.761 259.55L374.721 259.56C374.721 259.64 374.721 259.72 374.721 259.8C374.721 259.88 374.721 259.963 374.721 260.05V263.69C374.721 263.797 374.675 263.88 374.581 263.94C374.488 263.993 374.335 264.02 374.121 264.02H373.881Z" fill="#303030"/>
<path d="M408.128 264.02C407.921 264.02 407.768 263.993 407.668 263.94C407.575 263.887 407.528 263.807 407.528 263.7V262.58H404.848C404.795 262.58 404.741 262.523 404.688 262.41C404.641 262.29 404.605 262.157 404.578 262.01C404.551 261.857 404.538 261.737 404.538 261.65C404.538 261.623 404.538 261.6 404.538 261.58C404.545 261.56 404.551 261.547 404.558 261.54L407.368 257.17C407.421 257.083 407.501 257.03 407.608 257.01C407.721 256.99 407.851 256.98 407.998 256.98H408.408C408.621 256.98 408.775 257.007 408.868 257.06C408.961 257.113 409.008 257.193 409.008 257.3V261.41H409.388C409.588 261.41 409.688 261.577 409.688 261.91V262.08C409.688 262.253 409.665 262.38 409.618 262.46C409.571 262.54 409.495 262.58 409.388 262.58H409.008V263.7C409.008 263.807 408.961 263.887 408.868 263.94C408.775 263.993 408.621 264.02 408.408 264.02H408.128ZM405.708 261.9L405.448 261.41H407.528V259.87C407.528 259.717 407.538 259.55 407.558 259.37C407.585 259.19 407.611 259.047 407.638 258.94L407.038 258.79L407.908 258.44L405.708 261.9ZM411.11 264.02C410.903 264.02 410.75 263.993 410.65 263.94C410.556 263.88 410.51 263.797 410.51 263.69V257.4C410.51 257.133 410.633 257 410.88 257H412.94C413.753 257 414.363 257.183 414.77 257.55C415.183 257.917 415.39 258.467 415.39 259.2C415.39 259.927 415.183 260.477 414.77 260.85C414.363 261.217 413.753 261.4 412.94 261.4H412.06V263.69C412.06 263.797 412.013 263.88 411.92 263.94C411.826 263.993 411.673 264.02 411.46 264.02H411.11ZM412.06 260.09H412.94C413.246 260.09 413.466 260.02 413.6 259.88C413.74 259.74 413.81 259.513 413.81 259.2C413.81 258.887 413.74 258.66 413.6 258.52C413.466 258.38 413.246 258.31 412.94 258.31H412.06V260.09ZM416.813 264.02C416.606 264.02 416.453 263.993 416.353 263.94C416.259 263.88 416.213 263.797 416.213 263.69V257.31C416.213 257.203 416.259 257.123 416.353 257.07C416.453 257.01 416.606 256.98 416.813 256.98H417.343C417.489 256.98 417.619 257.003 417.733 257.05C417.853 257.09 417.946 257.17 418.013 257.29L419.523 260C419.576 260.087 419.626 260.18 419.673 260.28C419.726 260.373 419.766 260.457 419.793 260.53C419.826 260.463 419.866 260.377 419.913 260.27C419.966 260.163 420.009 260.077 420.043 260.01L421.583 257.3C421.656 257.173 421.743 257.09 421.843 257.05C421.949 257.003 422.076 256.98 422.223 256.98H422.743C422.956 256.98 423.109 257.01 423.203 257.07C423.296 257.123 423.343 257.203 423.343 257.31V263.7C423.343 263.807 423.296 263.887 423.203 263.94C423.109 263.993 422.956 264.02 422.743 264.02H422.503C422.296 264.02 422.143 263.993 422.043 263.94C421.949 263.88 421.903 263.797 421.903 263.69V260.05C421.903 259.963 421.903 259.88 421.903 259.8C421.903 259.72 421.903 259.64 421.903 259.56L421.863 259.55C421.829 259.617 421.793 259.683 421.753 259.75C421.713 259.81 421.676 259.873 421.643 259.94L420.463 262.07C420.409 262.17 420.333 262.24 420.233 262.28C420.139 262.313 420.009 262.33 419.843 262.33H419.713C419.546 262.33 419.413 262.313 419.313 262.28C419.219 262.24 419.146 262.17 419.093 262.07L417.913 259.94C417.879 259.873 417.843 259.81 417.803 259.75C417.763 259.683 417.726 259.617 417.693 259.55L417.653 259.56C417.653 259.64 417.653 259.72 417.653 259.8C417.653 259.88 417.653 259.963 417.653 260.05V263.69C417.653 263.797 417.606 263.88 417.513 263.94C417.419 263.993 417.266 264.02 417.053 264.02H416.813Z" fill="#303030"/>
<path d="M449.779 264.08C449.406 264.08 449.069 264.05 448.769 263.99C448.476 263.923 448.243 263.837 448.069 263.73C447.903 263.617 447.819 263.493 447.819 263.36C447.819 263.313 447.836 263.247 447.869 263.16C447.903 263.073 447.946 262.987 447.999 262.9C448.059 262.807 448.119 262.73 448.179 262.67C448.239 262.603 448.299 262.57 448.359 262.57C448.399 262.57 448.479 262.6 448.599 262.66C448.719 262.713 448.876 262.77 449.069 262.83C449.269 262.883 449.503 262.91 449.769 262.91C450.109 262.91 450.379 262.82 450.579 262.64C450.786 262.46 450.889 262.207 450.889 261.88C450.889 261.527 450.793 261.253 450.599 261.06C450.406 260.867 450.069 260.77 449.589 260.77H448.499C448.353 260.77 448.253 260.74 448.199 260.68C448.146 260.613 448.123 260.51 448.129 260.37L448.319 257.4C448.333 257.26 448.369 257.16 448.429 257.1C448.489 257.033 448.593 257 448.739 257H451.689C451.889 257 451.989 257.167 451.989 257.5V257.77C451.989 258.037 451.889 258.17 451.689 258.17H449.089L449.709 257.59L449.529 260.18L448.989 259.6H449.829C450.209 259.6 450.553 259.637 450.859 259.71C451.166 259.783 451.429 259.907 451.649 260.08C451.869 260.247 452.039 260.473 452.159 260.76C452.279 261.047 452.339 261.407 452.339 261.84C452.339 262.26 452.263 262.617 452.109 262.91C451.963 263.197 451.763 263.427 451.509 263.6C451.263 263.767 450.986 263.89 450.679 263.97C450.379 264.043 450.079 264.08 449.779 264.08ZM454.041 264.02C453.834 264.02 453.681 263.993 453.581 263.94C453.488 263.88 453.441 263.797 453.441 263.69V257.4C453.441 257.133 453.564 257 453.811 257H455.871C456.684 257 457.294 257.183 457.701 257.55C458.114 257.917 458.321 258.467 458.321 259.2C458.321 259.927 458.114 260.477 457.701 260.85C457.294 261.217 456.684 261.4 455.871 261.4H454.991V263.69C454.991 263.797 454.944 263.88 454.851 263.94C454.758 263.993 454.604 264.02 454.391 264.02H454.041ZM454.991 260.09H455.871C456.178 260.09 456.398 260.02 456.531 259.88C456.671 259.74 456.741 259.513 456.741 259.2C456.741 258.887 456.671 258.66 456.531 258.52C456.398 258.38 456.178 258.31 455.871 258.31H454.991V260.09ZM459.744 264.02C459.537 264.02 459.384 263.993 459.284 263.94C459.191 263.88 459.144 263.797 459.144 263.69V257.31C459.144 257.203 459.191 257.123 459.284 257.07C459.384 257.01 459.537 256.98 459.744 256.98H460.274C460.421 256.98 460.551 257.003 460.664 257.05C460.784 257.09 460.877 257.17 460.944 257.29L462.454 260C462.507 260.087 462.557 260.18 462.604 260.28C462.657 260.373 462.697 260.457 462.724 260.53C462.757 260.463 462.797 260.377 462.844 260.27C462.897 260.163 462.941 260.077 462.974 260.01L464.514 257.3C464.587 257.173 464.674 257.09 464.774 257.05C464.881 257.003 465.007 256.98 465.154 256.98H465.674C465.887 256.98 466.041 257.01 466.134 257.07C466.227 257.123 466.274 257.203 466.274 257.31V263.7C466.274 263.807 466.227 263.887 466.134 263.94C466.041 263.993 465.887 264.02 465.674 264.02H465.434C465.227 264.02 465.074 263.993 464.974 263.94C464.881 263.88 464.834 263.797 464.834 263.69V260.05C464.834 259.963 464.834 259.88 464.834 259.8C464.834 259.72 464.834 259.64 464.834 259.56L464.794 259.55C464.761 259.617 464.724 259.683 464.684 259.75C464.644 259.81 464.607 259.873 464.574 259.94L463.394 262.07C463.341 262.17 463.264 262.24 463.164 262.28C463.071 262.313 462.941 262.33 462.774 262.33H462.644C462.477 262.33 462.344 262.313 462.244 262.28C462.151 262.24 462.077 262.17 462.024 262.07L460.844 259.94C460.811 259.873 460.774 259.81 460.734 259.75C460.694 259.683 460.657 259.617 460.624 259.55L460.584 259.56C460.584 259.64 460.584 259.72 460.584 259.8C460.584 259.88 460.584 259.963 460.584 260.05V263.69C460.584 263.797 460.537 263.88 460.444 263.94C460.351 263.993 460.197 264.02 459.984 264.02H459.744Z" fill="#303030"/>
<path d="M277.554 264C277.354 264 277.254 263.833 277.254 263.5V263.33C277.254 262.997 277.354 262.83 277.554 262.83H278.884V257.76L279.454 258.26L277.624 258.53C277.504 258.543 277.414 258.51 277.354 258.43C277.294 258.343 277.254 258.24 277.234 258.12C277.214 258 277.204 257.893 277.204 257.8C277.204 257.673 277.224 257.583 277.264 257.53C277.311 257.47 277.378 257.433 277.464 257.42L279.954 256.96C280.034 256.96 280.121 256.987 280.214 257.04C280.314 257.093 280.364 257.163 280.364 257.25V262.83H281.634C281.834 262.83 281.934 262.997 281.934 263.33V263.5C281.934 263.833 281.834 264 281.634 264H277.554ZM283.416 264.02C283.209 264.02 283.056 263.993 282.956 263.94C282.863 263.88 282.816 263.797 282.816 263.69V257.4C282.816 257.133 282.939 257 283.186 257H285.246C286.059 257 286.669 257.183 287.076 257.55C287.489 257.917 287.696 258.467 287.696 259.2C287.696 259.927 287.489 260.477 287.076 260.85C286.669 261.217 286.059 261.4 285.246 261.4H284.366V263.69C284.366 263.797 284.319 263.88 284.226 263.94C284.133 263.993 283.979 264.02 283.766 264.02H283.416ZM284.366 260.09H285.246C285.553 260.09 285.773 260.02 285.906 259.88C286.046 259.74 286.116 259.513 286.116 259.2C286.116 258.887 286.046 258.66 285.906 258.52C285.773 258.38 285.553 258.31 285.246 258.31H284.366V260.09ZM289.119 264.02C288.912 264.02 288.759 263.993 288.659 263.94C288.566 263.88 288.519 263.797 288.519 263.69V257.31C288.519 257.203 288.566 257.123 288.659 257.07C288.759 257.01 288.912 256.98 289.119 256.98H289.649C289.796 256.98 289.926 257.003 290.039 257.05C290.159 257.09 290.252 257.17 290.319 257.29L291.829 260C291.882 260.087 291.932 260.18 291.979 260.28C292.032 260.373 292.072 260.457 292.099 260.53C292.132 260.463 292.172 260.377 292.219 260.27C292.272 260.163 292.316 260.077 292.349 260.01L293.889 257.3C293.962 257.173 294.049 257.09 294.149 257.05C294.256 257.003 294.382 256.98 294.529 256.98H295.049C295.262 256.98 295.416 257.01 295.509 257.07C295.602 257.123 295.649 257.203 295.649 257.31V263.7C295.649 263.807 295.602 263.887 295.509 263.94C295.416 263.993 295.262 264.02 295.049 264.02H294.809C294.602 264.02 294.449 263.993 294.349 263.94C294.256 263.88 294.209 263.797 294.209 263.69V260.05C294.209 259.963 294.209 259.88 294.209 259.8C294.209 259.72 294.209 259.64 294.209 259.56L294.169 259.55C294.136 259.617 294.099 259.683 294.059 259.75C294.019 259.81 293.982 259.873 293.949 259.94L292.769 262.07C292.716 262.17 292.639 262.24 292.539 262.28C292.446 262.313 292.316 262.33 292.149 262.33H292.019C291.852 262.33 291.719 262.313 291.619 262.28C291.526 262.24 291.452 262.17 291.399 262.07L290.219 259.94C290.186 259.873 290.149 259.81 290.109 259.75C290.069 259.683 290.032 259.617 289.999 259.55L289.959 259.56C289.959 259.64 289.959 259.72 289.959 259.8C289.959 259.88 289.959 259.963 289.959 260.05V263.69C289.959 263.797 289.912 263.88 289.819 263.94C289.726 263.993 289.572 264.02 289.359 264.02H289.119Z" fill="#303030"/>
<path d="M229.119 264C228.919 264 228.819 263.833 228.819 263.5V263.33C228.819 262.997 228.919 262.83 229.119 262.83H230.449V257.76L231.019 258.26L229.189 258.53C229.069 258.543 228.979 258.51 228.919 258.43C228.859 258.343 228.819 258.24 228.799 258.12C228.779 258 228.769 257.893 228.769 257.8C228.769 257.673 228.789 257.583 228.829 257.53C228.876 257.47 228.942 257.433 229.029 257.42L231.519 256.96C231.599 256.96 231.686 256.987 231.779 257.04C231.879 257.093 231.929 257.163 231.929 257.25V262.83H233.199C233.399 262.83 233.499 262.997 233.499 263.33V263.5C233.499 263.833 233.399 264 233.199 264H229.119ZM234.32 264C234.274 264 234.23 263.947 234.19 263.84C234.157 263.733 234.13 263.61 234.11 263.47C234.09 263.33 234.08 263.213 234.08 263.12C234.08 263.087 234.084 263.057 234.09 263.03C234.097 263.003 234.104 262.983 234.11 262.97L236.64 259.87C236.714 259.777 236.777 259.68 236.83 259.58C236.89 259.48 236.937 259.373 236.97 259.26C237.004 259.147 237.02 259.03 237.02 258.91C237.02 258.637 236.94 258.433 236.78 258.3C236.62 258.167 236.424 258.1 236.19 258.1C235.964 258.1 235.767 258.137 235.6 258.21C235.434 258.277 235.294 258.347 235.18 258.42C235.074 258.493 234.987 258.53 234.92 258.53C234.82 258.53 234.727 258.487 234.64 258.4C234.554 258.307 234.484 258.2 234.43 258.08C234.377 257.953 234.35 257.84 234.35 257.74C234.35 257.653 234.407 257.563 234.52 257.47C234.64 257.37 234.797 257.28 234.99 257.2C235.184 257.113 235.397 257.047 235.63 257C235.87 256.947 236.107 256.92 236.34 256.92C237.047 256.92 237.587 257.103 237.96 257.47C238.334 257.837 238.52 258.307 238.52 258.88C238.52 259.093 238.494 259.297 238.44 259.49C238.394 259.683 238.324 259.867 238.23 260.04C238.137 260.207 238.03 260.363 237.91 260.51L236.02 262.83H238.34C238.54 262.83 238.64 262.997 238.64 263.33V263.5C238.64 263.833 238.54 264 238.34 264H234.32ZM239.692 264.02C239.485 264.02 239.332 264 239.232 263.96C239.132 263.92 239.082 263.867 239.082 263.8C239.082 263.773 239.085 263.747 239.092 263.72C239.105 263.687 239.115 263.653 239.122 263.62L241.322 257.19C241.349 257.117 241.409 257.063 241.502 257.03C241.595 256.997 241.725 256.98 241.892 256.98H242.412C242.585 256.98 242.715 256.997 242.802 257.03C242.895 257.063 242.955 257.117 242.982 257.19L245.182 263.62C245.195 263.653 245.202 263.687 245.202 263.72C245.209 263.747 245.212 263.773 245.212 263.8C245.212 263.867 245.172 263.92 245.092 263.96C245.012 264 244.885 264.02 244.712 264.02H244.272C244.125 264.02 244.002 264.007 243.902 263.98C243.802 263.947 243.739 263.89 243.712 263.81L242.312 259.49C242.279 259.383 242.249 259.277 242.222 259.17C242.202 259.063 242.182 258.957 242.162 258.85H242.122C242.102 258.957 242.079 259.063 242.052 259.17C242.032 259.277 242.005 259.383 241.972 259.49L240.552 263.81C240.525 263.883 240.472 263.937 240.392 263.97C240.312 264.003 240.212 264.02 240.092 264.02H239.692ZM240.442 262.53V261.32H243.862V262.53H240.442ZM246.465 264.02C246.258 264.02 246.105 263.993 246.005 263.94C245.912 263.88 245.865 263.797 245.865 263.69V257.31C245.865 257.203 245.912 257.123 246.005 257.07C246.105 257.01 246.258 256.98 246.465 256.98H246.995C247.142 256.98 247.272 257.003 247.385 257.05C247.505 257.09 247.598 257.17 247.665 257.29L249.175 260C249.228 260.087 249.278 260.18 249.325 260.28C249.378 260.373 249.418 260.457 249.445 260.53C249.478 260.463 249.518 260.377 249.565 260.27C249.618 260.163 249.662 260.077 249.695 260.01L251.235 257.3C251.308 257.173 251.395 257.09 251.495 257.05C251.602 257.003 251.728 256.98 251.875 256.98H252.395C252.608 256.98 252.762 257.01 252.855 257.07C252.948 257.123 252.995 257.203 252.995 257.31V263.7C252.995 263.807 252.948 263.887 252.855 263.94C252.762 263.993 252.608 264.02 252.395 264.02H252.155C251.948 264.02 251.795 263.993 251.695 263.94C251.602 263.88 251.555 263.797 251.555 263.69V260.05C251.555 259.963 251.555 259.88 251.555 259.8C251.555 259.72 251.555 259.64 251.555 259.56L251.515 259.55C251.482 259.617 251.445 259.683 251.405 259.75C251.365 259.81 251.328 259.873 251.295 259.94L250.115 262.07C250.062 262.17 249.985 262.24 249.885 262.28C249.792 262.313 249.662 262.33 249.495 262.33H249.365C249.198 262.33 249.065 262.313 248.965 262.28C248.872 262.24 248.798 262.17 248.745 262.07L247.565 259.94C247.532 259.873 247.495 259.81 247.455 259.75C247.415 259.683 247.378 259.617 247.345 259.55L247.305 259.56C247.305 259.64 247.305 259.72 247.305 259.8C247.305 259.88 247.305 259.963 247.305 260.05V263.69C247.305 263.797 247.258 263.88 247.165 263.94C247.072 263.993 246.918 264.02 246.705 264.02H246.465Z" fill="#303030"/>
<path d="M183.986 264C183.786 264 183.686 263.833 183.686 263.5V263.33C183.686 262.997 183.786 262.83 183.986 262.83H185.316V257.76L185.886 258.26L184.056 258.53C183.936 258.543 183.846 258.51 183.786 258.43C183.726 258.343 183.686 258.24 183.666 258.12C183.646 258 183.636 257.893 183.636 257.8C183.636 257.673 183.656 257.583 183.696 257.53C183.743 257.47 183.809 257.433 183.896 257.42L186.386 256.96C186.466 256.96 186.553 256.987 186.646 257.04C186.746 257.093 186.796 257.163 186.796 257.25V262.83H188.066C188.266 262.83 188.366 262.997 188.366 263.33V263.5C188.366 263.833 188.266 264 188.066 264H183.986ZM189.338 264C189.138 264 189.038 263.833 189.038 263.5V263.33C189.038 262.997 189.138 262.83 189.338 262.83H190.668V257.76L191.238 258.26L189.408 258.53C189.288 258.543 189.198 258.51 189.138 258.43C189.078 258.343 189.038 258.24 189.018 258.12C188.998 258 188.988 257.893 188.988 257.8C188.988 257.673 189.008 257.583 189.048 257.53C189.094 257.47 189.161 257.433 189.248 257.42L191.738 256.96C191.818 256.96 191.904 256.987 191.998 257.04C192.098 257.093 192.148 257.163 192.148 257.25V262.83H193.418C193.618 262.83 193.718 262.997 193.718 263.33V263.5C193.718 263.833 193.618 264 193.418 264H189.338ZM194.559 264.02C194.353 264.02 194.199 264 194.099 263.96C193.999 263.92 193.949 263.867 193.949 263.8C193.949 263.773 193.953 263.747 193.959 263.72C193.973 263.687 193.983 263.653 193.989 263.62L196.189 257.19C196.216 257.117 196.276 257.063 196.369 257.03C196.463 256.997 196.593 256.98 196.759 256.98H197.279C197.453 256.98 197.583 256.997 197.669 257.03C197.763 257.063 197.823 257.117 197.849 257.19L200.049 263.62C200.063 263.653 200.069 263.687 200.069 263.72C200.076 263.747 200.079 263.773 200.079 263.8C200.079 263.867 200.039 263.92 199.959 263.96C199.879 264 199.753 264.02 199.579 264.02H199.139C198.993 264.02 198.869 264.007 198.769 263.98C198.669 263.947 198.606 263.89 198.579 263.81L197.179 259.49C197.146 259.383 197.116 259.277 197.089 259.17C197.069 259.063 197.049 258.957 197.029 258.85H196.989C196.969 258.957 196.946 259.063 196.919 259.17C196.899 259.277 196.873 259.383 196.839 259.49L195.419 263.81C195.393 263.883 195.339 263.937 195.259 263.97C195.179 264.003 195.079 264.02 194.959 264.02H194.559ZM195.309 262.53V261.32H198.729V262.53H195.309ZM201.332 264.02C201.125 264.02 200.972 263.993 200.872 263.94C200.779 263.88 200.732 263.797 200.732 263.69V257.31C200.732 257.203 200.779 257.123 200.872 257.07C200.972 257.01 201.125 256.98 201.332 256.98H201.862C202.009 256.98 202.139 257.003 202.252 257.05C202.372 257.09 202.465 257.17 202.532 257.29L204.042 260C204.095 260.087 204.145 260.18 204.192 260.28C204.245 260.373 204.285 260.457 204.312 260.53C204.345 260.463 204.385 260.377 204.432 260.27C204.485 260.163 204.529 260.077 204.562 260.01L206.102 257.3C206.175 257.173 206.262 257.09 206.362 257.05C206.469 257.003 206.595 256.98 206.742 256.98H207.262C207.475 256.98 207.629 257.01 207.722 257.07C207.815 257.123 207.862 257.203 207.862 257.31V263.7C207.862 263.807 207.815 263.887 207.722 263.94C207.629 263.993 207.475 264.02 207.262 264.02H207.022C206.815 264.02 206.662 263.993 206.562 263.94C206.469 263.88 206.422 263.797 206.422 263.69V260.05C206.422 259.963 206.422 259.88 206.422 259.8C206.422 259.72 206.422 259.64 206.422 259.56L206.382 259.55C206.349 259.617 206.312 259.683 206.272 259.75C206.232 259.81 206.195 259.873 206.162 259.94L204.982 262.07C204.929 262.17 204.852 262.24 204.752 262.28C204.659 262.313 204.529 262.33 204.362 262.33H204.232C204.065 262.33 203.932 262.313 203.832 262.28C203.739 262.24 203.665 262.17 203.612 262.07L202.432 259.94C202.399 259.873 202.362 259.81 202.322 259.75C202.282 259.683 202.245 259.617 202.212 259.55L202.172 259.56C202.172 259.64 202.172 259.72 202.172 259.8C202.172 259.88 202.172 259.963 202.172 260.05V263.69C202.172 263.797 202.125 263.88 202.032 263.94C201.939 263.993 201.785 264.02 201.572 264.02H201.332Z" fill="#303030"/>
<path d="M2.50079 142C2.26079 142 2.14079 141.8 2.14079 141.4V141.196C2.14079 140.796 2.26079 140.596 2.50079 140.596H4.09679V134.512L4.78079 135.112L2.58479 135.436C2.44079 135.452 2.33279 135.412 2.26079 135.316C2.18879 135.212 2.14079 135.088 2.11679 134.944C2.09279 134.8 2.08079 134.672 2.08079 134.56C2.08079 134.408 2.10479 134.3 2.15279 134.236C2.20879 134.164 2.28879 134.12 2.39279 134.104L5.38079 133.552C5.47679 133.552 5.58079 133.584 5.69279 133.648C5.81279 133.712 5.87279 133.796 5.87279 133.9V140.596H7.39679C7.63679 140.596 7.75679 140.796 7.75679 141.196V141.4C7.75679 141.8 7.63679 142 7.39679 142H2.50079ZM10.8427 142.096C10.3947 142.096 9.99067 142.06 9.63067 141.988C9.27867 141.908 8.99867 141.804 8.79067 141.676C8.59067 141.54 8.49067 141.392 8.49067 141.232C8.49067 141.176 8.51067 141.096 8.55067 140.992C8.59067 140.888 8.64267 140.784 8.70667 140.68C8.77867 140.568 8.85067 140.476 8.92267 140.404C8.99467 140.324 9.06667 140.284 9.13867 140.284C9.18667 140.284 9.28267 140.32 9.42667 140.392C9.57067 140.456 9.75867 140.524 9.99067 140.596C10.2307 140.66 10.5107 140.692 10.8307 140.692C11.2387 140.692 11.5627 140.584 11.8027 140.368C12.0507 140.152 12.1747 139.848 12.1747 139.456C12.1747 139.032 12.0587 138.704 11.8267 138.472C11.5947 138.24 11.1907 138.124 10.6147 138.124H9.30667C9.13067 138.124 9.01067 138.088 8.94667 138.016C8.88267 137.936 8.85467 137.812 8.86267 137.644L9.09067 134.08C9.10667 133.912 9.15067 133.792 9.22267 133.72C9.29467 133.64 9.41867 133.6 9.59467 133.6H13.1347C13.3747 133.6 13.4947 133.8 13.4947 134.2V134.524C13.4947 134.844 13.3747 135.004 13.1347 135.004H10.0147L10.7587 134.308L10.5427 137.416L9.89467 136.72H10.9027C11.3587 136.72 11.7707 136.764 12.1387 136.852C12.5067 136.94 12.8227 137.088 13.0867 137.296C13.3507 137.496 13.5547 137.768 13.6987 138.112C13.8427 138.456 13.9147 138.888 13.9147 139.408C13.9147 139.912 13.8227 140.34 13.6387 140.692C13.4627 141.036 13.2227 141.312 12.9187 141.52C12.6227 141.72 12.2907 141.868 11.9227 141.964C11.5627 142.052 11.2027 142.096 10.8427 142.096ZM16.5205 136.684C16.0405 136.684 15.6445 136.536 15.3325 136.24C15.0205 135.944 14.8645 135.564 14.8645 135.1C14.8645 134.636 15.0205 134.256 15.3325 133.96C15.6445 133.656 16.0405 133.504 16.5205 133.504C17.0085 133.504 17.4085 133.656 17.7205 133.96C18.0325 134.256 18.1885 134.636 18.1885 135.1C18.1885 135.564 18.0325 135.944 17.7205 136.24C17.4085 136.536 17.0085 136.684 16.5205 136.684ZM16.5205 135.94C16.7685 135.94 16.9725 135.864 17.1325 135.712C17.2925 135.552 17.3725 135.348 17.3725 135.1C17.3725 134.852 17.2925 134.648 17.1325 134.488C16.9725 134.328 16.7685 134.248 16.5205 134.248C16.2725 134.248 16.0685 134.328 15.9085 134.488C15.7565 134.648 15.6805 134.852 15.6805 135.1C15.6805 135.348 15.7565 135.552 15.9085 135.712C16.0685 135.864 16.2725 135.94 16.5205 135.94ZM23.0813 142.096C21.7373 142.096 20.7413 141.748 20.0933 141.052C19.4533 140.348 19.1333 139.256 19.1333 137.776C19.1333 136.344 19.4693 135.276 20.1413 134.572C20.8133 133.86 21.8133 133.504 23.1413 133.504C23.3973 133.504 23.6613 133.524 23.9333 133.564C24.2133 133.596 24.4773 133.648 24.7253 133.72C24.9733 133.784 25.1773 133.864 25.3373 133.96C25.4333 134.016 25.5093 134.076 25.5653 134.14C25.6213 134.204 25.6493 134.272 25.6493 134.344C25.6493 134.424 25.6293 134.528 25.5893 134.656C25.5573 134.776 25.5133 134.896 25.4573 135.016C25.4013 135.136 25.3373 135.236 25.2653 135.316C25.1933 135.396 25.1213 135.436 25.0493 135.436C24.9533 135.436 24.8173 135.408 24.6413 135.352C24.4653 135.288 24.2493 135.228 23.9933 135.172C23.7453 135.116 23.4493 135.088 23.1053 135.088C22.6333 135.088 22.2413 135.188 21.9293 135.388C21.6253 135.588 21.3973 135.888 21.2453 136.288C21.1013 136.688 21.0293 137.188 21.0293 137.788C21.0293 138.388 21.1053 138.892 21.2573 139.3C21.4093 139.7 21.6373 140.004 21.9413 140.212C22.2453 140.42 22.6253 140.524 23.0813 140.524C23.3693 140.524 23.6293 140.5 23.8613 140.452C24.0933 140.404 24.2973 140.348 24.4733 140.284C24.6493 140.22 24.7973 140.164 24.9173 140.116C25.0373 140.068 25.1253 140.044 25.1813 140.044C25.2773 140.044 25.3613 140.088 25.4333 140.176C25.5053 140.264 25.5653 140.368 25.6133 140.488C25.6613 140.608 25.6973 140.728 25.7213 140.848C25.7453 140.96 25.7573 141.04 25.7573 141.088C25.7573 141.224 25.7253 141.324 25.6613 141.388C25.5973 141.452 25.4733 141.536 25.2893 141.64C25.0973 141.744 24.8693 141.832 24.6053 141.904C24.3493 141.968 24.0853 142.016 23.8133 142.048C23.5493 142.08 23.3053 142.096 23.0813 142.096Z" fill="#303030"/>
</svg>
