<svg width="74" height="57" viewBox="0 0 74 57" fill="none" xmlns="http://www.w3.org/2000/svg">
<path d="M24.2 2.4C26.0133 1.22666 27.6667 1.49332 29.16 3.2C30.6533 4.79999 30.6533 6.34666 29.16 7.83999C25.8533 11.1467 23.56 13.7067 22.28 15.52C21 17.3333 20.2533 19.3067 20.04 21.44C19.8267 23.7867 20.52 24.96 22.12 24.96C25.32 24.96 28.04 26.4 30.28 29.28C32.52 32.0533 33.64 35.6267 33.64 40C33.64 45.12 32.1467 49.2267 29.16 52.32C26.28 55.4133 22.3867 56.96 17.48 56.96C12.7867 56.96 8.73333 55.2533 5.32 51.84C2.01333 48.32 0.36 43.5733 0.36 37.6C0.36 23.7333 8.30667 12 24.2 2.4ZM63.88 2.4C65.6933 1.22666 67.3467 1.49332 68.84 3.2C70.3333 4.79999 70.3333 6.34666 68.84 7.83999C65.5333 11.1467 63.24 13.7067 61.96 15.52C60.68 17.3333 59.9333 19.3067 59.72 21.44C59.5067 23.7867 60.2 24.96 61.8 24.96C65 24.96 67.72 26.4 69.96 29.28C72.2 32.0533 73.32 35.6267 73.32 40C73.32 45.12 71.8267 49.2267 68.84 52.32C65.96 55.4133 62.0667 56.96 57.16 56.96C52.4667 56.96 48.4133 55.2533 45 51.84C41.6933 48.32 40.04 43.5733 40.04 37.6C40.04 23.7333 47.9867 12 63.88 2.4Z" fill="#E65E2A"/>
</svg>
