<svg width="26" height="26" viewBox="0 0 26 26" fill="none" xmlns="http://www.w3.org/2000/svg">
<g id="raining">
<g id="Vector">
<path d="M7.58329 16.25C4.59175 16.25 2.16663 13.8248 2.16663 10.8333C2.16663 7.84175 4.59175 5.41663 7.58329 5.41663C7.6192 5.41663 7.65503 5.41697 7.69078 5.41768C8.67681 3.48786 10.6841 2.16663 13 2.16663C15.7291 2.16663 18.0298 4.00152 18.7355 6.50496C18.8093 6.50164 18.8837 6.49996 18.9583 6.49996C21.6507 6.49996 23.8333 8.68257 23.8333 11.375C23.8333 14.0674 21.6507 16.25 18.9583 16.25H7.58329Z" fill="#303030"/>
<path d="M17.3333 20.0416L16.25 22.75M8.66663 20.0416L7.58329 22.75M13 20.0416L11.9166 22.75M7.58329 16.25C4.59175 16.25 2.16663 13.8248 2.16663 10.8333C2.16663 7.84175 4.59175 5.41663 7.58329 5.41663C7.61921 5.41663 7.65503 5.41697 7.69078 5.41768C8.67681 3.48786 10.6841 2.16663 13 2.16663C15.7291 2.16663 18.0298 4.00152 18.7355 6.50496C18.8093 6.50164 18.8837 6.49996 18.9583 6.49996C21.6507 6.49996 23.8333 8.68257 23.8333 11.375C23.8333 14.0674 21.6507 16.25 18.9583 16.25M7.58329 16.25C12.1714 16.25 14.8886 16.25 18.9583 16.25M7.58329 16.25H18.9583" stroke="#303030" stroke-width="2" stroke-linecap="round" stroke-linejoin="round"/>
</g>
</g>
</svg>
