<svg xmlns="http://www.w3.org/2000/svg" width="24" height="23" fill="none"><path fill="#185850" d="M6.417 15.083a5.417 5.417 0 1 1 .107-10.832A5.961 5.961 0 0 1 17.57 5.338q.11-.005.223-.005a4.875 4.875 0 1 1 0 9.75z"/><path stroke="#185850" stroke-linecap="round" stroke-linejoin="round" stroke-width="2" d="m16.167 18.875-1.084 2.708M7.5 18.875l-1.083 2.708m5.416-2.708-1.083 2.708m-4.333-6.5a5.417 5.417 0 1 1 .107-10.832A5.961 5.961 0 0 1 17.57 5.338q.11-.005.223-.005a4.875 4.875 0 1 1 0 9.75m-11.375 0h11.375m-11.375 0h11.375"/></svg>