<svg xmlns="http://www.w3.org/2000/svg" width="26" height="26" fill="none"><path fill="#303030" d="M7.583 16.25a5.417 5.417 0 1 1 .108-10.832 5.961 5.961 0 0 1 11.045 1.087q.11-.005.222-.005a4.875 4.875 0 1 1 0 9.75z"/><path stroke="#303030" stroke-linecap="round" stroke-linejoin="round" stroke-width="2" d="M17.333 20.042 16.25 22.75m-7.583-2.708L7.583 22.75M13 20.042l-1.083 2.708m-4.334-6.5a5.417 5.417 0 1 1 .108-10.832 5.961 5.961 0 0 1 11.045 1.087q.11-.005.222-.005a4.875 4.875 0 1 1 0 9.75m-11.375 0h11.375m-11.375 0h11.375"/></svg>