<svg width="24" height="23" viewBox="0 0 24 23" fill="none" xmlns="http://www.w3.org/2000/svg">
<g id="Vector">
<path d="M6.41667 15.0833C3.42513 15.0833 1 12.6582 1 9.66667C1 6.67513 3.42513 4.25 6.41667 4.25C6.45258 4.25 6.4884 4.25035 6.52415 4.25105C7.51018 2.32123 9.51746 1 11.8333 1C14.5625 1 16.8631 2.8349 17.5688 5.33834C17.6427 5.33501 17.717 5.33333 17.7917 5.33333C20.4841 5.33333 22.6667 7.51595 22.6667 10.2083C22.6667 12.9007 20.4841 15.0833 17.7917 15.0833H6.41667Z" fill="#185850"/>
<path d="M16.1667 18.875L15.0833 21.5833M7.5 18.875L6.41667 21.5833M11.8333 18.875L10.75 21.5833M6.41667 15.0833C3.42513 15.0833 1 12.6582 1 9.66667C1 6.67513 3.42513 4.25 6.41667 4.25C6.45258 4.25 6.4884 4.25035 6.52415 4.25105C7.51018 2.32123 9.51746 1 11.8333 1C14.5625 1 16.8631 2.8349 17.5688 5.33834C17.6427 5.33501 17.717 5.33333 17.7917 5.33333C20.4841 5.33333 22.6667 7.51595 22.6667 10.2083C22.6667 12.9007 20.4841 15.0833 17.7917 15.0833M6.41667 15.0833C11.0048 15.0833 13.722 15.0833 17.7917 15.0833M6.41667 15.0833H17.7917" stroke="#185850" stroke-width="2" stroke-linecap="round" stroke-linejoin="round"/>
</g>
</svg>
