<svg width="191" height="162" viewBox="0 0 191 162" fill="none" xmlns="http://www.w3.org/2000/svg">
<path d="M42.975 133C19.2406 133 0 113.86 0 90.25C0 67.9858 17.1089 49.6973 38.9615 47.6843C43.4316 20.6352 67.0433 0 95.5 0C123.957 0 147.569 20.6352 152.039 47.6843C173.891 49.6973 191 67.9858 191 90.25C191 113.86 171.76 133 148.025 133C106.102 133 79.6785 133 42.975 133Z" fill="#C8C8C8" fill-opacity="0.8"/>
<circle cx="29" cy="115" r="7" fill="#D9D9D9"/>
<circle cx="29" cy="115" r="7" fill="#D9D9D9"/>
<circle cx="158" cy="118" r="4" fill="#D9D9D9"/>
<circle cx="144" cy="155" r="7" fill="#D9D9D9"/>
<circle cx="80" cy="117" r="5" fill="#D9D9D9"/>
<circle cx="104" cy="136" r="5" fill="#D9D9D9"/>
<circle cx="51.5" cy="140.5" r="12.5" fill="#D9D9D9"/>
<circle cx="121.5" cy="104.5" r="12.5" fill="#D9D9D9"/>
</svg>
