<svg xmlns="http://www.w3.org/2000/svg" width="40" height="40" fill="none"><path fill="#FFCB65" d="M20 1v3.8zm0 34.2V39zM4.8 20H1zM9.197 9.197 6.51 6.51zm21.606 0L33.49 6.51zM9.197 30.81 6.51 33.498zm21.606 0 2.687 2.687zM39 20h-3.8zm-9.5 0a9.5 9.5 0 1 1-19 0 9.5 9.5 0 0 1 19 0"/><path stroke="#FFCB65" stroke-linecap="round" stroke-linejoin="round" stroke-width="2" d="M20 1v3.8m0 30.4V39M4.8 20H1M9.197 9.197 6.51 6.51m24.293 2.687L33.49 6.51M9.197 30.81 6.51 33.498m24.293-2.687 2.687 2.687M39 20h-3.8m-5.7 0a9.5 9.5 0 1 1-19 0 9.5 9.5 0 0 1 19 0"/></svg>