<svg width="40" height="40" viewBox="0 0 40 40" fill="none" xmlns="http://www.w3.org/2000/svg">
<g id="sunny">
<g id="Vector">
<path d="M20 1V4.8V1ZM20 35.2V39V35.2ZM4.8 20H1H4.8ZM9.19683 9.19683L6.50981 6.50981L9.19683 9.19683ZM30.8032 9.19683L33.4902 6.50981L30.8032 9.19683ZM9.19683 30.811L6.50981 33.498L9.19683 30.811ZM30.8032 30.811L33.4902 33.498L30.8032 30.811ZM39 20H35.2H39ZM29.5 20C29.5 25.2467 25.2467 29.5 20 29.5C14.7533 29.5 10.5 25.2467 10.5 20C10.5 14.7533 14.7533 10.5 20 10.5C25.2467 10.5 29.5 14.7533 29.5 20Z" fill="#FFCB65"/>
<path d="M20 1V4.8M20 35.2V39M4.8 20H1M9.19683 9.19683L6.50981 6.50981M30.8032 9.19683L33.4902 6.50981M9.19683 30.811L6.50981 33.498M30.8032 30.811L33.4902 33.498M39 20H35.2M29.5 20C29.5 25.2467 25.2467 29.5 20 29.5C14.7533 29.5 10.5 25.2467 10.5 20C10.5 14.7533 14.7533 10.5 20 10.5C25.2467 10.5 29.5 14.7533 29.5 20Z" stroke="#FFCB65" stroke-width="2" stroke-linecap="round" stroke-linejoin="round"/>
</g>
</g>
</svg>
