<svg width="53" height="47" viewBox="0 0 53 47" fill="none" xmlns="http://www.w3.org/2000/svg">
<path d="M13.0205 35.6976C6.93404 35.6976 2 30.7872 2 24.7299C2 19.018 6.3874 14.326 11.9913 13.8095C13.1376 6.87 19.1925 1.57596 26.49 1.57596C33.7875 1.57596 39.8424 6.87 40.9888 13.8095C46.5926 14.326 50.9799 19.018 50.9799 24.7299C50.9799 30.7872 46.0459 35.6976 39.9595 35.6976C29.2088 35.6976 22.4327 35.6976 13.0205 35.6976Z" fill="#87BEEB" stroke="#87BEEB" stroke-width="3" stroke-linecap="round" stroke-linejoin="round"/>
<path d="M30.0973 23.3347H23.9041C23.711 23.3347 23.6145 23.3347 23.5292 23.3637C23.4538 23.3894 23.3852 23.4314 23.3282 23.4865C23.2638 23.5488 23.2206 23.6342 23.1342 23.8049L18.6149 32.7358C18.4086 33.1434 18.3055 33.3473 18.3303 33.5129C18.3519 33.6575 18.4329 33.787 18.5542 33.8708C18.693 33.9668 18.9236 33.9668 19.3848 33.9668H26.0622L22.8341 44.5989L35.9542 31.1549C36.3969 30.7014 36.6182 30.4746 36.6311 30.2805C36.6423 30.1121 36.572 29.9484 36.4414 29.8394C36.2911 29.7139 35.9723 29.7139 35.3345 29.7139H27.6762L30.0973 23.3347Z" fill="#CECBCB" stroke="#CECBCB" stroke-width="3" stroke-linecap="round" stroke-linejoin="round"/>
</svg>
