<?xml version="1.0" encoding="UTF-8"?>
<svg xmlns="http://www.w3.org/2000/svg" xmlns:xlink="http://www.w3.org/1999/xlink" width="24px" height="24px" viewBox="0 0 24 24" version="1.1">
<g id="surface1">
<path style=" stroke:none;fill-rule:nonzero;fill:rgb(0%,0%,0%);fill-opacity:1;" d="M 5.0625 3.398438 C 4.703125 3.5 4.273438 3.773438 3.726562 4.242188 C 2.957031 4.90625 2.761719 5.015625 2.324219 5.015625 C 1.992188 5.015625 1.6875 4.859375 1.285156 4.492188 C 1.101562 4.320312 0.871094 4.15625 0.777344 4.125 C 0.3125 3.976562 -0.0703125 4.46875 0.164062 4.921875 C 0.273438 5.132812 1.007812 5.75 1.332031 5.902344 C 2.0625 6.25 2.898438 6.214844 3.585938 5.816406 C 3.71875 5.742188 4.054688 5.476562 4.34375 5.21875 C 5.078125 4.566406 5.203125 4.484375 5.527344 4.460938 C 5.925781 4.433594 6.113281 4.550781 6.976562 5.351562 C 7.566406 5.90625 8.132812 6.15625 8.808594 6.148438 C 9.515625 6.140625 10.007812 5.902344 10.808594 5.160156 C 11.070312 4.921875 11.394531 4.671875 11.550781 4.59375 C 12.089844 4.320312 12.355469 4.421875 13.195312 5.203125 C 13.796875 5.765625 14.023438 5.925781 14.414062 6.042969 C 14.855469 6.179688 15.210938 6.203125 15.589844 6.121094 C 16.125 6.015625 16.597656 5.722656 17.273438 5.109375 C 18.238281 4.21875 18.511719 4.234375 19.570312 5.203125 C 20.164062 5.75 20.484375 5.953125 20.929688 6.070312 C 21.46875 6.210938 22.128906 6.125 22.636719 5.859375 C 22.78125 5.78125 23.125 5.515625 23.398438 5.273438 C 23.992188 4.753906 24.054688 4.617188 23.90625 4.28125 C 23.839844 4.128906 23.769531 4.054688 23.648438 4.003906 C 23.375 3.890625 23.179688 3.976562 22.707031 4.40625 C 22.164062 4.902344 21.898438 5.035156 21.484375 5.007812 C 21.042969 4.984375 20.839844 4.867188 20.1875 4.265625 C 19.796875 3.90625 19.523438 3.699219 19.25 3.554688 C 18.867188 3.351562 18.867188 3.351562 18.371094 3.351562 L 17.875 3.351562 L 17.433594 3.570312 C 17.078125 3.75 16.894531 3.882812 16.457031 4.285156 C 15.820312 4.875 15.542969 5.035156 15.121094 5.035156 C 14.738281 5.03125 14.484375 4.894531 13.921875 4.382812 C 13.335938 3.84375 13.0625 3.640625 12.726562 3.484375 C 12.476562 3.367188 12.394531 3.351562 11.976562 3.351562 C 11.578125 3.351562 11.464844 3.371094 11.210938 3.472656 C 10.820312 3.640625 10.515625 3.859375 9.957031 4.367188 C 9.402344 4.875 9.140625 5.015625 8.742188 5.015625 C 8.359375 5.015625 8.085938 4.875 7.59375 4.429688 C 6.699219 3.613281 6.261719 3.371094 5.675781 3.34375 C 5.457031 3.332031 5.222656 3.355469 5.0625 3.398438 Z M 5.0625 3.398438 "/>
<path style=" stroke:none;fill-rule:nonzero;fill:rgb(0%,0%,0%);fill-opacity:1;" d="M 5.015625 8.242188 C 4.503906 8.414062 4.273438 8.570312 3.4375 9.308594 C 2.925781 9.765625 2.726562 9.863281 2.34375 9.863281 C 1.929688 9.863281 1.679688 9.742188 1.246094 9.332031 C 0.859375 8.96875 0.707031 8.886719 0.484375 8.929688 C 0.265625 8.96875 0.046875 9.238281 0.046875 9.460938 C 0.046875 9.703125 0.171875 9.882812 0.59375 10.242188 C 1.28125 10.828125 2 11.078125 2.699219 10.96875 C 3.203125 10.894531 3.609375 10.667969 4.222656 10.125 C 4.992188 9.441406 5.25 9.28125 5.578125 9.28125 C 5.804688 9.28125 6.171875 9.515625 6.664062 9.96875 C 7.507812 10.753906 7.945312 10.96875 8.695312 10.96875 C 9.449219 10.964844 9.933594 10.734375 10.761719 9.980469 C 11.320312 9.464844 11.628906 9.28125 11.9375 9.28125 C 12.238281 9.28125 12.417969 9.394531 13.132812 10.027344 C 14.011719 10.789062 14.382812 10.96875 15.121094 10.96875 C 15.84375 10.96875 16.308594 10.738281 17.152344 9.96875 C 18.125 9.085938 18.472656 9.078125 19.398438 9.953125 C 19.945312 10.46875 20.136719 10.617188 20.492188 10.78125 C 21.085938 11.058594 21.800781 11.058594 22.382812 10.785156 C 22.707031 10.636719 23.667969 9.828125 23.757812 9.636719 C 23.9375 9.234375 23.671875 8.8125 23.230469 8.8125 C 23.0625 8.8125 22.898438 8.929688 22.199219 9.546875 C 21.804688 9.898438 21.257812 9.980469 20.808594 9.75 C 20.710938 9.699219 20.4375 9.476562 20.203125 9.257812 C 19.660156 8.746094 19.355469 8.523438 19.027344 8.367188 C 18.640625 8.195312 18.296875 8.140625 17.949219 8.203125 C 17.386719 8.304688 16.96875 8.554688 16.304688 9.171875 C 15.6875 9.746094 15.417969 9.890625 14.980469 9.890625 C 14.605469 9.890625 14.339844 9.730469 13.726562 9.15625 C 13.3125 8.765625 13.082031 8.585938 12.789062 8.433594 C 12.429688 8.246094 12.367188 8.230469 11.976562 8.210938 C 11.277344 8.179688 10.847656 8.394531 9.867188 9.253906 C 9.265625 9.78125 8.996094 9.914062 8.5625 9.875 C 8.210938 9.84375 8.011719 9.722656 7.386719 9.140625 C 7.109375 8.882812 6.792969 8.605469 6.679688 8.53125 C 6.1875 8.195312 5.511719 8.078125 5.015625 8.242188 Z M 5.015625 8.242188 "/>
<path style=" stroke:none;fill-rule:nonzero;fill:rgb(0%,0%,0%);fill-opacity:1;" d="M 5.0625 13.085938 C 4.617188 13.246094 4.40625 13.382812 3.730469 13.964844 C 3.015625 14.578125 2.820312 14.679688 2.421875 14.6875 C 2.019531 14.691406 1.773438 14.5625 1.316406 14.140625 C 0.8125 13.664062 0.53125 13.617188 0.234375 13.949219 C 0.015625 14.203125 0.0390625 14.410156 0.324219 14.757812 C 0.558594 15.039062 1.015625 15.414062 1.3125 15.5625 C 1.832031 15.824219 2.515625 15.886719 3.070312 15.710938 C 3.46875 15.589844 3.816406 15.351562 4.457031 14.769531 C 5.171875 14.128906 5.570312 13.984375 6 14.203125 C 6.097656 14.253906 6.4375 14.535156 6.746094 14.835938 C 7.523438 15.578125 7.988281 15.800781 8.746094 15.800781 C 9.5 15.800781 10.027344 15.539062 10.902344 14.714844 C 11.320312 14.324219 11.691406 14.109375 11.953125 14.109375 C 12.230469 14.109375 12.558594 14.316406 13.097656 14.8125 C 13.976562 15.640625 14.398438 15.828125 15.257812 15.789062 C 15.957031 15.75 16.367188 15.515625 17.34375 14.601562 C 17.695312 14.273438 17.929688 14.152344 18.242188 14.117188 C 18.5625 14.089844 18.78125 14.21875 19.40625 14.789062 C 20.300781 15.617188 20.679688 15.804688 21.445312 15.8125 C 21.945312 15.816406 22.261719 15.730469 22.683594 15.484375 C 23.066406 15.253906 23.8125 14.628906 23.914062 14.445312 C 24.136719 14.070312 23.878906 13.59375 23.460938 13.59375 C 23.28125 13.59375 23.183594 13.660156 22.6875 14.101562 C 22.148438 14.582031 21.976562 14.667969 21.546875 14.671875 C 21.117188 14.671875 20.902344 14.558594 20.347656 14.046875 C 19.445312 13.203125 18.9375 12.953125 18.253906 12.992188 C 17.714844 13.03125 17.199219 13.304688 16.480469 13.941406 C 15.78125 14.558594 15.613281 14.648438 15.140625 14.648438 C 14.695312 14.648438 14.527344 14.554688 13.914062 13.976562 C 13.117188 13.222656 12.65625 12.984375 12.027344 12.984375 C 11.382812 12.984375 10.925781 13.21875 10.046875 14 C 9.453125 14.53125 9.191406 14.671875 8.789062 14.671875 C 8.386719 14.671875 8.128906 14.53125 7.523438 13.96875 C 6.71875 13.21875 6.375 13.035156 5.742188 13 C 5.4375 12.984375 5.3125 13 5.0625 13.085938 Z M 5.0625 13.085938 "/>
<path style=" stroke:none;fill-rule:nonzero;fill:rgb(0%,0%,0%);fill-opacity:1;" d="M 17.953125 17.878906 C 17.429688 17.996094 17.066406 18.214844 16.378906 18.847656 C 16.125 19.082031 15.828125 19.328125 15.722656 19.386719 C 15.445312 19.550781 15.109375 19.601562 14.816406 19.527344 C 14.515625 19.449219 14.292969 19.292969 13.75 18.78125 C 13.007812 18.085938 12.566406 17.859375 11.953125 17.859375 C 11.359375 17.859375 10.878906 18.113281 9.992188 18.890625 C 9.425781 19.386719 9.226562 19.5 8.851562 19.53125 C 8.390625 19.574219 8.046875 19.386719 7.359375 18.726562 C 6.675781 18.066406 6.144531 17.828125 5.46875 17.875 C 4.90625 17.910156 4.484375 18.136719 3.746094 18.796875 C 3.039062 19.425781 2.816406 19.546875 2.394531 19.546875 C 1.988281 19.542969 1.757812 19.433594 1.367188 19.0625 C 0.964844 18.679688 0.859375 18.609375 0.664062 18.609375 C 0.3125 18.609375 0.0625 18.886719 0.109375 19.222656 C 0.136719 19.433594 0.332031 19.683594 0.789062 20.078125 C 1.367188 20.582031 2.019531 20.785156 2.71875 20.675781 C 3.277344 20.585938 3.699219 20.339844 4.46875 19.648438 C 5.195312 18.992188 5.515625 18.875 5.972656 19.097656 C 6.117188 19.167969 6.417969 19.398438 6.664062 19.632812 C 6.90625 19.855469 7.191406 20.109375 7.296875 20.195312 C 7.753906 20.550781 8.46875 20.761719 9 20.695312 C 9.585938 20.621094 10.117188 20.324219 10.832031 19.660156 C 11.414062 19.117188 11.6875 18.964844 12.023438 18.992188 C 12.332031 19.023438 12.492188 19.125 13.117188 19.703125 C 13.898438 20.429688 14.289062 20.625 15.03125 20.664062 C 15.8125 20.699219 16.265625 20.484375 17.152344 19.664062 C 17.695312 19.15625 17.992188 18.984375 18.289062 18.984375 C 18.609375 18.988281 18.835938 19.125 19.472656 19.703125 C 20.351562 20.5 20.820312 20.710938 21.582031 20.65625 C 22.285156 20.605469 22.773438 20.363281 23.480469 19.703125 C 23.839844 19.363281 23.875 19.316406 23.890625 19.121094 C 23.925781 18.84375 23.820312 18.648438 23.597656 18.539062 C 23.324219 18.414062 23.175781 18.46875 22.660156 18.917969 C 22.097656 19.410156 21.835938 19.546875 21.445312 19.546875 C 21.042969 19.546875 20.78125 19.40625 20.226562 18.894531 C 19.261719 18.003906 18.648438 17.726562 17.953125 17.878906 Z M 17.953125 17.878906 "/>
</g>
</svg>
