<svg xmlns="http://www.w3.org/2000/svg" width="24" height="24"><path d="M5.063 3.398c-.36.102-.79.375-1.336.844-.77.664-.965.774-1.403.774-.332 0-.636-.157-1.039-.524-.183-.172-.414-.336-.508-.367-.464-.148-.847.344-.613.797.11.21.844.828 1.168.98a2.41 2.41 0 0 0 2.254-.086c.133-.074.469-.34.758-.597.734-.653.86-.735 1.183-.758.399-.027.586.09 1.45.89.59.555 1.156.805 1.832.797.707-.007 1.199-.246 2-.988.261-.238.586-.488.742-.566.539-.274.804-.172 1.644.61.602.562.828.722 1.22.839.44.137.796.16 1.175.078.535-.105 1.008-.398 1.683-1.012.965-.89 1.239-.875 2.297.094.594.547.914.75 1.36.867.539.14 1.199.055 1.707-.21.144-.079.488-.344.761-.587.594-.52.657-.656.508-.992-.066-.152-.136-.226-.258-.277-.273-.113-.468-.027-.941.402-.543.496-.809.63-1.223.602-.441-.024-.644-.14-1.297-.742-.39-.36-.664-.567-.937-.711-.383-.203-.383-.203-.879-.203h-.496l-.441.218c-.356.18-.54.313-.977.715-.637.59-.914.75-1.336.75-.383-.004-.637-.14-1.2-.652-.585-.54-.858-.742-1.194-.899-.25-.117-.332-.132-.75-.132-.399 0-.512.02-.766.12-.39.169-.695.387-1.254.895-.555.508-.816.649-1.215.649-.383 0-.656-.141-1.148-.586-.895-.817-1.332-1.059-1.918-1.086a2.1 2.1 0 0 0-.614.054M5.016 8.242c-.512.172-.743.328-1.578 1.067-.512.457-.711.554-1.094.554-.414 0-.664-.12-1.098-.531C.86 8.969.707 8.887.484 8.93c-.218.039-.437.308-.437.53 0 .243.125.423.547.782.687.586 1.406.836 2.105.727.504-.074.91-.301 1.524-.844.77-.684 1.027-.844 1.355-.844.227 0 .594.235 1.086.688.844.785 1.281 1 2.031 1 .754-.004 1.239-.235 2.067-.989.558-.515.867-.699 1.175-.699.301 0 .481.114 1.196.746.879.762 1.25.942 1.988.942.723 0 1.188-.23 2.031-1 .973-.883 1.32-.89 2.246-.016.547.516.739.664 1.094.828a2.27 2.27 0 0 0 1.89.004c.325-.148 1.286-.957 1.376-1.148.18-.403-.086-.825-.528-.825-.168 0-.332.118-1.03.735-.395.351-.942.433-1.391.203-.098-.05-.372-.273-.606-.492-.543-.512-.848-.735-1.176-.89-.386-.173-.73-.227-1.078-.165-.562.102-.98.352-1.644.969-.617.574-.887.719-1.325.719-.375 0-.64-.16-1.253-.735-.415-.39-.645-.57-.938-.722-.36-.188-.422-.204-.812-.223-.7-.031-1.13.184-2.11 1.043-.601.527-.87.66-1.305.621-.351-.031-.55-.152-1.175-.734-.278-.258-.594-.536-.707-.61-.492-.336-1.168-.453-1.664-.289M5.063 13.086c-.446.16-.657.297-1.333.879-.714.613-.91.715-1.308.723-.402.003-.649-.126-1.106-.547-.504-.477-.785-.524-1.082-.192-.218.254-.195.461.09.809.235.281.692.656.988.805.52.261 1.204.324 1.758.148.399-.121.746-.36 1.387-.941.715-.641 1.113-.786 1.543-.567.098.05.438.332.746.633.777.742 1.242.965 2 .965.754 0 1.281-.262 2.156-1.086.418-.39.79-.606 1.051-.606.277 0 .606.207 1.145.704.879.828 1.3 1.015 2.16.976.699-.039 1.11-.273 2.086-1.187.351-.329.586-.45.898-.485.32-.027.54.102 1.164.672.895.828 1.274 1.016 2.04 1.024.5.003.816-.083 1.238-.329.382-.23 1.128-.855 1.23-1.039.223-.375-.035-.851-.453-.851-.18 0-.277.066-.773.508-.54.48-.711.566-1.141.57-.43 0-.645-.113-1.2-.625-.902-.844-1.41-1.094-2.093-1.055-.54.04-1.055.313-1.774.95-.699.617-.867.706-1.34.706-.445 0-.613-.093-1.226-.671-.797-.754-1.258-.993-1.887-.993-.644 0-1.101.235-1.98 1.016-.594.531-.856.672-1.258.672s-.66-.14-1.266-.703c-.804-.75-1.148-.934-1.78-.969-.306-.016-.43 0-.68.086M17.953 17.879c-.523.117-.887.336-1.574.969-.254.234-.55.48-.656.539a1.22 1.22 0 0 1-.907.14c-.3-.078-.523-.234-1.066-.746-.742-.695-1.184-.922-1.797-.922-.594 0-1.074.254-1.96 1.032-.567.496-.766.609-1.141.64-.461.043-.805-.144-1.493-.804-.683-.66-1.214-.899-1.89-.852-.563.035-.985.262-1.723.922-.707.629-.93.75-1.351.75-.407-.004-.637-.113-1.028-.485-.402-.382-.508-.453-.703-.453-.352 0-.601.278-.555.614.028.21.223.46.68.855.578.504 1.23.707 1.93.598.558-.09.98-.336 1.75-1.028.726-.656 1.047-.773 1.504-.55.144.07.445.3.691.535.242.222.527.476.633.562.457.356 1.172.567 1.703.5.586-.074 1.117-.37 1.832-1.035.582-.543.855-.695 1.191-.668.309.031.47.133 1.094.711.781.727 1.172.922 1.914.961.781.035 1.235-.18 2.121-1 .543-.508.84-.68 1.137-.68.32.004.547.141 1.184.72.879.796 1.347 1.007 2.109.952.703-.05 1.191-.293 1.898-.953.36-.34.395-.387.41-.582.036-.277-.07-.473-.292-.582-.274-.125-.422-.07-.938.379-.562.492-.824.629-1.215.629-.402 0-.664-.14-1.218-.652-.965-.891-1.579-1.168-2.274-1.016m0 0" style="stroke:none;fill-rule:nonzero;fill:#000;fill-opacity:1"/></svg>