<svg width="26" height="26" viewBox="0 0 26 26" fill="none" xmlns="http://www.w3.org/2000/svg">
<g id="wind">
<path id="Vector" d="M10.3018 5.0556C10.6985 4.61233 11.2751 4.33337 11.9168 4.33337C13.1134 4.33337 14.0834 5.30342 14.0834 6.50004C14.0834 7.69666 13.1134 8.66671 11.9168 8.66671H2.16677M13.5519 20.9444C13.9486 21.3877 14.5251 21.6667 15.1668 21.6667C16.3634 21.6667 17.3334 20.6967 17.3334 19.5C17.3334 18.3034 16.3634 17.3334 15.1668 17.3334H2.16677M18.161 7.58337C18.7561 6.91848 19.6209 6.50004 20.5834 6.50004C22.3783 6.50004 23.8334 7.95512 23.8334 9.75004C23.8334 11.545 22.3783 13 20.5834 13H2.16675" stroke="#303030" stroke-width="2" stroke-linecap="round" stroke-linejoin="round"/>
</g>
</svg>
