<svg xmlns="http://www.w3.org/2000/svg" width="27" height="27" fill="none"><path fill="#1E1E1E" d="M0 0h27v27H0z"/><path fill="#EDDED4" d="M-801-434H479v832H-801z"/><rect width="179" height="145.854" x="-137.5" y="-7.5" fill="#C8BDFF" stroke="#303030" rx="19.5"/><path stroke="#685E9A" stroke-linecap="round" stroke-linejoin="round" stroke-width="2" d="M10.698 5.892a2.31 2.31 0 0 1 1.677-.702c1.243 0 2.25.943 2.25 2.107s-1.007 2.108-2.25 2.108H2.25m11.823 11.943c.412.431 1.01.703 1.677.703 1.243 0 2.25-.944 2.25-2.108s-1.007-2.108-2.25-2.108H2.25m16.61-9.484a3.47 3.47 0 0 1 2.515-1.054c1.864 0 3.375 1.416 3.375 3.162s-1.511 3.161-3.375 3.161H2.25"/></svg>