<svg width="27" height="27" viewBox="0 0 27 27" fill="none" xmlns="http://www.w3.org/2000/svg">
<rect width="27" height="27" fill="#1E1E1E"/>
<g id="Advanced mode Dashboard">
<rect width="1280" height="832" transform="translate(-801 -434)" fill="#EDDED4"/>
<g id="Widgets Cards">
<g id="Component 22">
<g id="Component 21">
<rect id="Rectangle 154" x="-137.5" y="-7.5" width="179" height="145.854" rx="19.5" fill="#C8BDFF" stroke="#303030"/>
<g id="Group 8">
<g id="wind">
<path id="Vector" d="M10.698 5.89212C11.1099 5.46093 11.7087 5.18958 12.375 5.18958C13.6177 5.18958 14.625 6.13319 14.625 7.2972C14.625 8.46122 13.6177 9.40483 12.375 9.40483H2.25002M14.073 21.348C14.485 21.7793 15.0837 22.0506 15.75 22.0506C16.9927 22.0506 18 21.107 18 19.943C18 18.7789 16.9927 17.8354 15.75 17.8354H2.25002M18.8594 8.35102C19.4774 7.70424 20.3755 7.2972 21.375 7.2972C23.2389 7.2972 24.75 8.71264 24.75 10.4586C24.75 12.2047 23.2389 13.6201 21.375 13.6201H2.25" stroke="#685E9A" stroke-width="2" stroke-linecap="round" stroke-linejoin="round"/>
</g>
</g>
</g>
</g>
</g>
</g>
</svg>
