<svg xmlns="http://www.w3.org/2000/svg" viewBox="0 0 315.96 315.96"><defs><style>.cls-2{fill:#303031}</style></defs><g id="Layer_2" data-name="Layer 2"><g id="Layer_1-2" data-name="Layer 1"><path d="m315.96 157.98-21.68 21.6 13.99 27.23-27.32 13.82 4.84 30.22-30.24 4.7-4.7 30.24-30.22-4.84-13.82 27.32-27.23-13.99-21.6 21.68-21.6-21.68-27.23 13.99-13.82-27.32-30.22 4.84-4.7-30.24-30.24-4.7 4.84-30.22-27.32-13.82 13.99-27.23L0 157.98l21.68-21.6-13.99-27.23 27.32-13.82-4.84-30.22 30.24-4.7 4.7-30.24 30.22 4.84 13.82-27.32 27.23 13.99L157.98 0l21.6 21.68 27.23-13.99 13.82 27.32 30.22-4.84 4.7 30.24 30.24 4.7-4.84 30.22 27.32 13.82-13.99 27.23z" style="fill:#f8f2a7"/><circle cx="135.4" cy="121.83" r="4.37" class="cls-2"/><circle cx="180.56" cy="121.83" r="4.37" class="cls-2"/><path d="m155.76 128.4-3.65 16.39h11.74l-5.87 15.37" style="fill:none;stroke:#303031;stroke-miterlimit:10"/></g></g></svg>