<svg width="26" height="34" viewBox="0 0 26 34" fill="none" xmlns="http://www.w3.org/2000/svg">
<path fill-rule="evenodd" clip-rule="evenodd" d="M25.5 12.4328C25.504 14.9708 24.7235 17.4487 23.2643 19.5306H23.2678L14.5054 33.1792C14.344 33.4308 14.1214 33.6379 13.8583 33.7813C13.5952 33.9248 13.3 34 13 34C12.7 34 12.4048 33.9248 12.1417 33.7813C11.8786 33.6379 11.656 33.4308 11.4946 33.1792L2.775 19.5857C1.64502 17.9873 0.909679 16.1465 0.62861 14.2126C0.347542 12.2787 0.528659 10.3062 1.15728 8.45489C1.78589 6.60363 2.84431 4.9258 4.24669 3.55748C5.64906 2.18915 7.35592 1.16886 9.22882 0.57935C11.1017 -0.0101626 13.0879 -0.152299 15.0264 0.164468C16.9648 0.481236 18.8009 1.24799 20.3858 2.40254C21.9706 3.5571 23.2596 5.06694 24.1482 6.80964C25.0367 8.55233 25.4999 10.4788 25.5 12.4328ZM13 19.5377C14.8944 19.5377 16.7112 18.7892 18.0508 17.4568C19.3903 16.1243 20.1428 14.3172 20.1428 12.4328C20.1428 10.5485 19.3903 8.74129 18.0508 7.40885C16.7112 6.07642 14.8944 5.32787 13 5.32787C11.1056 5.32787 9.28878 6.07642 7.94923 7.40885C6.60969 8.74129 5.85714 10.5485 5.85714 12.4328C5.85714 14.3172 6.60969 16.1243 7.94923 17.4568C9.28878 18.7892 11.1056 19.5377 13 19.5377Z" fill="#303030"/>
</svg>
