<svg width="35" height="35" viewBox="0 0 35 35" fill="none" xmlns="http://www.w3.org/2000/svg">
<path fill-rule="evenodd" clip-rule="evenodd" d="M35 17.5C35 27.1652 27.1652 35 17.5 35C7.83475 35 0 27.1652 0 17.5C0 7.83475 7.83475 0 17.5 0C27.1652 0 35 7.83475 35 17.5ZM29.6275 24.5C28.3271 26.746 26.4308 28.5884 24.1483 29.8235C25.3091 28.1906 26.2258 26.3972 26.8695 24.5H29.6275ZM27.7305 21C27.902 19.9062 28 18.7407 28 17.5C28 16.2593 27.902 15.0938 27.7305 14H31.059C31.3477 15.12 31.5 16.2925 31.5 17.5C31.5 18.7075 31.3477 19.88 31.059 21H27.7305ZM24.2183 21C24.3985 19.9028 24.5 18.7355 24.5 17.5C24.5 16.2645 24.3985 15.0972 24.22 14H19.25V21H24.22H24.2183ZM19.25 24.5H23.331C22.4511 27.0193 21.1079 29.3519 19.3708 31.3775C19.3305 31.3823 19.2903 31.387 19.25 31.3915V24.5ZM15.75 21V14H10.78C10.6015 15.0972 10.5 16.2645 10.5 17.5C10.5 18.7355 10.6015 19.9028 10.78 21H15.75ZM11.669 24.5H15.75V31.3915C15.7091 31.3864 15.6683 31.3812 15.6275 31.3758C13.8911 29.3505 12.5485 27.0186 11.669 24.5ZM7.2695 21C7.08855 19.8421 6.99844 18.6719 7 17.5C7 16.2593 7.098 15.0938 7.2695 14H3.941C3.64729 15.1435 3.49912 16.3194 3.5 17.5C3.5 18.7075 3.654 19.88 3.941 21H7.2695ZM5.3725 24.5H8.1305C8.8725 26.684 9.8805 28.4585 10.8518 29.8235C8.56986 28.5882 6.67238 26.7457 5.3725 24.5ZM29.6275 10.5H26.8695C26.1275 8.316 25.1195 6.5415 24.1483 5.1765C26.4301 6.41182 28.3276 8.25426 29.6275 10.5ZM19.25 10.5H23.331C22.4511 7.98073 21.1079 5.64816 19.3708 3.6225C19.3305 3.61826 19.2903 3.61417 19.25 3.61025V10.5ZM15.75 3.6085V10.5H11.669C12.5489 7.98069 13.892 5.64811 15.6292 3.6225L15.75 3.61025V3.6085ZM10.8518 5.1765C9.69093 6.80942 8.77422 8.60275 8.1305 10.5H5.3725C6.67286 8.25402 8.56921 6.41156 10.8518 5.1765Z" fill="#303030"/>
</svg>
