<svg width="24" height="26" viewBox="0 0 24 26" fill="none" xmlns="http://www.w3.org/2000/svg">
<path d="M7.05004 7.6375C6.86257 7.84065 6.75725 8.11615 6.75725 8.40341C6.75725 8.69068 6.86257 8.96618 7.05004 9.16933L10.586 13L7.05004 16.8307C6.95453 16.9306 6.87835 17.0501 6.82594 17.1823C6.77353 17.3145 6.74594 17.4566 6.74479 17.6005C6.74363 17.7443 6.76894 17.887 6.81922 18.0201C6.8695 18.1533 6.94375 18.2742 7.03764 18.3759C7.13154 18.4776 7.24319 18.5581 7.36609 18.6126C7.48898 18.667 7.62066 18.6944 7.75344 18.6932C7.88622 18.6919 8.01744 18.6621 8.13944 18.6053C8.26145 18.5485 8.37179 18.466 8.46404 18.3625L12 14.5318L15.536 18.3625C15.7246 18.5598 15.9772 18.669 16.2394 18.6666C16.5016 18.6641 16.7524 18.5502 16.9379 18.3493C17.1233 18.1484 17.2284 17.8767 17.2307 17.5927C17.233 17.3086 17.1322 17.035 16.95 16.8307L13.414 13L16.95 9.16933C17.1322 8.96501 17.233 8.69136 17.2307 8.40731C17.2284 8.12327 17.1233 7.85155 16.9379 7.65069C16.7524 7.44984 16.5016 7.3359 16.2394 7.33343C15.9772 7.33097 15.7246 7.44016 15.536 7.6375L12 11.4682L8.46404 7.6375C8.27651 7.4344 8.0222 7.32031 7.75704 7.32031C7.49188 7.32031 7.23757 7.4344 7.05004 7.6375Z" fill="#303030"/>
</svg>
