<svg xmlns="http://www.w3.org/2000/svg" width="24" height="26" fill="none"><path fill="#303030" d="M7.05 7.638a1.13 1.13 0 0 0-.293.765c0 .288.106.563.293.766L10.586 13 7.05 16.83q-.144.152-.224.352a1.16 1.16 0 0 0-.007.838q.076.201.219.356a1 1 0 0 0 .328.237.94.94 0 0 0 .773-.008c.122-.056.233-.139.325-.242L12 14.532l3.536 3.83a.96.96 0 0 0 .703.305.96.96 0 0 0 .699-.318c.185-.2.29-.472.293-.756a1.13 1.13 0 0 0-.281-.762L13.414 13l3.536-3.83c.182-.205.283-.479.28-.763a1.13 1.13 0 0 0-.292-.756.96.96 0 0 0-.699-.318.96.96 0 0 0-.703.305L12 11.468l-3.536-3.83a.96.96 0 0 0-.707-.318.96.96 0 0 0-.707.317"/></svg>